<?xml version="1.0" encoding="UTF-8" standalone="no"?>
<!-- Created with Inkscape (http://www.inkscape.org/) -->

<svg
   width="512"
   height="512"
   viewBox="0 0 135.46666 135.46667"
   version="1.1"
   id="svg1"
   inkscape:version="1.3 (0e150ed6c4, 2023-07-21)"
   sodipodi:docname="Rain1.svg"
   xmlns:inkscape="http://www.inkscape.org/namespaces/inkscape"
   xmlns:sodipodi="http://sodipodi.sourceforge.net/DTD/sodipodi-0.dtd"
   xmlns="http://www.w3.org/2000/svg"
   xmlns:svg="http://www.w3.org/2000/svg">
  <sodipodi:namedview
     id="namedview1"
     pagecolor="#ffffff"
     bordercolor="#000000"
     borderopacity="0.25"
     inkscape:showpageshadow="2"
     inkscape:pageopacity="0.0"
     inkscape:pagecheckerboard="0"
     inkscape:deskcolor="#d1d1d1"
     inkscape:document-units="px"
     inkscape:zoom="0.7652427"
     inkscape:cx="135.9046"
     inkscape:cy="235.87288"
     inkscape:window-width="1920"
     inkscape:window-height="1017"
     inkscape:window-x="1042"
     inkscape:window-y="276"
     inkscape:window-maximized="1"
     inkscape:current-layer="svg1" />
  <defs
     id="defs1" />
  <path
     id="path1"
     style="fill:#74abd1;fill-opacity:1;stroke-width:0.316045"
     d="M 79.631318,0 C 71.938001,0.00574999 64.671825,2.781167 59.913657,7.5323569 46.556197,1.1578331 33.982991,6.6082833 33.203142,21.398177 31.413865,20.779232 29.538859,20.464002 27.651026,20.463867 20.133554,20.463799 13.746367,25.370974 11.306803,32.231625 4.8482285,33.392115 0,38.274886 0,44.123404 0,50.836085 2.3559485,56.2777 10.234001,56.2777 h 17.417025 73.076674 24.50497 c 7.87803,0 10.23399,-5.441615 10.23399,-12.154296 0,-5.756635 -4.6985,-10.575096 -11.00501,-11.831835 C 122.10505,25.013223 114.4648,19.290872 104.65718,18.03921 103.53127,7.8347949 92.664118,7.5639929e-4 79.631318,0 Z M 34.182926,59.444433 c -2.00328,-0.05411 -3.965327,0.96366 -5.041552,2.827736 L 8.9916994,97.170297 c -1.5654181,2.711385 -0.6422589,6.155043 2.0691246,7.720453 2.711383,1.56542 6.15504,0.64226 7.720459,-2.06912 L 38.928891,67.923501 c 1.565418,-2.71138 0.642258,-6.152973 -2.069125,-7.718392 -0.847308,-0.489192 -1.766257,-0.73608 -2.67684,-0.760676 z m 63.991959,0.531236 c -2.003279,-0.05411 -3.967396,0.965724 -5.04362,2.8298 L 72.981593,97.703597 c -1.56542,2.711383 -0.64226,6.155043 2.069125,7.720463 2.711383,1.56541 6.155039,0.64225 7.720459,-2.06913 L 102.91878,68.456805 c 1.56542,-2.711384 0.64433,-6.155043 -2.06705,-7.720459 -0.84731,-0.489193 -1.76626,-0.736081 -2.676845,-0.760677 z M 56.130941,77.97147 c -2.00328,-0.05411 -3.965329,0.963656 -5.041552,2.827731 L 24.422282,126.98553 c -1.565417,2.71138 -0.642259,6.15298 2.069125,7.7184 2.711383,1.56541 6.155041,0.64432 7.720458,-2.06707 l 26.66504,-46.186323 c 1.565416,-2.711383 0.64226,-6.155039 -2.069125,-7.720459 -0.847307,-0.489193 -1.766255,-0.734013 -2.676839,-0.758608 z m 63.991959,0 c -2.00328,-0.05411 -3.96739,0.963656 -5.04362,2.827731 L 88.414242,126.98553 c -1.565416,2.71138 -0.644324,6.15298 2.067055,7.7184 2.711385,1.56541 6.155045,0.64432 7.720461,-2.06707 L 124.8668,86.450537 c 1.56541,-2.711383 0.64432,-6.155039 -2.06706,-7.720459 -0.84731,-0.489193 -1.76626,-0.734013 -2.67684,-0.758608 z" />
</svg>
