<?xml version="1.0" encoding="UTF-8" standalone="no"?>
<!-- Created with Inkscape (http://www.inkscape.org/) -->

<svg
   width="512"
   height="512"
   viewBox="0 0 135.46666 135.46666"
   version="1.1"
   id="svg1"
   inkscape:version="1.3 (0e150ed6c4, 2023-07-21)"
   sodipodi:docname="KWD_AIAF_SPEL_Shadow_Debuff.svg"
   xmlns:inkscape="http://www.inkscape.org/namespaces/inkscape"
   xmlns:sodipodi="http://sodipodi.sourceforge.net/DTD/sodipodi-0.dtd"
   xmlns="http://www.w3.org/2000/svg"
   xmlns:svg="http://www.w3.org/2000/svg">
  <sodipodi:namedview
     id="namedview1"
     pagecolor="#ffffff"
     bordercolor="#000000"
     borderopacity="0.25"
     inkscape:showpageshadow="2"
     inkscape:pageopacity="0.0"
     inkscape:pagecheckerboard="0"
     inkscape:deskcolor="#d1d1d1"
     inkscape:document-units="px"
     inkscape:zoom="1.0595392"
     inkscape:cx="218.96311"
     inkscape:cy="234.53592"
     inkscape:window-width="1920"
     inkscape:window-height="1017"
     inkscape:window-x="1042"
     inkscape:window-y="276"
     inkscape:window-maximized="1"
     inkscape:current-layer="svg1" />
  <defs
     id="defs1" />
  <path
     id="rect14"
     style="fill:#5b2fc2;stroke-width:0.712876"
     d="M 66.881906,2.4515432e-4 C 41.585706,-0.01322655 16.566165,0.52804005 5.9252312,1.4343633 5.5503936,31.032512 10.630741,57.544018 21.168589,80.96765 31.871358,104.1472 47.407834,122.3825 67.732614,135.46666 88.057397,122.3825 103.59528,104.1472 114.29807,80.96765 124.83592,57.544018 129.91627,31.032512 129.54143,1.4343633 118.90047,0.52804005 93.879525,-0.01196045 68.583353,2.4515432e-4 c -0.286,0 -0.564652,0.005399996 -0.850739,0.005399996 -0.28604,-2.695e-4 -0.564708,-0.005399996 -0.850708,-0.005399996 z M 67.732614,6.5094565 c 8.872447,-0.0054 17.487555,0.0749 25.464539,0.19642 -1.369804,9.4881855 -8.39746,25.7287745 -17.46832,37.6558505 -3.838548,0.25324 -7.621436,0.3928 -11.264027,0.37872 -3.522096,-4.592224 -4.338864,-18.196611 -6.874,-22.867793 -2.96062,-5.455211 -7.122632,-9.537061 -5.641764,-15.2976495 5.13644,-0.04392 10.448504,-0.068972 15.783572,-0.065472 z M 35.857774,6.7990433 C 46.818474,16.050046 50.59737,23.871672 50.91175,37.525234 l 1.598416,11.113657 C 41.585946,52.96237 36.855786,50.882038 18.673492,51.217486 15.966808,39.443473 14.687534,26.872417 14.85849,13.489262 V 7.6079946 c 4.132773,-0.343691 11.710588,-0.619107 20.999284,-0.8089513 z m 65.694816,0.054424 c 8.30453,0.187524 15.244,0.437777 19.05418,0.754659 v 5.8812397 c 0.10832,8.48818 -0.36544,16.650479 -1.41461,24.49129 -7.20184,1.403483 -24.180307,4.187178 -31.196819,5.30759 3.248256,-16.05382 3.659596,-0.474388 13.557249,-36.4347787 z m 6.61501,38.5539307 c 2.97914,0.024 6.18528,0.2816 9.68094,0.84654 -1.95843,10.190819 -4.95228,19.803483 -8.98617,28.833979 -1.52204,3.277612 -3.34031,6.621 -5.38279,9.959423 L 90.768901,80.859174 73.081989,68.381018 c 2.136268,-6.11328 3.691012,-11.834364 4.08792,-16.323812 -0.0024,-0.0027 -0.0052,-0.008 -0.008,-0.0104 9.44586,-2.479307 18.091576,-6.743779 31.004651,-6.638675 z M 65.978274,53.764234 C 67.957941,84.275926 48.269486,93.282277 40.199086,96.865511 34.700822,89.790493 29.944283,82.283486 26.602892,75.087918 24.87253,71.214258 23.345511,67.227386 21.997019,63.14025 l 8.461263,-3.338828 12.739908,-2.716464 z m 3.634019,24.182164 18.083712,9.572331 7.560404,9.360712 c -8.20462,10.554799 -18.077048,20.136369 -27.500107,26.208029 -0.0052,-0.005 -0.0164,-0.008 -0.024,-0.0132 -0.0052,0.005 -0.0164,0.008 -0.024,0.0132 C 60.36843,118.35811 52.758982,111.491 45.870834,103.7033 51.035326,99.251951 64.47727,90.073289 69.611641,77.946398 Z" />
</svg>
