<?xml version="1.0" encoding="UTF-8" standalone="no"?>
<!-- Created with Inkscape (http://www.inkscape.org/) -->

<svg
   width="512"
   height="512"
   viewBox="0 0 135.46667 135.46667"
   version="1.1"
   id="svg1"
   xml:space="preserve"
   inkscape:version="1.3 (0e150ed6c4, 2023-07-21)"
   sodipodi:docname="KWD_AIAF_SPEL_Shadow_SlayEnemy.svg"
   xmlns:inkscape="http://www.inkscape.org/namespaces/inkscape"
   xmlns:sodipodi="http://sodipodi.sourceforge.net/DTD/sodipodi-0.dtd"
   xmlns="http://www.w3.org/2000/svg"
   xmlns:svg="http://www.w3.org/2000/svg"><sodipodi:namedview
     id="namedview1"
     pagecolor="#ffffff"
     bordercolor="#000000"
     borderopacity="0.25"
     inkscape:showpageshadow="2"
     inkscape:pageopacity="0.0"
     inkscape:pagecheckerboard="0"
     inkscape:deskcolor="#d1d1d1"
     inkscape:document-units="px"
     inkscape:zoom="1"
     inkscape:cx="153"
     inkscape:cy="214.49999"
     inkscape:window-width="1920"
     inkscape:window-height="1017"
     inkscape:window-x="1042"
     inkscape:window-y="276"
     inkscape:window-maximized="1"
     inkscape:current-layer="svg1" /><defs
     id="defs1" /><path
     id="path1"
     style="fill:#5b2fc2;stroke-width:2.903"
     d="M 67.733331,0.00944396 C 67.178644,0.00659064 66.624438,-0.01116732 66.069643,0.01094461 48.380551,0.71660708 30.802572,14.103427 23.678042,38.884669 c -3.67325,12.776698 -6.49879,81.068191 -3.019622,87.004961 0.170659,4.06756 0.119196,4.0007 -0.06152,8.65143 -0.04232,1.08924 3.368643,0.92561 15.15144,0.92561 h 63.969952 c 11.782798,0 15.193768,0.16359 15.151448,-0.92561 -0.18075,-4.65073 -0.19911,-4.65001 -0.0615,-8.65143 3.47915,-5.93677 0.65361,-74.228263 -3.01965,-87.004961 C 104.66409,14.103427 87.086106,0.71660708 69.397014,0.0109448 68.842219,-0.01111796 68.288009,0.00658984 67.733331,0.00944396 Z m -0.03166,4.84252864 c 0.381335,-0.022919 0.799122,0.049785 1.176129,0.040494 30.814995,-0.7474526 47.13366,44.2903084 38.94873,117.8408034 -1.22593,6.49729 -1.59943,6.8159 -40.093358,6.48222 -38.493768,0.33368 -38.867283,0.0152 -40.0932,-6.48222 C 19.455038,49.182775 35.773702,4.1450181 66.588707,4.892475 66.965682,4.901755 67.320495,4.82908 67.701821,4.851981 Z m 0.0316,6.6427204 c -3.597454,0.236799 -7.575874,1.10649 -11.993737,2.736297 -26.12476,15.373188 -19.644956,76.540149 -20.612245,104.18032 -0.126832,3.6246 -0.843539,3.92773 8.13838,4.24997 4.554289,0.024 9.901889,0.55982 13.15793,0.67507 4.966887,0.17583 7.487023,0.0701 11.309733,0.24754 3.822702,-0.17754 6.34285,-0.0717 11.309724,-0.24754 3.256046,-0.11527 8.603642,-0.65127 13.157935,-0.67507 8.981919,-0.32222 8.265219,-0.62537 8.138379,-4.24997 C 99.37208,90.771139 105.85189,29.604178 79.727128,14.23099 75.309266,12.601183 71.330842,11.73149 67.733331,11.494693 Z M 62.11516,21.75881 H 73.351377 V 52.0096 h 20.922776 v 7.791848 H 73.351409 V 117.97626 H 62.115192 V 59.801448 H 41.17442 V 52.0096 h 20.940772 z"
     sodipodi:nodetypes="ccccsssscsccccccccccccscccccccccccccccccccccc" /></svg>
