<?xml version="1.0" encoding="UTF-8" standalone="no"?>
<!-- Created with Inkscape (http://www.inkscape.org/) -->

<svg
   width="512"
   height="512"
   viewBox="0 0 135.46666 135.46666"
   version="1.1"
   id="svg1"
   sodipodi:docname="KWD_AIAF_SPEL_Necromancy_SacrificeCorpse.svg"
   inkscape:version="1.3 (0e150ed6c4, 2023-07-21)"
   xml:space="preserve"
   xmlns:inkscape="http://www.inkscape.org/namespaces/inkscape"
   xmlns:sodipodi="http://sodipodi.sourceforge.net/DTD/sodipodi-0.dtd"
   xmlns="http://www.w3.org/2000/svg"
   xmlns:svg="http://www.w3.org/2000/svg"><sodipodi:namedview
     id="namedview1"
     pagecolor="#ffffff"
     bordercolor="#000000"
     borderopacity="0.25"
     inkscape:showpageshadow="2"
     inkscape:pageopacity="0.0"
     inkscape:pagecheckerboard="0"
     inkscape:deskcolor="#d1d1d1"
     inkscape:document-units="px"
     inkscape:zoom="1"
     inkscape:cx="132"
     inkscape:cy="244.49999"
     inkscape:window-width="1920"
     inkscape:window-height="1017"
     inkscape:window-x="1042"
     inkscape:window-y="276"
     inkscape:window-maximized="1"
     inkscape:current-layer="svg1"
     showgrid="true"><inkscape:grid
       id="grid1"
       units="px"
       originx="0"
       originy="0"
       spacingx="0.26458333"
       spacingy="0.26458333"
       empcolor="#0099e5"
       empopacity="0.30196078"
       color="#0099e5"
       opacity="0.14901961"
       empspacing="5"
       dotted="false"
       gridanglex="30"
       gridanglez="30"
       visible="true" /></sodipodi:namedview><defs
     id="defs1" /><g
     id="g1"
     transform="matrix(3.9999995,0,0,3.9999995,1.4350278e-6,0)"><path
       id="path3"
       d="m 1.8357658,18.019048 c -0.1740429,0.04623 -0.244676,0.09861 -0.3359282,0.262926 l -0.1196869,0.205497 0.413213,1.403143 c 0.2316639,0.773374 0.7631641,2.718764 0.7725754,2.711609 0.1951804,-0.148455 0.8510613,0.02833 1.0169418,0.123251 0.058497,0.03347 -0.3100017,-1.272254 -0.6265651,-2.44332 l -0.576601,-2.133016 -0.1657827,-0.09044 c -0.1217824,-0.07412 -0.2199243,-0.08168 -0.3781663,-0.03965 z m -1.48589459,1.913157 c -0.031633,0.0084 -0.09984,0.04892 -0.1521856,0.08524 -0.050959,0.04155 -0.1261004,0.139956 -0.1671691,0.218094 -0.070527,0.136413 -0.05461,0.216236 0.4442698,2.061699 0.39853128,1.474293 0.54578249,1.956297 0.64761529,2.102949 0.068008,0.105207 3.6305805,4.37569 3.7045157,4.440113 0.080621,0.06823 1.5107839,1.772825 1.6396334,1.873084 0.1288626,0.100256 0.3190451,0.301892 0.4194492,0.44333 0.158914,0.232347 0.2175219,0.407308 0.4959191,1.437206 0.1738328,0.643046 0.3335089,1.229889 0.3620595,1.272749 l 3.1168235,-3e-6 -0.705476,-3.309334 C 9.458311,28.041666 9.4498311,28.0103 9.2380808,27.70792 9.1186344,27.537928 8.9157524,27.289244 8.7875481,27.149586 8.6554141,27.016625 8.3959825,26.788507 8.2002583,26.649984 8.0098059,26.510049 7.675421,26.318687 7.4512491,26.221337 7.2337762,26.127811 6.8727549,26.005176 6.6560241,25.956264 5.5570614,25.869371 6.0200266,25.992888 5.9250386,25.937 5.7738398,25.848029 5.1697141,25.506241 4.6333322,24.575666 4.3858119,24.14625 4.2335468,23.894185 3.5830502,23.491144 c -0.072154,-0.03686 -0.6667367,-0.27047 -0.7669636,-0.243845 -0.1318418,0.03502 -0.2154818,0.102058 -0.2965607,0.241269 -0.060365,0.111281 -0.096422,0.249727 -0.076634,0.322931 0.019764,0.07318 0.4315009,0.496643 1.1969325,1.425223 0.9221761,1.111073 0.8677407,1.46875 0.8650049,1.542313 -0.00696,0.05788 0.1659414,0.607139 0.096335,0.642429 C 4.6262204,27.636848 2.591805,25.400725 1.7237097,23.910505 1.5165357,23.554862 1.689515,22.967535 1.7776212,22.977591 1.8710535,22.863118 1.7222175,22.750407 1.3587408,21.468524 1.0867413,20.504148 0.96813124,20.149021 0.88183738,20.05988 0.82372958,19.99126 0.68895611,19.931803 0.59080631,19.924258 c -0.103423,-0.0062 -0.2107036,-0.0057 -0.2409349,0.008 z M 3.942193,19.028515 c -0.1160383,0.03082 -0.1996625,0.09786 -0.2638848,0.215775 l -0.089839,0.169558 0.5579454,2.126749 0.5593608,2.131995 0.6572964,0.800398 c 0.3624765,0.441645 0.6917743,0.802454 0.7329382,0.808324 0.051705,0.0031 -0.1077066,-0.64939 -0.7464901,-3.012441 -0.6868345,-2.54078 -0.8302228,-3.029407 -0.9327065,-3.136676 -0.064812,-0.07244 -0.1598559,-0.131239 -0.2077005,-0.140946 -0.051705,-0.0031 -0.1719818,0.01206 -0.2669196,0.03726 z m 2.6279976,2.134631 c -0.052745,0.01401 -0.1367578,0.05873 -0.1891321,0.09505 -0.050943,0.04155 -0.1260898,0.139963 -0.1671505,0.218105 -0.070527,0.136405 -0.051789,0.226679 0.3818017,1.893373 l 0.5340932,2.038503 c 0.6060429,0.131442 1.3690691,0.712524 1.3106581,0.708944 L 7.6527311,23.139368 C 7.32769,21.936928 7.1677203,21.407873 7.0948117,21.32639 7.0366854,21.257765 6.9215864,21.187479 6.831165,21.166667 6.735473,21.147277 6.6215145,21.143907 6.5701906,21.163167 Z"
       style="fill:#5dd795;stroke-width:0.0051285"
       sodipodi:nodetypes="sccccssccsccccccccscccccccccscscccccscccccccccccccscccsccccccccss" /><path
       id="path1"
       d="m 32.030899,18.019045 c 0.174043,0.04623 0.244676,0.09861 0.335928,0.262926 l 0.119687,0.205498 -0.413213,1.403143 c -0.231664,0.773374 -0.763164,2.718763 -0.772576,2.711608 -0.19518,-0.148455 -0.851061,0.02833 -1.016941,0.123252 -0.0585,0.03347 0.310001,-1.272255 0.626565,-2.443321 l 0.576601,-2.133015 0.165782,-0.09045 c 0.121783,-0.07412 0.219925,-0.08168 0.378167,-0.03965 z m 1.485894,1.913158 c 0.03163,0.0084 0.09984,0.04892 0.152186,0.08524 0.05096,0.04155 0.1261,0.139956 0.167169,0.218093 0.07053,0.136413 0.05461,0.216236 -0.44427,2.061699 -0.398531,1.474293 -0.545782,1.956297 -0.647615,2.10295 -0.06801,0.105206 -3.630581,4.375689 -3.704516,4.440113 -0.08062,0.06822 -1.510784,1.772824 -1.639633,1.873083 -0.128863,0.100256 -0.319045,0.301892 -0.419449,0.44333 -0.158914,0.232347 -0.217522,0.407308 -0.49592,1.437207 -0.173832,0.643045 -0.333508,1.229889 -0.362059,1.272748 l -3.116823,-2e-6 0.705476,-3.309332 c 0.697015,-2.515666 0.705494,-2.547032 0.917245,-2.849411 0.119446,-0.169992 0.322328,-0.418677 0.450532,-0.558334 0.132134,-0.132962 0.391566,-0.36108 0.58729,-0.499603 0.190453,-0.139935 0.524837,-0.331297 0.749009,-0.428646 0.217473,-0.09353 0.578495,-0.216162 0.795225,-0.265073 1.098963,-0.08689 0.635998,0.03662 0.730986,-0.01926 0.151199,-0.08897 0.755324,-0.430759 1.291706,-1.361334 0.247521,-0.429416 0.399786,-0.681481 1.050282,-1.084521 0.07215,-0.03686 0.666737,-0.27047 0.766964,-0.243846 0.131842,0.03502 0.215482,0.102059 0.296561,0.241269 0.06036,0.111281 0.09642,0.249727 0.07663,0.322932 -0.01976,0.07318 -0.431501,0.496643 -1.196933,1.425222 -0.922176,1.111074 -0.867741,1.468751 -0.865005,1.542313 0.007,0.05788 -0.165941,0.607139 -0.09633,0.642429 -0.02506,0.215384 2.00936,-2.020739 2.877455,-3.510959 0.207174,-0.355643 0.0342,-0.94297 -0.05391,-0.932914 -0.09343,-0.114473 0.0554,-0.227183 0.41888,-1.509067 0.271999,-0.964376 0.39061,-1.319502 0.476903,-1.408644 0.05811,-0.06862 0.192882,-0.128077 0.291031,-0.135621 0.103423,-0.0062 0.210704,-0.0057 0.240935,0.008 z m -3.592322,-0.903691 c 0.116039,0.03082 0.199663,0.09786 0.263885,0.215775 l 0.08984,0.169558 -0.557946,2.12675 -0.559361,2.131995 -0.657296,0.800397 c -0.362477,0.441645 -0.691774,0.802454 -0.732938,0.808325 -0.0517,0.0031 0.107706,-0.649391 0.74649,-3.012442 0.686834,-2.540779 0.830223,-3.029407 0.932706,-3.136675 0.06481,-0.07244 0.159856,-0.13124 0.207701,-0.140947 0.05171,-0.0031 0.171982,0.01207 0.266919,0.03726 z m -2.627997,2.134632 c 0.05274,0.014 0.136758,0.05873 0.189132,0.09505 0.05094,0.04155 0.12609,0.139963 0.16715,0.218105 0.07053,0.136406 0.05179,0.22668 -0.381801,1.893373 l -0.534093,2.038503 c -0.606043,0.131443 -1.36907,0.712524 -1.310659,0.708944 l 0.78773,-2.977754 c 0.325041,-1.20244 0.485011,-1.731494 0.55792,-1.812978 0.05813,-0.06863 0.173225,-0.13891 0.263646,-0.159723 0.09569,-0.01939 0.209651,-0.02276 0.260975,-0.0035 z"
       style="fill:#5dd795;stroke-width:0.0051285"
       sodipodi:nodetypes="sccccssccsccccccccscccccccccscscccccscccccccccccccscccsccccccccss" /><path
       id="path12077"
       style="display:inline;fill:#5dd795;stroke-width:0.0682283"
       d="M 16.933333,0 C 14.846658,0 12.966279,0.38305053 11.290267,1.1467 L 13.756266,6.9065551 9.7069009,2.0226155 C 9.4827836,2.1700762 9.2619198,2.3235873 9.0464761,2.4871866 7.1111544,4.1724047 6.1427774,6.3902365 6.1427774,9.1420775 c 0,2.3515825 0.3306362,4.0647325 0.9901204,5.1381875 0.6822477,1.180345 1.1010046,2.02665 1.2557373,2.538346 -0.1547327,2.115108 0.4392743,3.332038 1.7833539,3.650423 1.250898,0.357057 2.239179,0.841381 2.964677,1.453142 l 0.330729,1.930631 h 6.922574 l 0.340548,-1.930631 c 0.652793,-0.65043 1.6048,-1.134754 2.85564,-1.453142 0.628852,-0.332442 1.099837,-0.76943 1.418001,-1.307413 0.0015,-4.93e-4 0.0031,-4.58e-4 0.0047,-0.001 v -0.0067 c 0.362071,-0.616242 0.524129,-1.36515 0.480591,-2.249992 v -0.08527 c 0.04289,-0.268316 0.121866,-0.524017 0.235644,-0.767395 1.332641,-2.394785 1.998845,-4.698537 1.998845,-6.9091385 0,-2.6790388 -1.015716,-4.8973961 -3.04891,-6.6554076 C 23.579142,1.5871056 22.316438,0.93387137 20.890197,0.52244872 L 19.083073,5.1449055 V 0.14262695 C 18.397968,0.04842223 17.682052,0 16.933333,0 Z m -5.876644,11.92692 c 1.142807,0.026 2.38848,0.961907 3.951697,2.206067 0.334504,0.266233 0.673824,0.905761 0.594279,1.272274 -0.08054,0.370749 -0.643175,0.78648 -1.055233,0.88005 -0.749341,0.169898 -1.40199,0.257444 -1.967838,0.278019 -0.139864,0.0051 -0.274138,0.0064 -0.403593,0.0036 h -5.17e-4 C 8.6440107,16.4854 8.9318872,13.519436 9.7983681,12.319644 10.175601,12.062386 10.555555,11.939746 10.946618,11.92742 c 0.03666,-0.0011 0.07321,-0.0014 0.110071,-5.17e-4 z m 11.814783,0 c 0.03686,-8.39e-4 0.07341,-5.57e-4 0.110071,5.17e-4 0.391063,0.01232 0.771014,0.134453 1.14825,0.391707 0.86648,1.199791 1.154354,4.165778 -2.377116,4.247286 -0.129583,0.0028 -0.26462,0.0022 -0.404626,-0.0031 -0.565852,-0.02059 -1.217974,-0.108121 -1.967322,-0.278019 -0.412055,-0.09357 -0.974685,-0.5093 -1.055233,-0.88005 -0.07954,-0.366512 0.259775,-1.00604 0.594279,-1.272274 1.563214,-1.244159 2.80889,-2.180055 3.951697,-2.206067 z m -5.900415,5.025533 c 0.04397,0 0.08792,0.02818 0.139526,0.08527 1.865952,2.771716 1.914973,3.636054 0.146244,2.555917 -0.07509,-0.08903 -0.180557,-0.133842 -0.28577,-0.133842 -0.105218,0 -0.210174,0.04482 -0.285254,0.133842 -1.768723,1.080137 -1.720226,0.215799 0.145727,-2.555917 0.05164,-0.0571 0.09554,-0.08527 0.139527,-0.08527 z"
       sodipodi:nodetypes="sccccsccccccccccccccsccccscsccccccccscccccccssccsccs" /><path
       style="fill:#ff00ff;stroke-width:0.204067"
       d="m 23.282854,19.006064 c -9.26e-4,6.53e-4 -0.0019,0.0013 -0.0028,0.002 0.001,5.7e-5 0.0019,-5.4e-5 0.0028,0 z"
       id="path6" /></g></svg>
