<?xml version="1.0" encoding="UTF-8" standalone="no"?>
<!-- Created with Inkscape (http://www.inkscape.org/) -->

<svg
   width="512"
   height="512"
   viewBox="0 0 135.46666 135.46667"
   version="1.1"
   id="svg1"
   inkscape:version="1.3 (0e150ed6c4, 2023-07-21)"
   sodipodi:docname="KWD_AIAF_SPEL_Necromancy_SummonEquipmentWarAxe.svg"
   xmlns:inkscape="http://www.inkscape.org/namespaces/inkscape"
   xmlns:sodipodi="http://sodipodi.sourceforge.net/DTD/sodipodi-0.dtd"
   xmlns="http://www.w3.org/2000/svg"
   xmlns:svg="http://www.w3.org/2000/svg">
  <sodipodi:namedview
     id="namedview1"
     pagecolor="#ffffff"
     bordercolor="#000000"
     borderopacity="0.25"
     inkscape:showpageshadow="2"
     inkscape:pageopacity="0.0"
     inkscape:pagecheckerboard="0"
     inkscape:deskcolor="#d1d1d1"
     inkscape:document-units="px"
     showgrid="true"
     inkscape:zoom="1.0595392"
     inkscape:cx="182.15466"
     inkscape:cy="260.0187"
     inkscape:window-width="1920"
     inkscape:window-height="1017"
     inkscape:window-x="1042"
     inkscape:window-y="276"
     inkscape:window-maximized="1"
     inkscape:current-layer="svg1">
    <inkscape:grid
       id="grid1"
       units="px"
       originx="0"
       originy="0"
       spacingx="0.26458332"
       spacingy="0.26458334"
       empcolor="#0099e5"
       empopacity="0.30196078"
       color="#0099e5"
       opacity="0.14901961"
       empspacing="5"
       dotted="false"
       gridanglex="30"
       gridanglez="30"
       visible="true" />
  </sodipodi:namedview>
  <defs
     id="defs1">
    <inkscape:path-effect
       effect="fillet_chamfer"
       id="path-effect1"
       is_visible="true"
       lpeversion="1"
       nodesatellites_param="F,0,0,1,0,0,0,1 @ F,0,0,1,0,0,0,1 @ F,0,0,1,0,0,0,1 @ F,0,0,1,0,0,0,1 @ F,0,0,1,0,0,0,1 @ F,0,0,1,0,0,0,1 @ F,0,0,1,0,0,0,1 @ F,0,0,1,0,0,0,1 @ F,0,0,1,0,0,0,1"
       radius="0"
       unit="px"
       method="auto"
       mode="F"
       chamfer_steps="1"
       flexible="false"
       use_knot_distance="true"
       apply_no_radius="true"
       apply_with_radius="true"
       only_selected="false"
       hide_knots="false" />
    <inkscape:path-effect
       effect="fillet_chamfer"
       id="path-effect12"
       is_visible="true"
       lpeversion="1"
       nodesatellites_param="F,0,0,1,0,9.772824,0,1 @ F,0,0,1,0,9.2122949,0,1 @ F,0,0,1,0,0,0,1 @ F,0,0,1,0,9.9647101,0,1 @ F,0,1,1,0,9.9647101,0,1 @ F,0,0,1,0,0,0,1"
       radius="0"
       unit="px"
       method="auto"
       mode="F"
       chamfer_steps="1"
       flexible="false"
       use_knot_distance="true"
       apply_no_radius="true"
       apply_with_radius="true"
       only_selected="false"
       hide_knots="false" />
  </defs>
  <path
     id="path1"
     d="m 76.864084,5.0050482 c 0.381502,-0.6641226 0.674467,-0.8966455 1.449967,-1.0906535 l 0.97599,-0.2654925 5.309634,3.2421856 c 2.922219,1.8030766 10.32933,6.1281272 10.289575,6.1589182 -0.824753,0.638433 -0.820465,3.527579 -0.613108,4.313554 0.07311,0.277179 -4.885519,-2.674083 -9.348104,-5.263735 L 76.799751,7.3829459 76.610642,6.6022996 C 76.44025,6.0203897 76.517166,5.6088735 76.864068,5.0050385 Z M 86.359549,1.006606 c 0.06932,-0.12068944 0.310864,-0.35632024 0.517717,-0.53138709 0.226789,-0.16361562 0.713788,-0.36398994 1.080006,-0.44669764 0.638067,-0.13959698 0.948475,0.01379662 7.980974,4.09472063 5.618094,3.2601908 7.436204,4.3957325 7.926604,4.9755274 0.35734,0.395216 13.97995,19.7322247 14.16324,20.1068887 0.19155,0.406309 5.62016,8.158258 5.89022,8.797973 0.27006,0.639767 0.88904,1.643049 1.35958,2.211242 0.77961,0.908631 1.43389,1.342003 5.35853,3.619456 2.45045,1.42202 4.68559,2.724021 4.83024,2.888492 v 12.916363 l -16.25008,-6.652828 c -9.56777,-5.632802 -9.6873,-5.702159 -10.69646,-6.904957 -0.56689,-0.677845 -1.36522,-1.78509 -1.79784,-2.465531 -0.40078,-0.689209 -1.05237,-2.006134 -1.406,-2.962709 -0.36522,-0.936478 -0.78332,-2.520871 -0.93649,-3.548994 -0.14488,-0.9964 -0.25123,-2.614568 -0.2136,-3.558799 0.85278,-4.610492 0.85056,-2.572545 0.72552,-3.024306 -0.19906,-0.719106 -0.93822,-3.577262 -4.17082,-6.805253 -1.491679,-1.489585 -2.35962,-2.392611 -3.299344,-5.508698 -0.072,-0.337028 -0.377221,-3.036875 -0.157512,-3.419328 0.289025,-0.503093 0.65649,-0.772911 1.317649,-0.952763 0.523622,-0.125477 1.132086,-0.121218 1.411052,0.04066 0.278865,0.161741 1.565345,2.319434 4.537605,6.486224 3.54946,5.011634 5.07882,5.181733 5.38405,5.25147 0.24546,0.03495 2.31162,1.350077 2.53324,1.102942 0.85726,0.340061 -6.08985,-10.479441 -11.25647,-15.686263 C 99.958137,9.7874274 97.354825,9.8515178 97.29914,10.224567 96.726005,10.482389 96.426796,9.7468839 91.560584,6.8424943 87.898083,4.6634537 86.569694,3.785245 86.298468,3.3325967 86.08056,3.0183271 85.984644,2.3991955 86.061681,1.9876681 86.150075,1.5559539 86.27019,1.1157626 86.359745,1.0066468 Z m -7.667073,13.763459 c 0.254347,-0.442792 0.621827,-0.712545 1.176952,-0.846586 l 0.795487,-0.182433 8.123087,4.633338 8.143069,4.644928 2.564694,3.581437 c 1.415385,1.975323 2.535195,3.725348 2.513995,3.900923 -0.0442,0.215848 -2.549306,-1.157343 -11.554195,-6.382911 -9.682143,-5.618617 -11.531721,-6.745584 -11.859593,-7.284694 -0.226268,-0.346002 -0.363181,-0.801202 -0.350422,-1.008449 0.0442,-0.215848 0.238868,-0.693273 0.446898,-1.055561 z m 5.876736,13.146359 c 0.115515,-0.201262 0.391821,-0.497189 0.59869,-0.672376 0.226789,-0.163531 0.713807,-0.363936 1.080037,-0.446604 0.638032,-0.139597 0.988273,0.03676 7.358205,3.652785 l 7.786806,4.438208 c -0.12713,2.634484 1.42016,6.408869 1.46974,6.164958 L 91.4964,34.539246 c -4.582147,-2.659016 -6.579545,-3.898606 -6.834049,-4.287835 -0.217989,-0.31436 -0.37998,-0.864569 -0.36594,-1.258955 0.0252,-0.414465 0.137272,-0.886359 0.272905,-1.07601 z"
     style="fill:#5dd795;stroke-width:0.0218125"
     sodipodi:nodetypes="cccccssccsccccccccscccccccccscscccccscccccccccccccscccsccccccccsscc" />
  <path
     id="path2"
     d="m 61.032463,130.24741 c -0.39718,0.69139 -0.702156,0.93347 -1.509503,1.13545 l -1.016073,0.27637 -5.52767,-3.37531 c -3.042217,-1.87713 -10.753492,-6.37978 -10.712106,-6.41184 0.85862,-0.66465 0.854156,-3.67244 0.638283,-4.49069 -0.07615,-0.28854 5.086137,2.78391 9.731976,5.47989 l 8.46207,4.91058 0.196869,0.81271 c 0.177471,0.60579 0.09732,1.0342 -0.263825,1.66284 z m -9.885389,4.16263 c -0.07216,0.12568 -0.323623,0.37094 -0.53898,0.55322 -0.236068,0.17031 -0.74309,0.37893 -1.124351,0.46503 -0.664266,0.14536 -0.987414,-0.0147 -8.308706,-4.26287 -5.8488,-3.39406 -7.741568,-4.57624 -8.252104,-5.17984 -0.372024,-0.41144 -14.554032,-20.54252 -14.744841,-20.93257 -0.199388,-0.423 -5.850954,-8.493261 -6.132097,-9.159248 C 11.764868,95.227721 11.120441,94.183237 10.630578,93.59172 9.8189525,92.645772 9.1378107,92.194603 5.0520048,89.823627 2.5009255,88.343215 0.17400005,86.987747 0.02340853,86.81652 V 73.369761 L 16.940799,80.29578 c 9.960661,5.864105 10.085099,5.936314 11.135694,7.188502 0.590167,0.705681 1.421279,1.858398 1.871666,2.566777 0.417247,0.717516 1.095593,2.088518 1.463747,3.084376 0.380241,0.974929 0.815483,2.624386 0.974939,3.694723 0.150812,1.037319 0.261574,2.721934 0.222369,3.704942 -0.887796,4.79982 -0.88548,2.67818 -0.755296,3.1485 0.207257,0.74863 0.976735,3.72415 4.342089,7.0847 1.552934,1.55076 2.456518,2.49086 3.434831,5.73492 0.07494,0.35089 0.392708,3.16157 0.163984,3.55974 -0.300881,0.52374 -0.683451,0.80465 -1.371761,0.99188 -0.545126,0.13067 -1.178579,0.12623 -1.468994,-0.0423 -0.290336,-0.16838 -1.629626,-2.41468 -4.723948,-6.75257 -3.695212,-5.21744 -5.287375,-5.39453 -5.60513,-5.46712 -0.255567,-0.0364 -2.406554,-1.40552 -2.637263,-1.14824 -0.892467,-0.35398 6.339916,10.90977 11.71871,16.33041 1.28365,1.29365 3.993865,1.22693 4.051837,0.83856 0.596671,-0.26847 0.908168,0.49731 5.974205,3.52096 3.812898,2.26852 5.195839,3.18279 5.478204,3.65403 0.22687,0.32715 0.326745,0.97173 0.246509,1.40016 -0.09204,0.44944 -0.217069,0.90771 -0.310345,1.0213 z m 7.981917,-14.32865 c -0.264786,0.46098 -0.647362,0.74181 -1.225281,0.88135 l -0.828153,0.18992 -8.456653,-4.82361 -8.477462,-4.83566 -2.670011,-3.72851 c -1.473508,-2.05644 -2.6393,-3.87832 -2.617235,-4.06111 0.04599,-0.22471 2.653996,1.20486 12.028667,6.64502 10.079735,5.84934 12.005266,7.02259 12.346596,7.58384 0.235547,0.36022 0.3781,0.8341 0.364821,1.04986 -0.046,0.2247 -0.248667,0.72175 -0.465248,1.0989 z m -6.11806,-13.6862 c -0.120274,0.20951 -0.407879,0.51761 -0.623268,0.69999 -0.236068,0.17023 -0.743126,0.37889 -1.124391,0.46494 -0.664237,0.14535 -1.028859,-0.038 -7.660365,-3.80279 l -8.106564,-4.620449 c 0.132338,-2.742672 -1.478478,-6.672044 -1.5301,-6.418117 l 11.83304,6.781643 c 4.770308,2.768203 6.849731,4.058693 7.114685,4.463913 0.226949,0.3273 0.39558,0.90007 0.380981,1.31064 -0.026,0.43149 -0.142912,0.92276 -0.284105,1.12021 z"
     style="fill:#5dd795;stroke-width:0.0227083"
     sodipodi:nodetypes="cccccssccsccccccccscccccccccscscccccscccccccccccccscccsccccccccsscc" />
  <g
     id="g70"
     transform="matrix(-0.75730123,0.75730123,-0.75730123,-0.75730123,129.91667,82.84615)"
     style="display:inline;fill:#5dd795">
    <path
       id="rect71-0-9"
       style="display:inline;fill:#5dd795;fill-opacity:1;stroke-width:0.174316"
       d="M 75.225097,0.79888026 68.610489,7.4134879 56.70478,6.8843777 56.704415,2.122021 h 0.661444 c 0.366448,0 0.661388,-0.2949401 0.661388,-0.6613877 0,-0.3664475 -0.29494,-0.66138763 -0.661388,-0.66138763 h -0.661444 -7.937383 -0.661445 c -0.366447,0 -0.661387,0.29494013 -0.661387,0.66138763 0,0.3664476 0.29494,0.6613877 0.661387,0.6613877 h 0.661445 L 48.766666,6.8843777 35.537817,7.4138533 32.892266,3.4447964 32.8919,-0.52389509 38.183733,-4.492952 34.215041,-8.4616435 19.662685,-5.8157273 c -2.14236,19.8144063 -1.697252,37.3096343 6.384635,55.5515983 1.788025,2.256185 2.978169,3.629341 4.101213,5.253221 5.118137,-6.222145 3.260406,-9.788018 1.420227,-17.148482 l 3.65e-4,-10.583299 6.614608,-6.614608 h 9.260158 l 0.976004,7.984521 c 0.317904,2.598816 0,0 0.317904,2.597316 v 0.0015 h 0.02923 7.937383 0.02923 l 3.66e-4,-0.0018 c 0.5514,-2.509254 -3.66e-4,0.0018 0.5514,-2.509254 l 2.064918,-9.394993 h 5.291832 c 3.421357,8.723933 3.959532,13.575865 3.968291,22.489373 l -1.322775,6.614608 6.614607,1.322775 c 4.516315,-17.2251 9.231791,-32.391285 1.322816,-48.94786874 z"
       transform="translate(-21.166667,1.6702304e-4)"
       sodipodi:nodetypes="ccccsssccssscccccccccccccccccccccccccccc" />
    <path
       id="rect70"
       style="display:inline;fill:#5dd795;stroke-width:0.278077"
       d="m 56.885657,33.072772 -7.937748,-3.65e-4 C 47.700756,64.90896 47.624768,81.646172 47.624768,107.37036 l -0.804262,2.56983 c -1.027814,6.06842 -0.440175,14.25794 -3.16443,19.7057 -0.229366,2.28692 2.035554,5.21532 3.968692,4.4978 7.163065,-2.03577 13.033954,1.84005 12.435915,-3.17502 -2.612326,-7.11158 -2.2981,-15.66286 -4.498167,-22.7174 v -8.693782 c -3.65e-4,-2.680992 0,0.05788 -3.65e-4,-2.680992 -0.200675,-21.277886 0.60828,-42.5421 1.323506,-63.803724 z"
       transform="translate(-21.166667,1.667738e-4)"
       sodipodi:nodetypes="ccccccccccc" />
  </g>
</svg>
