<?xml version="1.0" encoding="UTF-8" standalone="no"?>
<!-- Created with Inkscape (http://www.inkscape.org/) -->

<svg
   width="512"
   height="512"
   viewBox="0 0 135.46666 135.46667"
   version="1.1"
   id="svg1"
   inkscape:version="1.3 (0e150ed6c4, 2023-07-21)"
   sodipodi:docname="NecroticShard.svg"
   xmlns:inkscape="http://www.inkscape.org/namespaces/inkscape"
   xmlns:sodipodi="http://sodipodi.sourceforge.net/DTD/sodipodi-0.dtd"
   xmlns="http://www.w3.org/2000/svg"
   xmlns:svg="http://www.w3.org/2000/svg">
  <sodipodi:namedview
     id="namedview1"
     pagecolor="#ffffff"
     bordercolor="#000000"
     borderopacity="0.25"
     inkscape:showpageshadow="2"
     inkscape:pageopacity="0.0"
     inkscape:pagecheckerboard="0"
     inkscape:deskcolor="#d1d1d1"
     inkscape:document-units="px"
     inkscape:zoom="1.0595392"
     inkscape:cx="165.16614"
     inkscape:cy="253.41205"
     inkscape:window-width="1920"
     inkscape:window-height="1017"
     inkscape:window-x="1042"
     inkscape:window-y="276"
     inkscape:window-maximized="1"
     inkscape:current-layer="svg1"
     showgrid="true">
    <inkscape:grid
       id="grid9"
       units="px"
       originx="0"
       originy="0"
       spacingx="0.26458332"
       spacingy="0.26458334"
       empcolor="#0099e5"
       empopacity="0.30196078"
       color="#0099e5"
       opacity="0.14901961"
       empspacing="5"
       dotted="false"
       gridanglex="30"
       gridanglez="30"
       visible="true" />
  </sodipodi:namedview>
  <defs
     id="defs1">
    <inkscape:path-effect
       effect="fillet_chamfer"
       id="path-effect9"
       is_visible="true"
       lpeversion="1"
       nodesatellites_param="F,0,0,1,0,2.066764,0,1 @ F,0,0,1,0,1.9759244,0,1 @ F,0,0,1,0,2.2092085,0,1 @ F,0,0,1,0,1.8767366,0,1"
       radius="0"
       unit="px"
       method="auto"
       mode="F"
       chamfer_steps="1"
       flexible="false"
       use_knot_distance="true"
       apply_no_radius="true"
       apply_with_radius="true"
       only_selected="false"
       hide_knots="false" />
    <inkscape:path-effect
       effect="fillet_chamfer"
       id="path-effect6"
       is_visible="true"
       lpeversion="1"
       nodesatellites_param="F,0,0,1,0,2.066764,0,1 @ F,0,0,1,0,1.9759244,0,1 @ F,0,0,1,0,2.2092085,0,1 @ F,0,0,1,0,1.8767366,0,1"
       radius="0"
       unit="px"
       method="auto"
       mode="F"
       chamfer_steps="1"
       flexible="false"
       use_knot_distance="true"
       apply_no_radius="true"
       apply_with_radius="true"
       only_selected="false"
       hide_knots="false" />
  </defs>
  <g
     id="g2"
     transform="matrix(1.0294163,0,0,1.0294163,-1.9924648,-3.9365454)"
     style="fill:#5dd795;stroke:#5dd795">
    <path
       id="path1-0"
       style="fill:#5dd795;stroke:#5dd795;stroke-width:0.430571"
       d="m 70.3889,3.8240558 c -0.233458,-3.3e-6 -0.466937,0.090617 -0.700287,0.2238909 L 66.289589,23.812589 68.716244,38.36449 h 6.470747 L 76.509754,35.718963 77.725592,13.841916 71.518896,4.3451291 C 71.142441,3.9982011 70.765742,3.8240613 70.3889,3.8240558 Z M 62.869982,5.4936992 46.348746,23.066119 c -0.233828,0.21493 -0.35857,0.397005 -0.376498,0.544667 -0.539497,0.64483 -0.870962,1.56661 -0.870966,2.347842 L 43.392483,44.239867 60.349955,37.367523 56.960971,23.812589 Z m 20.835403,10.1097258 -1.744441,24.388038 2.925641,6.967724 6.634398,-5.859815 -1.155097,-15.140744 c 3.06e-4,-0.877141 -0.19676,-1.816013 -0.704302,-2.370432 -0.02747,-0.144245 -0.150087,-0.318115 -0.372984,-0.522579 z M 63.529607,43.815177 43.08024,52.450537 v 0 L 71.437572,63.35643 h 8.897402 L 75.138297,43.893991 Z m 28.245888,7.300047 -6.080192,4.808132 3.204751,11.545437 -1.322763,2.910581 -7.523937,-0.165659 -12.269821,29.133919 3.578238,-0.34788 6.017944,3.142006 17.768701,-15.041856 z M 42.82372,59.920259 39.24498,97.057517 c -2.53e-4,0.24173 0.04245,0.472296 0.10793,0.693256 l 17.642196,-0.0602 13.692482,-27.520501 -3.362379,-0.05522 -5.089033,-2.399574 z m 52.518969,37.951003 -11.310504,11.310508 3.424125,1.86743 -8.074629,18.55834 -2.029074,5.28904 c 5.053603,-0.47036 5.515263,-1.56454 10.639334,-3.25394 1.370253,1.9e-4 2.374438,-0.62151 2.374447,-1.09586 l 5.855298,-21.5859 v -1.10841 z m -27.873908,9.428528 -27.798107,3.08828 5.430608,20.1582 c -3.08e-4,0.47457 0.473061,0.99795 1.844338,0.99797 7.798393,2.85862 13.621906,3.96904 21.586894,3.50796 l 2.033089,-5.44466 5.505907,-16.72103 z"
       sodipodi:nodetypes="scccccccsccccccccccccccccccccccccccccccccccccccccccccccccccccccccccc" />
  </g>
</svg>
