<?xml version="1.0" encoding="UTF-8" standalone="no"?>
<!-- Created with Inkscape (http://www.inkscape.org/) -->

<svg
   width="512"
   height="512"
   viewBox="0 0 135.46666 135.46667"
   version="1.1"
   id="svg1"
   xml:space="preserve"
   inkscape:version="1.3 (0e150ed6c4, 2023-07-21)"
   sodipodi:docname="Stars2.svg"
   xmlns:inkscape="http://www.inkscape.org/namespaces/inkscape"
   xmlns:sodipodi="http://sodipodi.sourceforge.net/DTD/sodipodi-0.dtd"
   xmlns="http://www.w3.org/2000/svg"
   xmlns:svg="http://www.w3.org/2000/svg"><sodipodi:namedview
     id="namedview1"
     pagecolor="#ffffff"
     bordercolor="#000000"
     borderopacity="0.25"
     inkscape:showpageshadow="2"
     inkscape:pageopacity="0.0"
     inkscape:pagecheckerboard="0"
     inkscape:deskcolor="#d1d1d1"
     inkscape:document-units="px"
     showgrid="true"
     inkscape:zoom="1.4142136"
     inkscape:cx="230.51681"
     inkscape:cy="211.07138"
     inkscape:window-width="1920"
     inkscape:window-height="1017"
     inkscape:window-x="1042"
     inkscape:window-y="276"
     inkscape:window-maximized="1"
     inkscape:current-layer="svg1"><inkscape:grid
       id="grid2"
       units="px"
       originx="0"
       originy="0"
       spacingx="0.26458332"
       spacingy="0.26458334"
       empcolor="#0099e5"
       empopacity="0.30196078"
       color="#0099e5"
       opacity="0.14901961"
       empspacing="5"
       dotted="false"
       gridanglex="30"
       gridanglez="30"
       visible="true" /></sodipodi:namedview><defs
     id="defs1"><inkscape:path-effect
       effect="fillet_chamfer"
       id="path-effect8"
       is_visible="true"
       lpeversion="1"
       nodesatellites_param="F,0,0,1,0,0,0,1 @ F,0,0,1,0,0,0,1 @ F,0,0,1,0,0,0,1 @ F,0,0,1,0,0,0,1 | F,0,0,1,0,0,0,1 @ F,0,0,1,0,0,0,1 @ F,0,0,1,0,0,0,1 @ F,0,0,1,0,0,0,1 | F,0,0,1,0,0,0,1 @ F,0,0,1,0,0,0,1 @ F,0,0,1,0,0,0,1 @ F,0,0,1,0,0,0,1 | F,0,0,1,0,0,0,1 @ F,0,0,1,0,0,0,1 @ F,0,0,1,0,0,0,1 @ F,0,0,1,0,0,0,1 | F,0,0,1,0,0,0,1 @ F,0,0,1,0,0,0,1 @ F,0,0,1,0,0,0,1 @ F,0,0,1,0,0,0,1"
       radius="0"
       unit="px"
       method="auto"
       mode="F"
       chamfer_steps="1"
       flexible="false"
       use_knot_distance="true"
       apply_no_radius="true"
       apply_with_radius="true"
       only_selected="false"
       hide_knots="false" /></defs><g
     id="g1"
     transform="scale(3.9999883)"><path
       id="rect1"
       style="fill:#c9779a;stroke-width:0.0684947"
       d="M 16.933333,-1.1281945e-8 C 13.572975,13.958097 9.3479466,15.649455 2.518709,16.743164 11.916446,18.238812 14.053114,26.119072 16.933333,33.866666 19.813553,26.119072 21.950218,18.238812 31.347957,16.743164 24.518717,15.649455 20.293696,13.958097 16.933333,-1.1281945e-8 Z m 0,7.717358311281945 c 1.82887,7.5966607 4.128203,8.5173737 7.845,9.1126217 -5.114697,0.814002 -6.277447,5.102719 -7.845,9.319329 C 15.36578,21.932699 14.20303,17.643982 9.0883334,16.82998 12.80513,16.234732 15.104466,15.314019 16.933333,7.7173583 Z" /><path
       id="path1"
       style="fill:#c9779a;stroke-width:0.85836"
       d="M 28.655615,0 C 28.023119,0.0529858 28.02029,3.659477 24.94318,4.9247639 24.215352,5.2240432 23.445181,5.589245 23.444563,5.6869913 c 0,0.0012 0.0013,0.00284 0.0016,0.00413 0.0185,0.1027945 0.777852,0.4623555 1.497066,0.7580932 2.881719,1.1849432 2.976666,5.7716135 3.712435,5.8332355 0.735737,-0.0615 0.830688,-4.6482815 3.712434,-5.8332355 0.719215,-0.2957377 1.478566,-0.6552987 1.497067,-0.7580932 2.22e-4,-0.00123 0.0016,-0.00297 0.0016,-0.00413 -7e-6,-0.00116 -0.0012,-0.0029 -0.0016,-0.00413 C 33.846588,5.5800603 33.086746,5.2205015 32.367533,4.9247639 29.290459,3.6594925 29.288074,0.05297018 28.655615,0 Z m 0,2.71663 c 0.352664,0.029537 0.354346,2.0410693 2.070158,2.7466023 0.401041,0.1649066 0.824283,0.365401 0.834574,0.4227132 2.02e-4,6.9e-4 0.001,0.00142 0.001,0.00207 0,6.6e-4 -9.1e-4,0.00138 -0.001,0.00207 -0.01032,0.057319 -0.433533,0.2578068 -0.834574,0.4227132 C 29.118879,6.973542 29.065869,9.5315421 28.655615,9.5658301 28.245341,9.5314691 28.192335,6.973536 26.585457,6.3127987 26.184416,6.1478923 25.761242,5.9474045 25.750882,5.8900855 c -2.02e-4,-7.1e-4 -0.001,-0.0014 -0.001,-0.00207 C 25.750195,5.833508 26.17961,5.6301138 26.585457,5.4632323 28.301285,4.7576948 28.302928,2.746176 28.655615,2.71663 Z" /><path
       id="path2"
       style="fill:#c9779a;stroke-width:0.85836"
       d="M 5.211372,1.897e-4 C 4.578876,0.0531755 4.576047,3.6596667 1.498937,4.9249536 0.771109,5.2242329 9.38e-4,5.5894347 3.2e-4,5.687181 c 0,0.0012 0.001251,0.00284 0.001551,0.00413 0.0185,0.1027945 0.777852,0.4623555 1.497066,0.7580932 C 4.380656,7.6343474 4.475603,12.221018 5.211372,12.28264 5.947109,12.22114 6.04206,7.6343582 8.923806,6.4494042 9.643021,6.1536665 10.402372,5.7941055 10.420873,5.691311 c 2.22e-4,-0.00123 0.0015,-0.00297 0.0015,-0.00413 -7e-6,-0.00116 -0.0013,-0.0029 -0.0015,-0.00413 C 10.402345,5.58025 9.642503,5.2206912 8.92329,4.9249536 5.846216,3.6596822 5.843831,0.05315988 5.211372,1.897e-4 Z m 0,2.71663 c 0.352664,0.029537 0.354346,2.0410693 2.070158,2.7466023 0.401041,0.1649066 0.824283,0.365401 0.834574,0.4227132 2.02e-4,6.9e-4 0.00103,0.00142 0.00103,0.00207 0,6.6e-4 -9.1e-4,0.00138 -0.00103,0.00207 C 8.105786,5.9475885 7.682571,6.1480761 7.28153,6.3129825 5.674636,6.9737258 5.621626,9.5317259 5.211372,9.5660139 4.801098,9.531653 4.748092,6.9737198 3.141214,6.3129825 2.740173,6.1480761 2.316999,5.9475883 2.306639,5.8902693 c -2.02e-4,-7.1e-4 -0.00103,-0.0014 -0.00103,-0.00207 C 2.305952,5.8336977 2.735367,5.6303035 3.141214,5.463422 4.857042,4.7578845 4.858685,2.7463657 5.211372,2.7168197 Z" /><path
       id="path3"
       style="fill:#c9779a;stroke-width:0.85836"
       d="m 28.655565,21.584246 c -0.632496,0.05299 -0.635325,3.659477 -3.712435,4.924764 -0.727828,0.29928 -1.497999,0.664481 -1.498617,0.762228 0,0.0012 0.0013,0.0028 0.0016,0.0041 0.0185,0.102794 0.777852,0.462355 1.497066,0.758093 2.881719,1.184943 2.976666,5.771613 3.712435,5.833235 0.735737,-0.0615 0.830688,-4.648281 3.712434,-5.833235 0.719215,-0.295738 1.478566,-0.655299 1.497067,-0.758093 2.22e-4,-0.0012 0.0016,-0.003 0.0016,-0.0041 -6e-6,-0.0012 -0.0012,-0.0029 -0.0016,-0.0041 -0.01853,-0.102796 -0.77837,-0.462355 -1.497583,-0.758093 -3.077074,-1.265271 -3.079459,-4.871793 -3.711918,-4.924764 z m 0,2.71663 c 0.352664,0.02954 0.354346,2.04107 2.070158,2.746603 0.401041,0.164906 0.824283,0.365401 0.834574,0.422713 2.02e-4,6.9e-4 0.001,0.0014 0.001,0.0021 0,6.6e-4 -9.1e-4,0.0014 -0.001,0.0021 -0.01032,0.05732 -0.433533,0.257807 -0.834574,0.422713 -1.606894,0.660743 -1.659904,3.218744 -2.070158,3.253032 -0.410274,-0.03436 -0.46328,-2.592295 -2.070158,-3.253032 -0.401041,-0.164906 -0.824215,-0.365394 -0.834575,-0.422713 -2.02e-4,-7.1e-4 -10e-4,-0.0014 -10e-4,-0.0021 3.46e-4,-0.0545 0.429761,-0.257899 0.835608,-0.42478 1.715828,-0.705538 1.717471,-2.717057 2.070158,-2.746603 z" /><path
       id="path4"
       style="fill:#c9779a;stroke-width:0.85836"
       d="M 5.211052,21.584246 C 4.578556,21.637232 4.575727,25.243723 1.498617,26.50901 0.770789,26.808289 6.18e-4,27.173491 0,27.271237 c 0,0.0012 0.001251,0.0028 0.001551,0.0041 0.0185,0.102795 0.777852,0.462356 1.497066,0.758094 2.881719,1.184943 2.976666,5.771613 3.712435,5.833235 0.735737,-0.0615 0.830688,-4.648281 3.712434,-5.833235 0.719215,-0.295738 1.478566,-0.655299 1.497067,-0.758094 2.22e-4,-0.0012 0.0015,-0.003 0.0015,-0.0041 -7e-6,-0.0012 -0.0013,-0.0029 -0.0015,-0.0041 C 10.402025,27.164306 9.642183,26.804748 8.92297,26.50901 5.845896,25.243739 5.843511,21.637216 5.211052,21.584246 Z m 0,2.71663 c 0.352664,0.02954 0.354346,2.041069 2.070158,2.746602 0.401041,0.164907 0.824283,0.365401 0.834574,0.422714 2.02e-4,6.9e-4 0.00103,0.0014 0.00103,0.0021 0,6.6e-4 -9.1e-4,0.0014 -0.00103,0.0021 -0.010318,0.05731 -0.433533,0.2578 -0.834574,0.422707 C 5.674316,28.557782 5.621306,31.115782 5.211052,31.15007 4.800778,31.115709 4.747772,28.557776 3.140894,27.897039 2.739853,27.732132 2.316679,27.531645 2.306319,27.474326 c -2.02e-4,-7.1e-4 -0.00103,-0.0014 -0.00103,-0.0021 3.43e-4,-0.0545 0.429758,-0.257896 0.835605,-0.424778 1.715828,-0.705537 1.717471,-2.717056 2.070158,-2.746602 z" /></g></svg>
