<?xml version="1.0" encoding="UTF-8" standalone="no"?>
<svg
   version="1.1"
   id="svg1"
   sodipodi:docname="KWD_AIAF_SPEL_Blood_DamageBlood.svg"
   width="512"
   height="512"
   inkscape:version="1.3 (0e150ed6c4, 2023-07-21)"
   xmlns:inkscape="http://www.inkscape.org/namespaces/inkscape"
   xmlns:sodipodi="http://sodipodi.sourceforge.net/DTD/sodipodi-0.dtd"
   xmlns="http://www.w3.org/2000/svg"
   xmlns:svg="http://www.w3.org/2000/svg">
  <sodipodi:namedview
     id="namedview1"
     pagecolor="#ffffff"
     bordercolor="#000000"
     borderopacity="0.25"
     inkscape:showpageshadow="2"
     inkscape:pageopacity="0.0"
     inkscape:pagecheckerboard="0"
     inkscape:deskcolor="#d1d1d1"
     showgrid="false"
     inkscape:zoom="1"
     inkscape:cx="166"
     inkscape:cy="243.49999"
     inkscape:window-width="1920"
     inkscape:window-height="1017"
     inkscape:window-x="1042"
     inkscape:window-y="276"
     inkscape:window-maximized="1"
     inkscape:current-layer="g1">
    <inkscape:grid
       id="grid1"
       units="px"
       originx="0"
       originy="0"
       spacingx="1"
       spacingy="1"
       empcolor="#0099e5"
       empopacity="0.30196078"
       color="#0099e5"
       opacity="0.14901961"
       empspacing="5"
       dotted="false"
       gridanglex="30"
       gridanglez="30"
       visible="false" />
  </sodipodi:namedview>
  <defs
     id="defs1">
    <rect
       x="-20"
       y="20"
       width="188.88463"
       height="124.24978"
       id="rect5" />
    <rect
       x="-60"
       y="-40"
       width="180"
       height="200"
       id="rect4" />
  </defs>
  <g
     transform="matrix(4.643513,0,0,4.643513,-640.21277,-869.5379)"
     id="g1">
    <path
       id="path2"
       style="fill:#931826;stroke-width:0.21581"
       d="m 193.01035,187.26533 c -0.74208,-0.52828 -23.46348,30.6238 -30.99956,44.77265 -5.24012,8.843 -9.00408,18.18336 -9.27732,28.41612 0,23.12064 18.09536,37.06588 40.33588,37.06588 22.24049,0 40.20353,-13.94524 40.20353,-37.06588 -0.2736,-10.23492 -4.03172,-19.727 -9.27356,-28.57172 -7.52428,-14.12477 -30.24493,-45.14665 -30.98897,-44.61705 z m -4.26016,28.11896 c -15.49364,14.75917 -22.28856,34.80293 -25.89724,57.18977 -12.56536,-16.13208 12.91344,-60.35749 25.89724,-57.18977 z"
       sodipodi:nodetypes="cccscccccc" />
  </g>
</svg>
