<?xml version="1.0" encoding="UTF-8" standalone="no"?>
<!-- Created with Inkscape (http://www.inkscape.org/) -->

<svg
   width="512"
   height="512"
   viewBox="0 0 135.46666 135.46667"
   version="1.1"
   id="svg1"
   inkscape:version="1.3 (0e150ed6c4, 2023-07-21)"
   sodipodi:docname="KWD_AIAF_SPEL_Arcane_DamageArcane.svg"
   xmlns:inkscape="http://www.inkscape.org/namespaces/inkscape"
   xmlns:sodipodi="http://sodipodi.sourceforge.net/DTD/sodipodi-0.dtd"
   xmlns="http://www.w3.org/2000/svg"
   xmlns:svg="http://www.w3.org/2000/svg">
  <sodipodi:namedview
     id="namedview1"
     pagecolor="#ffffff"
     bordercolor="#000000"
     borderopacity="0.25"
     inkscape:showpageshadow="2"
     inkscape:pageopacity="0.0"
     inkscape:pagecheckerboard="0"
     inkscape:deskcolor="#d1d1d1"
     inkscape:document-units="px"
     inkscape:zoom="1"
     inkscape:cx="205"
     inkscape:cy="244.5"
     inkscape:window-width="1920"
     inkscape:window-height="1017"
     inkscape:window-x="1042"
     inkscape:window-y="276"
     inkscape:window-maximized="1"
     inkscape:current-layer="svg1"
     showgrid="false">
    <inkscape:grid
       id="grid3"
       units="px"
       originx="0"
       originy="0"
       spacingx="0.26458332"
       spacingy="0.26458334"
       empcolor="#0099e5"
       empopacity="0.30196078"
       color="#0099e5"
       opacity="0.14901961"
       empspacing="5"
       dotted="false"
       gridanglex="30"
       gridanglez="30"
       visible="false" />
  </sodipodi:namedview>
  <defs
     id="defs1" />
  <path
     id="path1"
     style="fill:#6bc1c6;stroke-width:0.333758"
     d="M 64.917608,0.02222086 C 44.534266,0.91106874 26.125099,10.863694 14.181525,26.391754 H 35.800946 C 44.916316,16.509485 54.767367,7.5046849 64.917608,0.02222086 Z m 9.491958,0.26458421 C 64.763687,7.70635 52.997278,16.60494 43.82942,26.391754 h 58.18165 C 101.71143,19.933964 99.456866,12.443034 96.979834,7.666223 89.466906,3.7349363 83.251062,1.153788 74.409566,0.28680507 Z M 103.06321,9.9110542 c 3.17444,4.8459088 5.53296,10.4186088 7.14997,16.4806998 h 11.20968 C 116.37498,19.83537 110.14368,14.247699 103.06321,9.9110542 Z M 10.512487,31.683438 C 6.7346973,37.704993 3.8484236,44.389331 2.0892017,51.589262 1.8639153,52.471561 1.6471115,53.355708 1.4587473,54.251643 1.3525289,54.757068 1.2718807,55.27167 1.1776268,55.781268 0.93283157,57.11428 0.72809764,58.454344 0.56370879,59.79964 -0.41884575,65.215698 0.05025339,70.687319 0.70840325,76.100505 8.4512916,60.957864 18.958705,45.620367 31.065303,31.683438 Z m 28.453134,0 C 23.659783,48.863333 11.154419,64.103786 1.7973807,82.460209 12.209358,121.54131 47.593992,136.65314 74.037493,135.24747 83.937892,123.28726 91.3828,109.12744 94.48489,96.58511 89.715735,67.682402 64.656495,45.180242 44.430938,31.683438 Z m 13.719104,0 c 23.585847,10.181397 42.997857,29.32483 43.976784,59.643059 7.807661,-19.861015 10.302551,-38.414095 5.767111,-59.643059 z m 58.737685,0 c 6.71537,35.313861 -7.44093,84.494212 -31.85552,103.716992 29.8525,-4.63358 52.06156,-29.61815 55.38077,-60.492621 0.20096,-1.753526 0.32364,-3.528252 0.38032,-5.320621 0.0553,-0.639414 0.10144,-1.279576 0.13849,-1.920302 1.8e-4,-13.225431 -3.80422,-25.555734 -10.35806,-35.983448 z M 49.588263,59.007954 C 66.815926,59.007706 80.782058,73.148747 80.782322,90.592691 80.782058,108.03663 66.815926,122.17768 49.588263,122.17743 32.360602,122.17768 18.394466,108.03663 18.394201,90.592691 18.394466,73.148747 32.360602,59.007706 49.588263,59.007954 Z m 0,3.74552 C 34.403864,62.753642 22.094389,75.21767 22.094246,90.592691 22.094389,105.96771 34.403864,118.43174 49.588263,118.43191 64.772655,118.43174 77.082134,105.96771 77.082278,90.592691 77.082134,75.21767 64.772655,62.753642 49.588263,62.753474 Z m 0.15296,9.601511 c 10.554538,8.16e-4 19.110253,8.664815 19.110005,19.351853 2.52e-4,10.687022 -8.555463,19.351032 -19.110005,19.351852 -10.555321,3.4e-4 -19.112322,-8.66401 -19.112071,-19.351852 -2.48e-4,-10.687854 8.556754,-19.352189 19.112071,-19.351853 z m -0.339001,5.915938 c -7.531444,9.8e-4 -13.63642,6.397453 -13.63642,14.287546 2e-6,7.890081 6.104976,14.286561 13.63642,14.287541 7.532252,2.2e-4 13.638484,-6.39661 13.638488,-14.287541 0,-7.890941 -6.106236,-14.287766 -13.638488,-14.287546 z"
     sodipodi:nodetypes="ccccccccccccccccccccccccccccccccccccccccccccccccccccccscsc" />
</svg>
