<?xml version="1.0" encoding="UTF-8" standalone="no"?>
<!-- Created with Inkscape (http://www.inkscape.org/) -->

<svg
   width="512"
   height="512"
   viewBox="0 0 135.46666 135.46667"
   version="1.1"
   id="svg1"
   inkscape:version="1.3 (0e150ed6c4, 2023-07-21)"
   sodipodi:docname="HealingStar.svg"
   xml:space="preserve"
   xmlns:inkscape="http://www.inkscape.org/namespaces/inkscape"
   xmlns:sodipodi="http://sodipodi.sourceforge.net/DTD/sodipodi-0.dtd"
   xmlns="http://www.w3.org/2000/svg"
   xmlns:svg="http://www.w3.org/2000/svg"><sodipodi:namedview
     id="namedview1"
     pagecolor="#ffffff"
     bordercolor="#000000"
     borderopacity="0.25"
     inkscape:showpageshadow="2"
     inkscape:pageopacity="0.0"
     inkscape:pagecheckerboard="0"
     inkscape:deskcolor="#d1d1d1"
     inkscape:document-units="px"
     inkscape:zoom="0.50383783"
     inkscape:cx="287.79102"
     inkscape:cy="475.35137"
     inkscape:window-width="1920"
     inkscape:window-height="1017"
     inkscape:window-x="1042"
     inkscape:window-y="276"
     inkscape:window-maximized="1"
     inkscape:current-layer="layer1"
     showgrid="true"><inkscape:grid
       id="grid20"
       units="px"
       originx="0"
       originy="0"
       spacingx="0.26458332"
       spacingy="0.26458334"
       empcolor="#0099e5"
       empopacity="0.30196078"
       color="#0099e5"
       opacity="0.14901961"
       empspacing="5"
       dotted="false"
       gridanglex="30"
       gridanglez="30"
       visible="true" /></sodipodi:namedview><defs
     id="defs1" /><g
     inkscape:label="Layer 1"
     inkscape:groupmode="layer"
     id="layer1"><path
       id="path20"
       style="display:inline;fill:#c9779a;stroke-width:0.814512"
       d="M 67.733332,120.13293 A 52.12896,52.128961 0 0 0 119.8623,68.003969 52.12896,52.128961 0 0 0 67.733332,15.875004 52.12896,52.128961 0 0 0 15.604367,68.003969 52.12896,52.128961 0 0 0 67.733332,120.13293 Z m 0.47248,-6.92179 C 57.858271,113.3294 47.115513,109.3294 37.621728,99.56802 35.353842,97.23622 33.35336,94.569456 31.691042,91.55968 28.859087,86.432191 26.858421,79.682515 27.400518,77.084544 c 0.306898,-1.470793 1.090733,-2.180132 1.858112,-2.15242 0.711509,0.0256 1.410234,0.6845 1.699028,1.955152 C 37.412081,105.28735 71.429428,113.067 92.657175,92.5126 113.21158,71.28486 105.43033,37.267509 77.03026,30.813084 c -1.270655,-0.288786 -1.929604,-0.985933 -1.955156,-1.697439 -0.0276,-0.767374 0.681632,-1.551217 2.152417,-1.858111 2.597983,-0.542104 9.347654,1.458567 14.475147,4.290521 3.009776,1.662319 5.678128,3.662801 8.009924,5.930689 31.887148,31.013012 2.295188,75.346156 -31.50678,75.732396 z m 7.0061,-18.329765 H 60.254752 V 75.482547 H 40.855928 V 60.525383 h 19.398824 v -19.39882 h 14.95716 v 19.39882 H 94.610736 V 75.482547 H 75.211912 Z" /><path
       id="path2"
       style="fill:#c9779a;stroke-width:0.925968"
       d="M 67.732612,0 C 30.324547,6.7819186e-4 -2.5094e-4,30.325801 0,67.733335 -2.4964e-4,105.14087 30.324548,135.46599 67.732612,135.46666 105.14123,135.46678 135.46691,105.14143 135.46666,67.733335 135.46691,30.325239 105.14123,-1.1707801e-4 67.732612,0 Z m 0,7.2715137 C 103.44528,7.2712974 128.16291,31.988349 128.16288,67.700512 128.1629,103.41267 103.44528,128.12973 67.732612,128.12951 32.020504,128.12893 7.3037704,103.41211 7.3038012,67.700512 7.3037692,31.988912 32.020503,7.2720949 67.732612,7.2715137 Z"
       sodipodi:nodetypes="cccccccccc" /></g></svg>
