<?xml version="1.0" encoding="UTF-8" standalone="no"?>
<!-- Created with Inkscape (http://www.inkscape.org/) -->

<svg
   width="512"
   height="512"
   viewBox="0 0 135.46666 135.46667"
   version="1.1"
   id="svg1"
   xml:space="preserve"
   inkscape:version="1.3 (0e150ed6c4, 2023-07-21)"
   sodipodi:docname="KWD_AIAF_SPEL_Water_DamageWater.svg"
   xmlns:inkscape="http://www.inkscape.org/namespaces/inkscape"
   xmlns:sodipodi="http://sodipodi.sourceforge.net/DTD/sodipodi-0.dtd"
   xmlns="http://www.w3.org/2000/svg"
   xmlns:svg="http://www.w3.org/2000/svg"><sodipodi:namedview
     id="namedview1"
     pagecolor="#ffffff"
     bordercolor="#000000"
     borderopacity="0.25"
     inkscape:showpageshadow="2"
     inkscape:pageopacity="0.0"
     inkscape:pagecheckerboard="0"
     inkscape:deskcolor="#d1d1d1"
     inkscape:document-units="px"
     inkscape:zoom="1.0822166"
     inkscape:cx="180.18574"
     inkscape:cy="336.80873"
     inkscape:window-width="1920"
     inkscape:window-height="1017"
     inkscape:window-x="1042"
     inkscape:window-y="276"
     inkscape:window-maximized="1"
     inkscape:current-layer="layer1" /><defs
     id="defs1" /><g
     inkscape:label="Layer 1"
     inkscape:groupmode="layer"
     id="layer1"
     transform="scale(4)"><path
       id="path1"
       style="fill:#74abd1;fill-opacity:1;stroke-width:0.425672"
       d="M 17.197717,8.9167242e-4 C 16.829109,0.02878948 16.295406,0.72055167 15.435431,2.0511009 14.333202,3.7564649 13.95522,4.3278641 12.222156,7.2497802 9.0712537,12.562149 7.303669,16.261073 6.6194533,19.036573 1.093295,41.453258 37.471563,37.280874 25.323726,14.422647 22.074054,8.3078371 20.120407,5.9192039 18.424063,1.863399 17.895602,0.59989524 17.566324,-0.02700607 17.197717,8.9167242e-4 Z M 17.347517,2.9092803 c 0.675829,-0.011186 0.8556,1.9229834 -0.56567,4.2966904 -4.428633,7.3963983 -4.569925,7.8281753 -5.884146,8.0162773 -1.0812956,0.154764 -0.9751407,-0.838201 1.146716,-4.671558 1.848387,-3.3393062 3.805581,-6.7985787 4.8262,-7.4555326 0.192567,-0.1239518 0.351748,-0.1838146 0.4769,-0.1858771 z m 0.06204,8.8461457 c 0.07731,0 0.05108,0.201396 0.02375,0.390232 -1.982796,6.194376 -7.4420394,18.969074 3.660774,16.528576 2.351599,-0.771447 2.167298,1.728847 0,2.952034 C 7.5923765,35.708344 8.5116196,22.903683 15.163633,14.268833 l 1.845351,-2.180147 c 0.22361,-0.261222 0.340443,-0.33326 0.400571,-0.33326 z"
       sodipodi:nodetypes="sssssssssssssscccccss" /><path
       d="M 30.831443,0.02233923 C 30.60981,0.04565519 30.425668,0.62636421 30.187004,1.6960559 28.038945,11.323774 25.90178,13.20612 29.344076,16.847951 c 0.575869,0.60925 1.932229,0.199681 2.476777,-0.437714 2.93803,-3.438972 2.431999,-6.4784455 0.246594,-13.5670158 -0.604063,-1.95934281 -0.951048,-2.85083878 -1.236004,-2.82088197 z"
       style="fill:#74abd1;fill-opacity:1;stroke-width:0.838645"
       id="path1-3" /><path
       d="M 5.6086186,9.1090008e-4 C 5.4095925,-0.02190301 4.9058962,0.38196155 3.63448,1.4254787 -0.02274461,4.4271327 -1.0492626,8.080933 1.1474784,10.277667 4.7873732,13.917572 8.4397042,9.6488478 6.5998582,3.905245 6.1256795,2.4249714 5.7376684,0.87304268 5.7376684,0.45648084 c 0,-0.27468985 -0.00965,-0.44191141 -0.1290469,-0.45556993992 z"
       style="fill:#74abd1;fill-opacity:1;stroke-width:1.07641"
       id="path1-6" /><path
       d="m 2.5371945,12.537692 c 0.439783,0.07658 0.9272318,0.841107 1.741602,2.342159 1.747051,3.220126 1.6413816,5.518051 -0.2848779,6.206468 -3.50497853,1.252654 -5.081471,-2.40864 -2.9119116,-6.762373 0.6233481,-1.250895 1.0154026,-1.862777 1.4551875,-1.786254 z"
       style="fill:#74abd1;fill-opacity:1;stroke-width:1.48992"
       id="path1-35"
       sodipodi:nodetypes="cccsc" /></g></svg>
