<?xml version="1.0" encoding="UTF-8" standalone="no"?>
<!-- Created with Inkscape (http://www.inkscape.org/) -->

<svg
   width="512"
   height="512"
   viewBox="0 0 135.46666 135.46667"
   version="1.1"
   id="svg1"
   xml:space="preserve"
   inkscape:version="1.3 (0e150ed6c4, 2023-07-21)"
   sodipodi:docname="KWD_AIAF_SPEL_Arcane_Pull.svg"
   xmlns:inkscape="http://www.inkscape.org/namespaces/inkscape"
   xmlns:sodipodi="http://sodipodi.sourceforge.net/DTD/sodipodi-0.dtd"
   xmlns="http://www.w3.org/2000/svg"
   xmlns:svg="http://www.w3.org/2000/svg"><sodipodi:namedview
     id="namedview1"
     pagecolor="#ffffff"
     bordercolor="#000000"
     borderopacity="0.25"
     inkscape:showpageshadow="2"
     inkscape:pageopacity="0.0"
     inkscape:pagecheckerboard="0"
     inkscape:deskcolor="#d1d1d1"
     inkscape:document-units="px"
     inkscape:zoom="0.99999999"
     inkscape:cx="163"
     inkscape:cy="262.5"
     inkscape:window-width="1920"
     inkscape:window-height="1017"
     inkscape:window-x="1042"
     inkscape:window-y="276"
     inkscape:window-maximized="1"
     inkscape:current-layer="svg1" /><defs
     id="defs1" /><path
     id="path1-2"
     style="display:inline;fill:#6bc1c6;stroke-width:3.15306"
     inkscape:label="path1"
     d="M 66.807283,0.00948613 C 64.854585,0.06033573 62.441915,0.33607977 57.943692,0.75671949 33.693767,2.769253 18.081002,15.048644 9.2496745,30.243538 8.0721643,32.269524 7.0136651,34.348663 6.072901,36.460851 c -7.05573125,15.841404 -7.5758299,33.616727 -3.416219,45.97343 4.4139525,13.112259 7.798567,17.726469 15.107737,26.954069 2.384128,2.57853 4.055328,1.72342 6.498041,-0.65434 1.937038,-1.88554 2.333848,-3.11151 0.423157,-5.66205 C -22.596394,39.394521 70.840578,-32.579699 115.24741,50.008068 138.8964,101.12491 88.018479,124.33336 65.742168,120.68974 c -3.771444,-0.18882 -4.974268,3.61201 -5.073757,6.28543 -0.13681,3.67611 -0.06441,6.17148 3.83112,7.6932 10.852112,3.96435 84.458379,-10.11145 68.749599,-75.390069 C 126.92351,32.991767 106.52235,8.5099189 80.253356,1.9952278 72.037586,0.46421594 70.0618,-0.07526327 66.807283,0.00948613 Z M 60.934691,20.316894 c -4.208422,-0.02216 -8.296313,0.600847 -12.087841,1.963036 -9.740606,2.717261 -8.146259,9.58738 0.346784,6.415473 19.05413,-5.736183 54.594586,13.900003 55.534716,34.030081 0.5448,11.960476 7.29089,11.171963 6.56822,-0.344719 C 109.85293,39.3745 83.660168,20.436573 60.934691,20.316894 Z M 56.93018,33.91778 c -14.879914,-0.355115 -29.192012,7.132771 -34.347963,23.275698 -7.864968,24.624554 5.1525,43.220722 36.306873,51.860472 16.11201,4.46821 35.136553,-0.30956 46.65048,-11.716286 5.66559,-5.612842 5.6922,-5.537639 -4.97055,-0.891726 C 63.925831,112.41191 27.61799,98.018571 27.183275,68.701288 26.952038,53.108323 39.436264,44.260722 50.739704,41.602726 c 11.53335,-2.712062 13.85964,2.925147 5.711588,5.046918 -21.512413,5.601761 -25.86885,33.500009 -6.49804,44.406717 62.006268,31.209709 69.614218,-55.32751 6.976928,-57.138581 z m 10.754381,18.730373 c 15.442462,0.319954 27.82479,15.166519 20.81726,28.27102 -1.17797,2.20283 -3.70961,4.489355 -5.315265,5.583606 -2.309589,1.573943 -2.363234,1.55048 -1.403639,-0.23325 C 86.20751,76.92041 80.38985,66.6981 71.216375,64.027981 c -7.714889,-3.976254 -12.437691,0.16529 -7.872785,6.90262 3.604809,5.320286 1.238638,10.471735 -4.318266,9.40028 C 42.373611,77.120235 43.732417,57.924855 60.9285,53.446991 63.21191,52.85242 65.478487,52.60244 67.684561,52.648153 Z" /></svg>
