<?xml version="1.0" encoding="UTF-8" standalone="no"?>
<!-- Created with Inkscape (http://www.inkscape.org/) -->

<svg
   width="512"
   height="512"
   viewBox="0 0 135.46666 135.46667"
   version="1.1"
   id="svg1"
   xml:space="preserve"
   inkscape:version="1.3 (0e150ed6c4, 2023-07-21)"
   sodipodi:docname="KWD_AIAF_SPEL_Poison_DamagePoison.svg"
   xmlns:inkscape="http://www.inkscape.org/namespaces/inkscape"
   xmlns:sodipodi="http://sodipodi.sourceforge.net/DTD/sodipodi-0.dtd"
   xmlns="http://www.w3.org/2000/svg"
   xmlns:svg="http://www.w3.org/2000/svg"><sodipodi:namedview
     id="namedview1"
     pagecolor="#ffffff"
     bordercolor="#000000"
     borderopacity="0.25"
     inkscape:showpageshadow="2"
     inkscape:pageopacity="0.0"
     inkscape:pagecheckerboard="0"
     inkscape:deskcolor="#d1d1d1"
     inkscape:document-units="px"
     inkscape:zoom="1.3195079"
     inkscape:cx="204.62174"
     inkscape:cy="292.91223"
     inkscape:window-width="1920"
     inkscape:window-height="1017"
     inkscape:window-x="1042"
     inkscape:window-y="276"
     inkscape:window-maximized="1"
     inkscape:current-layer="svg1" /><defs
     id="defs1" /><path
     id="path4"
     style="fill:#9eda74;stroke-width:2.37565"
     d="M 70.059143,0.00613497 C 69.903559,-0.00759896 69.745515,-0.00680093 69.58382,0.01026824 68.807683,0.09220016 67.956269,0.54590149 66.975726,1.5354445 62.400254,5.9022039 57.737728,10.938877 53.83813,15.890287 36.820097,39.645412 5.6922518,90.442197 42.285646,110.52354 c 16.313778,8.95251 35.500948,9.96217 53.813093,-0.86385 C 114.41088,98.833693 116.07642,64.641704 94.114769,29.362677 87.282899,19.800976 80.304935,10.852083 73.074362,1.9446381 72.098918,0.91723627 71.148224,0.10227249 70.059143,0.00613497 Z m 33.944467,0.00413327 c -1.91966,0.08591434 -3.78854,0.86946331 -5.393912,2.72589076 0.348728,1.7077037 5.324862,1.030824 8.115672,4.133269 9.55588,9.407396 31.19865,47.193893 15.85109,70.515633 -2.56732,2.943226 -4.7638,6.459546 -6.5533,9.952912 -7.3236,23.806757 7.72134,19.693697 7.24355,18.029317 -8.60576,-4.20309 2.79971,-14.537124 5.86098,-20.015355 12.75213,-17.937934 5.0187,-58.172027 -12.11255,-77.3954574 -1.02479,-2.1808182 -7.25253,-8.20395517 -13.01153,-7.94620936 z M 26.240295,0.01646814 C 21.437323,-0.19849066 16.243074,4.8253722 15.388397,6.6441649 1.1010191,22.676415 -5.3485244,56.231197 5.2866884,71.191356 7.8397772,75.760173 14.683599,81.640338 10.174279,87.883565 8.5987511,91.852529 19.496898,94.624354 16.215051,72.848797 9.3043359,44.427472 8.5454348,26.166431 30.739358,2.289766 29.400487,0.74151419 27.841283,0.08812029 26.240295,0.01646814 Z M 68.492636,17.485729 C 71.844066,32.995529 41.392385,100.57917 40.041281,68.624597 42.921984,47.930931 56.608047,24.387039 68.492636,17.485729 Z M 89.347045,44.03578 C 103.22098,61.502515 105.17744,95.648836 78.978738,102.29834 87.646873,86.24426 89.096244,49.342935 89.347045,44.03578 Z m -76.308411,59.6162 c -4.1572535,-0.19427 -8.0164231,2.12418 -9.7937804,6.25364 -4.9675129,18.4423 91.2455784,44.54763 127.5216764,4.40607 3.36302,-4.03298 -0.98559,-0.83909 -7.78915,1.5851 -27.845791,6.77422 -74.514738,16.2175 -98.359393,-3.42441 -2.966194,-5.92002 -7.422099,-8.62612 -11.579353,-8.8204 z" /></svg>
