<?xml version="1.0" encoding="UTF-8" standalone="no"?>
<!-- Created with Inkscape (http://www.inkscape.org/) -->

<svg
   width="512"
   height="512"
   viewBox="0 0 135.46666 135.46667"
   version="1.1"
   id="svg1"
   xml:space="preserve"
   inkscape:version="1.3 (0e150ed6c4, 2023-07-21)"
   sodipodi:docname="KWD_AIAF_SPEL_ShockArc_DamageShockArc.svg"
   xmlns:inkscape="http://www.inkscape.org/namespaces/inkscape"
   xmlns:sodipodi="http://sodipodi.sourceforge.net/DTD/sodipodi-0.dtd"
   xmlns="http://www.w3.org/2000/svg"
   xmlns:svg="http://www.w3.org/2000/svg"><sodipodi:namedview
     id="namedview1"
     pagecolor="#ffffff"
     bordercolor="#000000"
     borderopacity="0.25"
     inkscape:showpageshadow="2"
     inkscape:pageopacity="0.0"
     inkscape:pagecheckerboard="0"
     inkscape:deskcolor="#d1d1d1"
     inkscape:document-units="px"
     showgrid="false"
     inkscape:zoom="1"
     inkscape:cx="208"
     inkscape:cy="323.5"
     inkscape:window-width="1920"
     inkscape:window-height="1017"
     inkscape:window-x="1042"
     inkscape:window-y="276"
     inkscape:window-maximized="1"
     inkscape:current-layer="svg1"><inkscape:grid
       id="grid1"
       units="px"
       originx="0"
       originy="0"
       spacingx="0.26458332"
       spacingy="0.26458334"
       empcolor="#0099e5"
       empopacity="0.30196078"
       color="#0099e5"
       opacity="0.14901961"
       empspacing="5"
       dotted="false"
       gridanglex="30"
       gridanglez="30"
       visible="false" /></sodipodi:namedview><defs
     id="defs1" /><g
     id="g12"
     transform="matrix(3.9986571,0,0,3.9986571,0.0227399,-3.4278104e-4)"><path
       id="path10"
       style="display:inline;fill:#ff6633;stroke-width:4.72549"
       d="M 16.725076,0.00619837 C 11.42389,0.15234817 6.1919972,2.9275187 3.8684972,7.8935725 c -0.705604,1.564757 -2.736204,-0.07584 -3.34243202,-0.306442 -0.676482,-0.547511 -0.681714,-0.50713 -0.174149,0.349333 0.364474,0.367137 2.19263102,3.9309085 2.19263102,5.2937345 0.838853,4.249221 0.12644,7.460606 4.032829,9.988536 L 5.7169632,21.62555 C 5.5047102,21.201772 4.7247282,19.519006 4.3480542,17.051152 3.7838312,12.046205 5.2324162,6.7307285 8.3038852,4.1759697 9.4206612,3.2470667 13.054636,1.6512014 17.197916,1.6092014 c 4.14328,0.042 7.777255,1.6378653 8.894031,2.5667683 3.071468,2.5547588 3.990888,7.8702353 3.426665,12.8751823 -0.376674,2.467854 -1.057439,4.101011 -1.26969,4.524789 l -0.959632,1.642793 c 3.906388,-2.52793 3.193976,-5.739315 4.032829,-9.988536 0,-1.362826 1.828155,-4.9265975 2.192631,-5.2937345 0.507564,-0.856463 0.502334,-0.896844 -0.17415,-0.349333 -0.606227,0.230601 -2.636828,1.871199 -3.342431,0.306442 C 27.396771,2.3429197 22.026263,-0.13995133 16.725076,0.00619837 Z M 17.2036,3.0256524 C 10.822053,3.0017324 4.4377342,7.0792335 6.1500122,15.261081 c 0.42307,2.022284 0.524121,2.165993 0.591695,0.845943 0.0448,-0.874676 0.421923,-2.187209 0.838708,-2.9161 0.757444,-1.325279 0.757795,-1.324574 0.776697,0.0987 0.031,2.347853 0.284689,4.151253 4.2658888,9.02167 2.090401,2.557334 3.790256,4.357098 3.63337,4.513936 -0.156837,0.156837 -1.064889,0.48608 -2.371431,0.157097 -2.161864,-0.544363 -5.0797018,-3.423025 -5.2312048,-3.028756 -0.162723,0.423466 2.6987068,3.743581 4.7314938,5.936072 2.027409,2.186694 3.760595,4.024103 3.803902,3.975984 4.956035,-5.506705 4.68072,-5.231271 7.158737,-8.25996 0.259206,-0.36576 0.77746,-1.055413 0.637687,-0.964283 -0.514085,0.335181 -5.952422,3.840895 -6.854363,4.02146 -3.140557,0.62873 6.963664,-5.673875 7.520472,-16.424319 l 0.632003,1.089855 c 0.416785,0.728892 0.79391,2.040906 0.838708,2.915584 0.06758,1.320049 0.168628,1.176342 0.591696,-0.845943 C 29.435019,7.1747115 23.585152,3.0495662 17.2036,3.0256524 Z M 17.18913,5.7810397 C 31.200165,5.5534513 20.909723,28.804602 18.163232,18.547185 l -1.048515,-8.266161 c -0.545701,4.17128 -0.551228,4.166091 -0.851111,6.789249 -1.042264,9.11696 -6.210787,1.384411 -6.3753208,-4.021459 C 9.6770482,6.1085135 15.858987,5.8197975 17.18913,5.7810397 Z" /></g></svg>
