<?xml version="1.0" encoding="UTF-8" standalone="no"?>
<!-- Created with Inkscape (http://www.inkscape.org/) -->

<svg
   width="512"
   height="512"
   viewBox="0 0 135.46667 135.46667"
   version="1.1"
   id="svg1"
   xml:space="preserve"
   inkscape:version="1.3 (0e150ed6c4, 2023-07-21)"
   sodipodi:docname="KWD_AIAF_SPEL_Shock_DamageShock.svg"
   xmlns:inkscape="http://www.inkscape.org/namespaces/inkscape"
   xmlns:sodipodi="http://sodipodi.sourceforge.net/DTD/sodipodi-0.dtd"
   xmlns="http://www.w3.org/2000/svg"
   xmlns:svg="http://www.w3.org/2000/svg"><sodipodi:namedview
     id="namedview1"
     pagecolor="#ffffff"
     bordercolor="#000000"
     borderopacity="0.25"
     inkscape:showpageshadow="2"
     inkscape:pageopacity="0.0"
     inkscape:pagecheckerboard="0"
     inkscape:deskcolor="#d1d1d1"
     inkscape:document-units="px"
     inkscape:zoom="0.7071068"
     inkscape:cx="252.43711"
     inkscape:cy="338.70414"
     inkscape:window-width="1920"
     inkscape:window-height="1017"
     inkscape:window-x="1042"
     inkscape:window-y="276"
     inkscape:window-maximized="1"
     inkscape:current-layer="svg1" /><defs
     id="defs1" /><path
     id="path9"
     style="fill:#ffd054;stroke-width:2.75605"
     d="M 125.86221,0.00620116 122.36511,0 16.646442,35.181961 c -3.203704,1.066157 11.634593,3.320984 29.416548,-2.18614 16.841873,-5.215978 26.449321,-8.602389 26.234581,-8.390978 L 16.80927,75.354537 57.206887,76.197725 c 2.762052,0.33808 -39.104798,32.016505 -39.104798,37.438585 -2.80377,7.21799 -5.745214,14.6141 -8.5491048,21.83036 6.5089768,-4.15616 12.7846998,-9.16726 18.9918788,-13.7832 L 89.138599,77.938397 c 10.302144,-6.9003 17.979271,-10.786704 18.962561,-12.479588 l -48.091897,0.123 C 103.80482,22.723618 103.71642,22.666828 125.26069,0.91776945 c 0.4933,-0.71925137 0.77515,-0.92290421 0.60152,-0.91156829 z"
     sodipodi:nodetypes="ccssccccccccccc" /></svg>
