<?xml version="1.0" encoding="UTF-8" standalone="no"?>
<svg
   viewBox="0 0 512 512"
   version="1.1"
   id="svg1"
   sodipodi:docname="KWD_AIAF_SPEL_Shock_Summon.svg"
   inkscape:version="1.3 (0e150ed6c4, 2023-07-21)"
   width="512"
   height="512"
   xmlns:inkscape="http://www.inkscape.org/namespaces/inkscape"
   xmlns:sodipodi="http://sodipodi.sourceforge.net/DTD/sodipodi-0.dtd"
   xmlns="http://www.w3.org/2000/svg"
   xmlns:svg="http://www.w3.org/2000/svg"
   xmlns:bx="https://boxy-svg.com">
  <sodipodi:namedview
     id="namedview1"
     pagecolor="#ffffff"
     bordercolor="#000000"
     borderopacity="0.25"
     inkscape:showpageshadow="2"
     inkscape:pageopacity="0.0"
     inkscape:pagecheckerboard="0"
     inkscape:deskcolor="#d1d1d1"
     inkscape:zoom="1.158716"
     inkscape:cx="158.36495"
     inkscape:cy="222.22874"
     inkscape:window-width="1920"
     inkscape:window-height="1017"
     inkscape:window-x="1042"
     inkscape:window-y="276"
     inkscape:window-maximized="1"
     inkscape:current-layer="svg1" />
  <defs
     id="defs1">
    <bx:grid
       x="0"
       y="0"
       width="512"
       height="512" />
    <bx:grid
       x="0"
       y="0"
       width="512"
       height="512" />
    <bx:grid
       x="0"
       y="0"
       width="100"
       height="100" />
    <bx:grid
       x="0"
       y="0"
       width="512"
       height="512" />
    <bx:grid
       x="0"
       y="0"
       width="512"
       height="512" />
    <bx:grid
       x="0"
       y="0"
       width="512"
       height="512" />
    <bx:grid
       x="0"
       y="0"
       width="512"
       height="512" />
    <bx:grid
       x="0"
       y="0"
       width="512"
       height="512" />
    <bx:grid
       x="0"
       y="0"
       width="512"
       height="512" />
    <bx:grid
       x="0"
       y="0"
       width="512"
       height="512" />
    <bx:grid
       x="0"
       y="0"
       width="100"
       height="100" />
    <bx:grid
       x="0"
       y="0"
       width="512"
       height="512" />
    <bx:grid
       x="0"
       y="0"
       width="512"
       height="512" />
    <bx:grid
       x="0"
       y="0"
       width="512"
       height="512" />
    <bx:grid
       x="0"
       y="0"
       width="512"
       height="512" />
    <bx:grid
       x="0"
       y="0"
       width="512"
       height="512" />
    <bx:grid
       x="0"
       y="0"
       width="512"
       height="512" />
    <bx:grid
       x="0"
       y="0"
       width="512"
       height="512" />
    <bx:grid
       x="0"
       y="0"
       width="512"
       height="512" />
    <bx:grid
       x="0"
       y="0"
       width="512"
       height="512" />
    <bx:grid
       x="0"
       y="0"
       width="512"
       height="512" />
    <bx:grid
       x="0"
       y="0"
       width="512"
       height="512" />
    <bx:grid
       x="0"
       y="0"
       width="512"
       height="512" />
    <bx:grid
       x="0"
       y="0"
       width="512"
       height="512" />
    <bx:grid
       x="0"
       y="0"
       width="512"
       height="512" />
    <bx:grid
       x="0"
       y="0"
       width="512"
       height="512" />
    <bx:grid
       x="0"
       y="0"
       width="100"
       height="100" />
    <bx:grid
       x="0"
       y="0"
       width="100"
       height="100" />
    <bx:grid
       x="0"
       y="0"
       width="100"
       height="100" />
    <bx:grid
       x="0"
       y="0"
       width="100"
       height="100" />
    <bx:grid
       x="0"
       y="0"
       width="100"
       height="100" />
    <bx:grid
       x="0"
       y="0"
       width="512"
       height="512" />
    <bx:grid
       x="0"
       y="0"
       width="512"
       height="512" />
    <bx:grid
       x="0"
       y="0"
       width="512"
       height="512" />
    <bx:grid
       x="0"
       y="0"
       width="512"
       height="512" />
    <bx:grid
       x="0"
       y="0"
       width="512"
       height="512" />
    <bx:grid
       x="0"
       y="0"
       width="512"
       height="512" />
    <bx:grid
       x="0"
       y="0"
       width="512"
       height="512" />
    <bx:grid
       x="0"
       y="0"
       width="512"
       height="512" />
    <bx:grid
       x="0"
       y="0"
       width="512"
       height="512" />
    <bx:grid
       x="0"
       y="0"
       width="512"
       height="512" />
    <bx:grid
       x="0"
       y="0"
       width="512"
       height="512" />
    <bx:grid
       x="0"
       y="0"
       width="512"
       height="512" />
    <bx:grid
       x="0"
       y="0"
       width="512"
       height="512" />
    <bx:grid
       x="0"
       y="0"
       width="512"
       height="512" />
    <bx:grid
       x="0"
       y="0"
       width="512"
       height="512" />
    <bx:grid
       x="0"
       y="0"
       width="512"
       height="512" />
    <bx:grid
       x="0"
       y="0"
       width="512"
       height="512" />
    <bx:grid
       x="0"
       y="0"
       width="512"
       height="512" />
    <bx:grid
       x="0"
       y="0"
       width="512"
       height="512" />
    <bx:grid
       x="0"
       y="0"
       width="512"
       height="512" />
    <bx:grid
       x="0"
       y="0"
       width="512"
       height="512" />
    <bx:grid
       x="0"
       y="0"
       width="512"
       height="512" />
    <bx:grid
       x="0"
       y="0"
       width="512"
       height="512" />
    <bx:grid
       x="0"
       y="0"
       width="512"
       height="512" />
    <bx:grid
       x="0"
       y="0"
       width="512"
       height="512" />
  </defs>
  <g
     id="g1"
     transform="matrix(4.0009027,0,0,4.0009027,-0.55719918,-0.05778121)"
     style="fill:#ffd054">
    <path
       style="display:inline;fill:#ffd054;stroke:none;stroke-width:0.0800139"
       d="m 24.639011,0 c 0.115847,1.1312941 1.250365,1.9621588 2.080365,2.606437 1.938074,1.504367 5.082322,2.9350985 5.27378,5.7150229 0.203117,2.9491891 -0.495748,6.0305751 -0.779415,8.9615301 -10.168088,57.237759 5.501975,92.35025 20.950037,97.18892 0.900082,0.28245 1.868979,0.18803 2.800517,0.18803 1.860398,0 3.810541,0.0122 5.600965,-0.56013 v -0.15995 C 58.247725,112.94124 56.242082,111.0569 54.484212,109.29904 36.975091,91.788291 33.909863,44.418497 49.443288,28.885066 c -0.55638,2.405207 -1.547188,4.6968 -2.06343,7.121233 -1.780596,8.360568 -1.851547,18.370036 3.023869,25.764441 5.78406,8.772751 19.299936,11.027528 26.658014,2.800511 1.110592,-1.242613 2.049124,-2.607199 2.670834,-4.160732 2.710058,-6.775088 0.331243,-14.961736 -5.564972,-19.223738 -5.319334,-3.845172 -12.895141,-3.908425 -17.234043,1.460668 -0.771555,0.95481 -1.413917,2.045241 -1.833642,3.200515 -1.62688,4.478144 -0.768486,10.845912 2.984922,14.058494 2.903695,2.485236 8.32463,3.042928 11.682018,1.199248 1.796273,-0.986489 3.134916,-2.645603 3.884669,-4.535825 0.953771,-2.404441 0.551328,-4.643874 0.356003,-7.12129 1.418667,1.555443 1.356287,3.901764 0.976219,5.84104 -1.145001,5.834921 -6.604387,8.941535 -12.258124,8.554264 -5.660947,-0.38805 -9.885915,-4.853843 -11.796023,-9.914483 -3.366347,-8.918926 -0.160674,-18.779818 3.894393,-26.884698 0.99129,-1.981283 2.222875,-3.76985 3.57135,-5.520949 0.790278,-1.02626 1.931131,-2.188956 2.329878,-3.440587 C 58.707402,17.243082 56.712522,16.297834 54.724197,15.387431 52.671528,14.447593 50.438872,13.436415 48.803192,11.840882 47.953205,11.011875 47.217055,10.173138 46.807163,9.0415712 46.68626,8.7079458 46.438603,8.112001 46.691386,7.7925668 c 0.641624,-0.8105449 2.560989,-0.671291 3.472049,-0.671291 3.400653,0 6.795677,0.5599143 10.001763,1.70494 C 92.073831,20.221143 104.27197,88.517639 74.56689,119.86089 c -1.145003,1.17379 -2.320436,2.31639 -3.519841,3.43336 -0.522455,0.48729 -1.361034,1.0226 -1.662662,1.68752 -0.168831,0.37123 0.08078,0.81213 0.278405,1.12021 0.474526,0.73849 1.306633,1.63148 2.184418,1.86914 0.737734,0.19923 1.683477,-0.68334 2.240354,-1.08022 1.835548,-1.30982 3.627836,-2.68609 5.36096,-4.12948 C 111.48379,97.873475 105.62364,53.74163 95.984985,18.563284 95.336867,16.613632 94.735976,14.69533 93.93106,12.802266 93.514926,11.823757 92.954375,9.2540291 93.206404,8.1614129 93.483292,6.9624392 94.794725,6.0187826 95.712452,5.3087903 97.255101,4.1153357 98.926619,3.108199 100.51331,1.9770142 101.30704,1.4111078 102.25997,0.7976551 102.8337,0 H 86.527881 Z"
       id="path8925"
       sodipodi:nodetypes="ccsccsccccccccccccccccccsccccccscccccccccccscccc" />
  </g>
</svg>
