<?xml version="1.0" encoding="UTF-8" standalone="no"?>
<!-- Created with Inkscape (http://www.inkscape.org/) -->

<svg
   width="512"
   height="512"
   viewBox="0 0 135.46666 135.46667"
   version="1.1"
   id="svg1"
   inkscape:version="1.3 (0e150ed6c4, 2023-07-21)"
   sodipodi:docname="KWD_AIAF_SPEL_Frost_DamageFrost.svg"
   xmlns:inkscape="http://www.inkscape.org/namespaces/inkscape"
   xmlns:sodipodi="http://sodipodi.sourceforge.net/DTD/sodipodi-0.dtd"
   xmlns="http://www.w3.org/2000/svg"
   xmlns:svg="http://www.w3.org/2000/svg">
  <sodipodi:namedview
     id="namedview1"
     pagecolor="#ffffff"
     bordercolor="#000000"
     borderopacity="0.25"
     inkscape:showpageshadow="2"
     inkscape:pageopacity="0.0"
     inkscape:pagecheckerboard="0"
     inkscape:deskcolor="#d1d1d1"
     inkscape:document-units="px"
     showgrid="true"
     inkscape:zoom="1.0822166"
     inkscape:cx="237.93758"
     inkscape:cy="256.41817"
     inkscape:window-width="1920"
     inkscape:window-height="1017"
     inkscape:window-x="1042"
     inkscape:window-y="276"
     inkscape:window-maximized="1"
     inkscape:current-layer="svg1">
    <inkscape:grid
       id="grid1"
       units="px"
       originx="0"
       originy="0"
       spacingx="0.26458332"
       spacingy="0.26458334"
       empcolor="#0099e5"
       empopacity="0.30196078"
       color="#0099e5"
       opacity="0.14901961"
       empspacing="5"
       dotted="false"
       gridanglex="30"
       gridanglez="30"
       visible="true" />
  </sodipodi:namedview>
  <defs
     id="defs1" />
  <g
     id="g15">
    <path
       id="path10"
       style="display:inline;fill:#90ffff;stroke-width:5.1329"
       d="M 67.733332 0 A 12.832292 12.832292 0 0 0 54.901041 12.832292 A 12.832292 12.832292 0 0 0 63.245751 24.819673 L 63.245751 55.865323 L 58.231587 47.180582 A 6.865067 6.865067 0 0 0 59.079597 39.152648 A 6.865067 6.865067 0 0 0 49.701875 36.64014 A 6.865067 6.865067 0 0 0 47.18885 46.017862 A 6.865067 6.865067 0 0 0 54.560493 49.288981 L 59.459936 57.775284 L 32.707047 42.329199 A 12.832292 12.832292 0 0 0 26.498124 29.108817 A 12.832292 12.832292 0 0 0 8.9689615 33.805688 A 12.832292 12.832292 0 0 0 13.665832 51.33485 A 12.832292 12.832292 0 0 0 28.219466 50.101851 L 55.092244 65.616666 L 45.143497 65.616666 A 6.865067 6.865067 0 0 0 38.615214 60.868119 A 6.865067 6.865067 0 0 0 31.75 67.733332 A 6.865067 6.865067 0 0 0 38.615214 74.598546 A 6.865067 6.865067 0 0 0 45.133679 69.849999 L 55.092244 69.849999 L 28.219466 85.364814 A 12.832292 12.832292 0 0 0 13.665832 84.131815 A 12.832292 12.832292 0 0 0 8.9689615 101.66098 A 12.832292 12.832292 0 0 0 26.498124 106.35785 A 12.832292 12.832292 0 0 0 32.733919 93.121963 L 59.459936 77.691381 L 54.560493 86.177684 A 6.865067 6.865067 0 0 0 47.18885 89.448803 A 6.865067 6.865067 0 0 0 49.701875 98.826525 A 6.865067 6.865067 0 0 0 59.079597 96.314017 A 6.865067 6.865067 0 0 0 58.231587 88.286083 L 63.245751 79.601342 L 63.245751 110.89142 A 12.832292 12.832292 0 0 0 54.901041 122.8788 A 12.832292 12.832292 0 0 0 67.733332 135.71109 A 12.832292 12.832292 0 0 0 80.565624 122.8788 A 12.832292 12.832292 0 0 0 72.220914 110.86042 L 72.220914 79.877294 L 77.080565 88.294351 A 6.865067 6.865067 0 0 0 76.227388 96.314017 A 6.865067 6.865067 0 0 0 85.60511 98.826525 A 6.865067 6.865067 0 0 0 88.118134 89.448803 A 6.865067 6.865067 0 0 0 80.741324 86.169416 L 75.766951 77.553405 L 102.75962 93.137466 A 12.832292 12.832292 0 0 0 108.96854 106.35785 A 12.832292 12.832292 0 0 0 126.4977 101.66098 A 12.832292 12.832292 0 0 0 121.80083 84.131815 A 12.832292 12.832292 0 0 0 107.22033 85.349311 L 80.374421 69.849999 L 90.173306 69.849999 A 6.865067 6.865067 0 0 0 96.691771 74.598546 A 6.865067 6.865067 0 0 0 103.55699 67.733332 A 6.865067 6.865067 0 0 0 96.691771 60.868119 A 6.865067 6.865067 0 0 0 90.163488 65.616666 L 80.374421 65.616666 L 107.2472 50.101851 A 12.832292 12.832292 0 0 0 121.80083 51.33485 A 12.832292 12.832292 0 0 0 126.4977 33.805688 A 12.832292 12.832292 0 0 0 108.96854 29.108817 A 12.832292 12.832292 0 0 0 102.75962 42.329199 L 75.766951 57.91326 L 80.741324 49.297249 A 6.865067 6.865067 0 0 0 88.118134 46.017862 A 6.865067 6.865067 0 0 0 85.60511 36.64014 A 6.865067 6.865067 0 0 0 76.227388 39.152648 A 6.865067 6.865067 0 0 0 77.080565 47.172314 L 72.220914 55.589371 L 72.220914 24.819673 A 12.832292 12.832292 0 0 0 80.565624 12.832292 A 12.832292 12.832292 0 0 0 67.733332 0 z " />
  </g>
</svg>
