<?xml version="1.0" encoding="UTF-8" standalone="no"?>
<svg
   version="1.1"
   id="svg1"
   sodipodi:docname="KWD_AIAF_SPEL_Blood_EnhanceSpell.svg"
   width="512"
   height="512"
   inkscape:version="1.3 (0e150ed6c4, 2023-07-21)"
   xmlns:inkscape="http://www.inkscape.org/namespaces/inkscape"
   xmlns:sodipodi="http://sodipodi.sourceforge.net/DTD/sodipodi-0.dtd"
   xmlns="http://www.w3.org/2000/svg"
   xmlns:svg="http://www.w3.org/2000/svg">
  <sodipodi:namedview
     id="namedview1"
     pagecolor="#ffffff"
     bordercolor="#000000"
     borderopacity="0.25"
     inkscape:showpageshadow="2"
     inkscape:pageopacity="0.0"
     inkscape:pagecheckerboard="0"
     inkscape:deskcolor="#d1d1d1"
     showgrid="true"
     inkscape:zoom="0.99999999"
     inkscape:cx="290"
     inkscape:cy="229.5"
     inkscape:window-width="1920"
     inkscape:window-height="1017"
     inkscape:window-x="1042"
     inkscape:window-y="276"
     inkscape:window-maximized="1"
     inkscape:current-layer="svg1">
    <inkscape:grid
       id="grid1"
       units="px"
       originx="0"
       originy="0"
       spacingx="1"
       spacingy="1"
       empcolor="#0099e5"
       empopacity="0.30196078"
       color="#0099e5"
       opacity="0.14901961"
       empspacing="5"
       dotted="false"
       gridanglex="30"
       gridanglez="30"
       visible="true" />
  </sodipodi:namedview>
  <defs
     id="defs1">
    <rect
       x="-20"
       y="20"
       width="188.88463"
       height="124.24978"
       id="rect5" />
    <rect
       x="-60"
       y="-40"
       width="180"
       height="200"
       id="rect4" />
  </defs>
  <g
     transform="matrix(18.574049,0,0,18.574049,-2560.8507,-3478.1511)"
     id="g1">
    <path
       id="path3"
       d="m 6.9383303,68.103498 c -0.6578,0.17473 -0.92476,0.37271 -1.26965,0.993735 l -0.45236,0.776683 1.56175,5.303219 c 0.87558,2.922988 2.8844,10.275641 2.91997,10.2486 0.7376897,-0.561091 3.2166097,0.107074 3.8435597,0.465831 0.22109,0.126514 -1.17166,-4.80852 -2.36812,-9.234598 l -2.1792797,-8.061791 -0.62658,-0.34184 c -0.46028,-0.280133 -0.83121,-0.308693 -1.42929,-0.149839 z m -5.61598,7.230831 c -0.11956,0.03181 -0.37734997,0.184892 -0.57518997,0.322156 -0.1926,0.157026 -0.4766,0.528967 -0.63182,0.824289 -0.26656,0.515577 -0.2064,0.81727 1.67912997,7.792249 1.50626,5.572132 2.0628,7.393879 2.44768,7.948157 0.25704,0.397631 13.7218797,16.53804 14.0013197,16.78153 0.30471,0.25786 5.71005,6.70044 6.19704,7.07937 0.48704,0.37892 1.20584,1.14101 1.58532,1.67558 0.60062,0.87816 0.82213,1.53943 1.87434,5.43196 0.657006,2.43041 1.260506,4.6484 1.368414,4.81039 L 41.048704,128 38.382336,115.49229 c -2.634385,-9.50803 -2.666435,-9.62658 -3.466751,-10.76943 -0.451451,-0.64249 -1.218249,-1.5824 -1.702801,-2.11024 -0.499404,-0.50253 -1.479933,-1.36471 -2.219678,-1.88826 -0.71982,-0.52889 -1.983637,-1.252148 -2.830901,-1.620082 -0.821945,-0.353484 -2.186435,-0.816989 -3.005575,-1.001851 -4.15356,-0.328415 -2.40377,0.13842 -2.76278,-0.07281 -0.57146,-0.336267 -2.85477,-1.628066 -4.88204,-5.1452 -0.93551,-1.622989 -1.511,-2.575677 -3.96957,-4.098979 -0.27271,-0.13933 -2.51995,-1.022249 -2.89876,-0.921622 -0.4983,0.132359 -0.8144197,0.385733 -1.1208597,0.911883 -0.22815,0.420589 -0.36443,0.94385 -0.28964,1.220529 0.0747,0.276596 1.6308697,1.877076 4.5238397,5.386668 3.48539,4.199333 3.27965,5.551184 3.26931,5.829214 -0.0263,0.21878 0.62718,2.2947 0.3641,2.42808 0.0947,0.81405 -7.5944297,-7.637439 -10.8754197,-13.269769 -0.78302,-1.344162 -0.12924,-3.563981 0.20376,-3.525973 0.35313,-0.432654 -0.2094,-0.858647 -1.58317,-5.70356 -1.02803,-3.644886 -1.47632,-4.987097 -1.80247,-5.32401 -0.21962,-0.259342 -0.729,-0.484071 -1.09996,-0.512585 -0.39089,-0.02326 -0.79636,-0.02149 -0.91062,0.03012 z M 14.89963,71.918806 C 14.46106,72.0353 14.145,72.288684 13.90227,72.734333 l -0.33955,0.64085 2.10877,8.038108 2.11412,8.057934 2.48427,3.025126 c 1.36999,1.669208 2.61458,3.032895 2.77016,3.055084 0.19542,0.01163 -0.40708,-2.45439 -2.82138,-11.385606 -2.59591,-9.602947 -3.13785,-11.449728 -3.52519,-11.855153 -0.24496,-0.273771 -0.60418,-0.496024 -0.78501,-0.53271 -0.19542,-0.01163 -0.65001,0.0456 -1.00883,0.14084 z m 9.93259,8.067898 c -0.19935,0.05293 -0.51688,0.221981 -0.71483,0.359247 -0.19254,0.157044 -0.47656,0.528993 -0.63175,0.824333 -0.26656,0.515549 -0.19574,0.856742 1.44303,7.156055 l 2.01862,7.704579 c 2.290556,0.496792 5.174435,2.693005 4.953669,2.679475 L 28.923712,87.455888 C 27.69521,82.911232 27.0906,80.911657 26.81504,80.603687 26.59535,80.344318 26.16033,80.078672 25.81858,80.00001 25.45691,79.92673 25.0262,79.91397 24.83222,79.98669 Z"
       style="fill:#931826;stroke-width:0.0193833"
       sodipodi:nodetypes="sccccssccsccccccccscccccccccscscccccscccccccccccccscccsccccccccss"
       transform="matrix(0.21535419,0,0,0.21535419,137.87251,187.25863)" />
    <path
       id="path1"
       d="m 121.06167,68.103488 c 0.6578,0.17473 0.92476,0.37271 1.26965,0.993735 l 0.45236,0.776683 -1.56175,5.303219 c -0.87558,2.922988 -2.8844,10.275641 -2.91997,10.2486 -0.73769,-0.561091 -3.21661,0.107074 -3.84356,0.465831 -0.22109,0.126514 1.17166,-4.80852 2.36812,-9.234598 l 2.17928,-8.061791 0.62658,-0.34184 c 0.46028,-0.280133 0.83121,-0.308693 1.42929,-0.149839 z m 5.61598,7.230831 c 0.11956,0.03181 0.37735,0.184892 0.57519,0.322156 0.1926,0.157026 0.4766,0.528967 0.63182,0.824289 0.26656,0.515577 0.2064,0.81727 -1.67913,7.792249 -1.50626,5.572132 -2.0628,7.393879 -2.44768,7.948157 -0.25704,0.397631 -13.72188,16.53804 -14.00132,16.78153 -0.30471,0.25786 -5.71005,6.70044 -6.19704,7.07937 -0.48704,0.37892 -1.20584,1.14101 -1.58532,1.67558 -0.60062,0.87816 -0.82213,1.53943 -1.87434,5.43196 -0.657006,2.43041 -1.260506,4.6484 -1.368414,4.81039 l -11.78012,-1e-5 2.666368,-12.50771 c 2.634385,-9.50803 2.666435,-9.62658 3.466751,-10.76943 0.451451,-0.64249 1.218249,-1.5824 1.702801,-2.11024 0.499404,-0.50253 1.479933,-1.36471 2.219678,-1.88826 0.71982,-0.52889 1.983637,-1.252148 2.830901,-1.620082 0.821945,-0.353484 2.186435,-0.816989 3.005575,-1.001851 4.15356,-0.328415 2.40377,0.13842 2.76278,-0.07281 0.57146,-0.336267 2.85477,-1.628066 4.88204,-5.1452 0.93551,-1.622989 1.511,-2.575677 3.96957,-4.098979 0.27271,-0.13933 2.51995,-1.022249 2.89876,-0.921622 0.4983,0.132359 0.81442,0.385733 1.12086,0.911883 0.22815,0.420589 0.36443,0.94385 0.28964,1.220529 -0.0747,0.276596 -1.63087,1.877076 -4.52384,5.386668 -3.48539,4.199333 -3.27965,5.551184 -3.26931,5.829214 0.0263,0.21878 -0.62718,2.2947 -0.3641,2.42808 -0.0947,0.81405 7.59443,-7.637439 10.87542,-13.269769 0.78302,-1.344162 0.12924,-3.563981 -0.20376,-3.525973 -0.35313,-0.432654 0.2094,-0.858647 1.58317,-5.70356 1.02803,-3.644886 1.47632,-4.987097 1.80247,-5.32401 0.21962,-0.259342 0.729,-0.484071 1.09996,-0.512585 0.39089,-0.02326 0.79636,-0.02149 0.91062,0.03012 z m -13.57728,-3.415523 c 0.43857,0.116494 0.75463,0.369878 0.99736,0.815527 l 0.33955,0.64085 -2.10877,8.038108 -2.11412,8.057934 -2.48427,3.025126 c -1.36999,1.669208 -2.61458,3.032895 -2.77016,3.055084 -0.19542,0.01163 0.40708,-2.45439 2.82138,-11.385606 2.59591,-9.602947 3.13785,-11.449728 3.52519,-11.855153 0.24496,-0.273771 0.60418,-0.496024 0.78501,-0.53271 0.19542,-0.01163 0.65001,0.0456 1.00883,0.14084 z m -9.93259,8.067898 c 0.19935,0.05293 0.51688,0.221981 0.71483,0.359247 0.19254,0.157044 0.47656,0.528993 0.63175,0.824333 0.26656,0.515549 0.19574,0.856742 -1.44303,7.156055 l -2.01862,7.704579 c -2.290556,0.496792 -5.174435,2.693005 -4.953669,2.679475 l 2.977247,-11.254505 c 1.228502,-4.544656 1.833112,-6.544231 2.108672,-6.852201 0.21969,-0.259369 0.65471,-0.525015 0.99646,-0.603677 0.36167,-0.07328 0.79238,-0.08604 0.98636,-0.01332 z"
       style="fill:#931826;stroke-width:0.0193833"
       sodipodi:nodetypes="sccccssccsccccccccscccccccccscscccccscccccccccccccscccsccccccccss"
       transform="matrix(0.21535419,0,0,0.21535419,137.87251,187.25863)" />
    <path
       id="path2"
       style="fill:#931826;stroke-width:0.0421504"
       d="m 151.65658,187.25995 c -0.14494,-0.10316 -4.58272,5.98121 -6.0546,8.74465 -1.02346,1.72715 -1.75861,3.55144 -1.81198,5.55002 0,4.51576 3.53425,7.23943 7.8781,7.23943 4.34385,0 7.85225,-2.72367 7.85225,-7.23943 -0.0535,-1.999 -0.78744,-3.85293 -1.81124,-5.58041 -1.46958,-2.75874 -5.90721,-8.81771 -6.05253,-8.71426 z m -0.83206,5.49197 c -3.02611,2.88266 -4.35324,6.79746 -5.05806,11.16988 -2.45418,-3.15079 2.52215,-11.78857 5.05806,-11.16988 z"
       sodipodi:nodetypes="cccscccccc" />
  </g>
</svg>
