<?xml version="1.0" encoding="UTF-8" standalone="no"?>
<!-- Created with Inkscape (http://www.inkscape.org/) -->

<svg
   width="512"
   height="512"
   viewBox="0 0 135.46666 135.46667"
   version="1.1"
   id="svg1"
   xml:space="preserve"
   inkscape:version="1.3 (0e150ed6c4, 2023-07-21)"
   sodipodi:docname="KWD_AIAF_SPEL_Ferocity_DamageFire.svg"
   xmlns:inkscape="http://www.inkscape.org/namespaces/inkscape"
   xmlns:sodipodi="http://sodipodi.sourceforge.net/DTD/sodipodi-0.dtd"
   xmlns="http://www.w3.org/2000/svg"
   xmlns:svg="http://www.w3.org/2000/svg"><sodipodi:namedview
     id="namedview1"
     pagecolor="#ffffff"
     bordercolor="#000000"
     borderopacity="0.25"
     inkscape:showpageshadow="2"
     inkscape:pageopacity="0.0"
     inkscape:pagecheckerboard="0"
     inkscape:deskcolor="#d1d1d1"
     inkscape:document-units="px"
     inkscape:zoom="1.0822166"
     inkscape:cx="225.46318"
     inkscape:cy="270.27861"
     inkscape:window-width="1920"
     inkscape:window-height="1017"
     inkscape:window-x="1042"
     inkscape:window-y="276"
     inkscape:window-maximized="1"
     inkscape:current-layer="svg1" /><defs
     id="defs1" /><path
     style="fill:#c73636;stroke-width:2.82501"
     d="m 58.922152,134.95857 c -19.623064,-2.4818 -37.098143,-16.6911 -39.933496,-33.0263 -1.457849,-8.39909 -0.507839,-11.711428 7.822821,-27.275216 7.743144,-14.466161 9.524981,-21.394695 9.159761,-35.617069 -0.12998,-5.061216 0.01854,-9.201655 0.329911,-9.200962 1.154166,0.0026 7.14418,7.667522 9.157696,11.718402 3.629677,7.302339 6.849695,-9.211469 7.309549,-19.323209 0.589124,-12.9542352 0.599941,-14.4148641 6.201455,-0.667752 2.642999,6.486368 8.005674,2.463275 8.965209,0.160638 2.422324,-5.813006 0.52963,-17.7853476 2.100457,-20.2796496 1.547611,-2.4574471 2.526094,-2.31455048 6.126333,5.2615944 8.211644,17.2801482 11.770315,27.7311162 12.93108,45.9864652 0.278537,5.792244 5.177425,5.016951 5.802126,2.526577 0.658542,-2.625297 2.210691,-15.318484 2.984205,-15.332259 0.71605,-0.01252 12.390191,22.152958 15.031641,28.540576 15.18224,36.714154 -13.202742,71.686494 -53.988748,66.528164 z m 19.035129,-17.0243 C 98.799854,108.89337 101.34706,86.668398 83.582519,68.85256 76.657123,61.907167 70.501012,52.60188 69.251971,47.191205 67.189878,38.258469 48.972413,72.373127 54.142388,88.639893 c 2.942761,9.259092 -0.154154,12.493937 -3.735014,3.648965 -0.682234,-1.685171 -2.709255,-8.138908 -3.319616,-7.489748 -14.543375,15.4679 10.248896,42.07977 30.869523,33.13516 z"
     id="path3"
     sodipodi:nodetypes="sssssssssssssssssssssss" /></svg>
