<?xml version="1.0" encoding="UTF-8" standalone="no"?>
<svg
   version="1.1"
   id="svg1"
   sodipodi:docname="KWD_AIAF_SPEL_Ferocity_Rune.svg"
   width="512"
   height="512"
   inkscape:version="1.3 (0e150ed6c4, 2023-07-21)"
   xmlns:inkscape="http://www.inkscape.org/namespaces/inkscape"
   xmlns:sodipodi="http://sodipodi.sourceforge.net/DTD/sodipodi-0.dtd"
   xmlns="http://www.w3.org/2000/svg"
   xmlns:svg="http://www.w3.org/2000/svg">
  <sodipodi:namedview
     id="namedview1"
     pagecolor="#ffffff"
     bordercolor="#000000"
     borderopacity="0.25"
     inkscape:showpageshadow="2"
     inkscape:pageopacity="0.0"
     inkscape:pagecheckerboard="0"
     inkscape:deskcolor="#d1d1d1"
     showgrid="true"
     inkscape:zoom="1.4142136"
     inkscape:cx="272.2361"
     inkscape:cy="223.09218"
     inkscape:window-width="1920"
     inkscape:window-height="1017"
     inkscape:window-x="1042"
     inkscape:window-y="276"
     inkscape:window-maximized="1"
     inkscape:current-layer="svg1">
    <inkscape:grid
       id="grid1"
       units="px"
       originx="0"
       originy="0"
       spacingx="1"
       spacingy="1"
       empcolor="#0099e5"
       empopacity="0.30196078"
       color="#0099e5"
       opacity="0.14901961"
       empspacing="5"
       dotted="false"
       gridanglex="30"
       gridanglez="30"
       visible="true" />
  </sodipodi:namedview>
  <defs
     id="defs1">
    <rect
       x="-20"
       y="20"
       width="188.88463"
       height="124.24978"
       id="rect5" />
    <rect
       x="-60"
       y="-40"
       width="180"
       height="200"
       id="rect4" />
  </defs>
  <g
     id="g2"
     transform="matrix(3.8286125,0,0,3.7795279,-3.3246535,-2.4319424e-5)"
     style="fill:#c73636">
    <path
       id="path1"
       style="fill:#c73636;fill-opacity:1;stroke-width:0.309437"
       d="M 67.733329,2.4999999e-6 C 30.804834,-6.7212346e-7 0.86837224,30.325247 0.86837033,67.733338 0.8683796,105.14142 30.80484,135.46666 67.733329,135.46666 c 36.928491,0 66.864941,-30.32524 66.864951,-67.733322 C 134.59828,30.32525 104.66182,3.6189145e-6 67.733329,2.4999999e-6 Z m 0,5.6663711000001 C 103.54267,5.6663815 128.95833,31.458933 128.95847,67.733338 128.95833,104.00774 103.54267,129.80029 67.733329,129.8003 31.92398,129.8003 6.5083128,104.00775 6.5081683,67.733338 6.5083128,31.458927 31.92398,5.6663717 67.733329,5.6663736 Z"
       sodipodi:nodetypes="sssssscscs" />
    <path
       id="path43-9"
       style="fill:#c73636;stroke-width:2.12388"
       d="m 104.69182,21.269461 c -9.516601,0.853434 -19.022713,2.114451 -28.593194,2.394842 -15.093647,0.344703 -14.160076,0.329478 -21.41199,0.335848 -3.090687,0.0021 -7.010238,0.01487 -8.710103,0.02846 -1.699866,0.01281 -5.290874,-0.106829 -7.980234,-0.266695 -8.195248,-0.198124 -6.250488,20.338835 -6.021154,28.520776 l 0.04716,3.399096 c 1.305224,-7.55138 1.685057,-13.845643 6.946351,-19.827133 4.989052,-5.49842 8.192579,-6.413281 22.173678,-6.331722 7.467019,0.04353 9.428887,0.218292 10.113857,0.903264 3.015476,3.015297 -18.249623,22.981395 -25.325761,43.097259 l -9.330233,29.465744 -0.414856,4.72493 c -0.377458,4.29924 -0.494122,7.49536 -0.369874,10.23681 0.16948,3.73939 3.041625,-4.27635 4.82808,-13.47567 l 14.324044,-32.808859 1.404862,-1.624362 9.553024,-0.478532 c 11.956088,-0.598401 13.704528,-0.482926 23.51157,1.553022 2.812799,0.583937 3.461302,0.977493 4.912613,2.980944 0.919596,1.269443 1.813917,2.955587 1.987651,3.747007 0.173733,0.791421 0.789041,2.451486 1.366441,3.687752 0.577398,1.236266 1.198482,2.972535 1.380705,3.858957 0.182225,0.886399 0.473163,1.469511 0.646468,1.296202 -0.634864,-9.270153 -1.083454,-18.144958 -0.830838,-27.624078 -1.580199,0.496325 -1.830246,1.054901 -4.732586,1.513552 l -0.0011,-0.0063 C 86.253029,61.486462 69.152016,64.051817 64.064083,58.378776 71.708214,32.397439 102.41667,27.064675 104.69182,21.269723 Z"
       sodipodi:nodetypes="ccccsccccccccsccccsssssscccccc" />
  </g>
</svg>
