<?xml version="1.0" encoding="UTF-8" standalone="no"?>
<!-- Created with Inkscape (http://www.inkscape.org/) -->

<svg
   width="512"
   height="512"
   viewBox="0 0 135.46666 135.46667"
   version="1.1"
   id="svg1"
   inkscape:version="1.3 (0e150ed6c4, 2023-07-21)"
   sodipodi:docname="KWD_AIAF_SPEL_Ferocity_Illusion.svg"
   xmlns:inkscape="http://www.inkscape.org/namespaces/inkscape"
   xmlns:sodipodi="http://sodipodi.sourceforge.net/DTD/sodipodi-0.dtd"
   xmlns="http://www.w3.org/2000/svg"
   xmlns:svg="http://www.w3.org/2000/svg">
  <sodipodi:namedview
     id="namedview1"
     pagecolor="#818181"
     bordercolor="#000000"
     borderopacity="0.25"
     inkscape:showpageshadow="2"
     inkscape:pageopacity="0.0"
     inkscape:pagecheckerboard="0"
     inkscape:deskcolor="#d1d1d1"
     inkscape:document-units="px"
     inkscape:zoom="0.74920735"
     inkscape:cx="206.88532"
     inkscape:cy="200.87897"
     inkscape:window-width="1920"
     inkscape:window-height="1017"
     inkscape:window-x="1042"
     inkscape:window-y="276"
     inkscape:window-maximized="1"
     inkscape:current-layer="svg1" />
  <defs
     id="defs1" />
  <g
     id="g1">
    <path
       style="display:inline;fill:#c73636;stroke:none;stroke-width:0.0847196;fill-opacity:1"
       d="m 87.011968,49.433348 c -2.312843,1.581503 -4.339333,3.480758 -6.777554,4.912822 -6.12268,3.596261 -13.669558,5.366018 -20.50217,2.727979 -3.804525,-1.468963 -6.712254,-4.061262 -9.138972,-7.301945 -4.159867,-5.554969 -6.587387,-12.64605 -5.058047,-19.570268 1.285277,-5.818819 5.214898,-10.811225 10.299895,-13.842841 7.766942,-4.630529 17.842844,-4.539901 25.585384,0.135505 5.075511,3.064986 9.054008,7.974856 11.094035,13.537927 1.273362,3.474574 1.353809,6.856838 1.193718,10.505209 -0.399104,9.097389 -3.960683,18.176212 -11.355852,23.816085 -6.939381,5.291932 -16.011197,7.477704 -24.484022,5.122477 -5.749646,-1.598628 -10.995835,-4.766906 -16.943969,-5.689436 -2.945958,-0.456808 -5.868322,-0.273611 -8.810809,0.109668 -8.323142,1.084241 -15.827627,4.5742 -21.772986,10.52916 -3.2275616,3.23288 -5.6607524,7.330804 -7.4194132,11.521844 -4.9541752,11.806567 -3.80619967,25.451546 4.9769133,35.158736 8.4937579,9.38778 22.4918219,13.10701 34.6359679,10.07064 5.465733,-1.36652 10.961304,-4.25634 14.43172,-8.79988 7.386785,-9.67156 7.48829,-24.186621 1.151323,-34.396178 -4.477956,-7.214733 -11.931486,-10.674733 -20.242607,-10.674733 -2.871578,0 -6.277039,0.300818 -8.810862,1.779134 v 0.08475 c 2.899688,0 5.716155,0.02752 8.556681,0.775171 7.624321,2.008738 13.783609,7.795917 16.376771,15.236837 0.837459,2.403522 0.934568,4.946829 0.82468,7.455379 -0.286601,6.54627 -2.040669,13.0409 -7.458627,17.2464 -4.473738,3.47265 -10.591617,4.54267 -16.096788,3.72766 -3.227623,-0.47783 -6.259002,-1.8825 -9.149733,-3.33122 -3.687523,-1.84858 -7.103164,-4.67308 -9.345265,-8.15424 -6.4582405,-10.02657 -2.390858,-24.454364 5.787064,-32.274859 6.14171,-5.873587 14.59701,-8.055135 22.874288,-6.458997 9.92119,1.913776 19.443032,8.21609 23.092503,17.892812 1.602494,4.248646 2.558982,8.722734 3.604408,13.131514 0.644665,2.72209 1.157293,5.51357 2.384033,8.04844 1.723207,3.56242 3.890294,6.92578 6.593694,9.82743 7.213052,7.7434 17.721737,10.27908 27.94992,9.83093 5.28736,-0.23128 10.00204,-1.36065 14.65651,-3.97336 4.14871,-2.32897 7.80778,-5.61865 10.55438,-9.5005 1.45977,-2.06374 2.68565,-4.30798 3.53537,-6.69289 5.31535,-14.920817 -2.6509,-31.732575 -16.20773,-39.082056 -3.40656,-1.846047 -7.2063,-3.257461 -11.09832,-3.524314 -4.59774,-0.315186 -9.484356,0.906511 -13.639825,2.81438 -5.920262,2.7178 -10.700122,7.456199 -12.957898,13.613636 -1.739278,4.74429 -1.839275,10.057048 -1.027679,14.995384 0.332077,2.02059 0.699844,4.05552 1.55803,5.93038 2.783039,6.07779 9.223409,10.92799 15.901018,11.77602 -0.928482,-1.2623 -2.323822,-2.28061 -3.36422,-3.47346 -2.0985,-2.40434 -3.831014,-5.1315 -5.119585,-8.04837 -1.9291,-4.36645 -3.036356,-9.73011 -2.238287,-14.487125 1.250456,-7.454455 7.384126,-14.01264 14.873406,-15.313065 2.40941,-0.418515 4.81034,-0.296538 7.20113,0.182126 15.50202,3.105814 24.92964,21.871244 16.90754,35.887294 -3.79631,6.63354 -11.18045,9.97916 -18.51722,10.85766 -4.18513,0.50076 -8.462635,0.66507 -12.538524,-0.63534 -12.51563,-3.99538 -20.351334,-18.05631 -19.477907,-30.809175 0.351565,-5.134856 1.534262,-10.773805 4.64181,-14.995379 1.861316,-2.528038 4.610458,-4.492708 6.957188,-6.547134 3.130399,-2.740703 6.136276,-5.605342 8.726143,-8.871889 8.10511,-10.222511 9.87325,-24.40692 5.417834,-36.598902 C 97.593464,19.588185 94.00646,14.049005 88.875821,10.093879 83.164008,5.6909885 76.306816,3.8236032 69.220827,3.3383054 65.590095,3.0896111 61.96035,3.3696406 58.461429,4.4235266 52.849314,6.1137612 47.762926,9.5824428 43.875583,13.935823 c -2.418272,2.708254 -4.555057,5.757044 -5.899037,9.149727 -1.557273,3.930783 -2.152398,8.501163 -2.049274,12.707987 0.323898,13.225095 9.356255,25.382607 22.110565,29.16724 11.305831,3.354973 27.236527,-2.627172 28.974131,-15.527344 M 67.950071,75.466971 c 1.265665,-0.14995 2.745732,-0.0898 3.98179,0.221105 0.487988,0.121981 1.091176,0.288894 1.340274,0.772625 0.2931,0.567625 -0.02522,1.392788 -0.210938,1.946855 -0.569307,1.692726 -1.502103,3.393025 -2.559389,4.829017 -0.356686,0.483785 -0.956479,1.446173 -1.619853,1.496202 -0.707412,0.0535 -1.425008,-0.887885 -1.863863,-1.32674 -1.306385,-1.306385 -2.435331,-2.800852 -3.352595,-4.405434 -0.298831,-0.522687 -0.808654,-1.408005 -0.578096,-2.033264 0.178534,-0.483707 0.774705,-0.700608 1.219634,-0.859088 1.171859,-0.415918 2.420467,-0.497235 3.64299,-0.641301 z"
       id="path8845"
       inkscape:label="path8845" />
  </g>
</svg>
