<?xml version="1.0" encoding="UTF-8" standalone="no"?>
<!-- Created with Inkscape (http://www.inkscape.org/) -->

<svg
   width="512mm"
   height="512mm"
   viewBox="0 0 512 512"
   version="1.1"
   id="svg1"
   xml:space="preserve"
   inkscape:version="1.3 (0e150ed6c4, 2023-07-21)"
   sodipodi:docname="Heart1.svg"
   xmlns:inkscape="http://www.inkscape.org/namespaces/inkscape"
   xmlns:sodipodi="http://sodipodi.sourceforge.net/DTD/sodipodi-0.dtd"
   xmlns="http://www.w3.org/2000/svg"
   xmlns:svg="http://www.w3.org/2000/svg"><sodipodi:namedview
     id="namedview1"
     pagecolor="#ffffff"
     bordercolor="#000000"
     borderopacity="0.25"
     inkscape:showpageshadow="2"
     inkscape:pageopacity="0.0"
     inkscape:pagecheckerboard="0"
     inkscape:deskcolor="#d1d1d1"
     inkscape:document-units="px"
     inkscape:zoom="0.32000001"
     inkscape:cx="887.49998"
     inkscape:cy="1273.4375"
     inkscape:window-width="1920"
     inkscape:window-height="1017"
     inkscape:window-x="1042"
     inkscape:window-y="276"
     inkscape:window-maximized="1"
     inkscape:current-layer="svg1" /><defs
     id="defs1" /><path
     id="path1"
     style="fill:#db5e40;stroke-width:7.63"
     d="M 127.90183,9.9729131 C 70.976264,12.144633 31.301461,63.457496 14.675072,109.04347 -2.2566281,155.46808 -4.3434269,194.84936 7.9591603,235.78898 37.594806,343.43855 158.54459,404.01875 233.85387,474.73058 c 30.74122,30.71897 31.59905,31.22776 37.86782,22.47605 C 329.82868,416.0866 439.5113,369.02238 497.89371,252.78468 518.3757,212.00615 516.20545,149.35283 492.56239,98.831981 488.56733,90.29478 474.23747,72.172713 460.71718,58.561344 399.17515,-10.242531 319.91281,14.649481 256.4003,64.906797 221.07415,44.43091 219.71167,43.036344 202.30461,33.283026 175.09335,15.796979 150.17705,9.1231098 127.90183,9.9729131 Z M 344.6302,79.234764 c 49.54567,-1.885877 95.13934,48.096946 58.21628,128.430166 -48.49778,102.07754 -97.94642,114.86289 -123.31754,122.74669 -36.79332,-8.41816 -97.88659,-73.6646 -95.01891,-122.82119 -6.88168,-86.06626 27.53119,-79.2598 65.54275,-34.10524 l -5.95636,-17.08264 c -3.27551,-9.39545 -11.81725,-22.59008 -18.98254,-29.32235 -12.37987,-12.39779 -30.72725,-12.31112 -42.45869,-4.64869 -21.05115,9.59137 -31.82331,43.81386 -31.82331,78.37199 1.12048,60.68378 79.07172,146.79902 124.14324,180.23751 2.48867,1.90356 52.83608,-42.43721 102.70275,-86.47901 44.61416,-35.70234 78.16344,-95.20828 87.71249,-129.3139 5.53017,-19.75142 8.3688,-23.27468 14.5929,-18.10916 40.22667,97.01739 -116.48128,205.00943 -173.88108,254.43474 -18.44726,19.88105 -35.30762,38.25374 -37.4663,40.82533 -3.43044,3.09679 -4.93142,2.38214 -8.42335,-0.86099 C 177.02448,378.96557 83.200472,323.62968 40.858817,219.389 18.428918,170.16877 40.826457,115.0155 51.115758,150.35708 c 3.41296,11.72279 -3.357435,29.24449 11.513372,60.61478 34.277387,66.67907 63.79827,90.57815 98.6856,123.65807 12.04678,10.88315 34.92049,25.46574 36.56297,26.87595 8.09582,6.95098 -18.06912,-32.83174 -39.92066,-59.45251 C 29.438871,149.48166 174.37655,22.253439 255.00745,120.07247 l 16.97087,20.58857 8.77518,-16.97088 c 16.82899,-32.542517 37.92426,-43.467549 63.8767,-44.455396 z m 9.04217,33.740986 c -4.20485,-0.59511 -4.43424,10.3912 -2.8002,26.01303 1.53895,14.71257 1.8752,28.18022 -5.93359,65.26542 -7.7101,25.27822 -14.0196,49.20761 -14.0196,53.17264 0,9.08066 25.86732,-19.0397 37.70224,-42.1333 15.44339,-30.13487 14.93762,-68.12977 -1.17347,-88.00224 -5.19777,-6.41155 -11.25251,-13.95867 -13.77538,-14.31555 z"
     sodipodi:nodetypes="scccccccccssccccccccccscccccsccscsccscscsscc" /></svg>
