<?xml version="1.0" encoding="UTF-8" standalone="no"?>
<!-- Created with Inkscape (http://www.inkscape.org/) -->

<svg
   width="512"
   height="512"
   viewBox="0 0 135.46666 135.46667"
   version="1.1"
   id="svg1"
   inkscape:version="1.3 (0e150ed6c4, 2023-07-21)"
   sodipodi:docname="KWD_AIAF_SPEL_Necromancy_SummonEquipmentSword.svg"
   xmlns:inkscape="http://www.inkscape.org/namespaces/inkscape"
   xmlns:sodipodi="http://sodipodi.sourceforge.net/DTD/sodipodi-0.dtd"
   xmlns="http://www.w3.org/2000/svg"
   xmlns:svg="http://www.w3.org/2000/svg">
  <sodipodi:namedview
     id="namedview1"
     pagecolor="#ffffff"
     bordercolor="#000000"
     borderopacity="0.25"
     inkscape:showpageshadow="2"
     inkscape:pageopacity="0.0"
     inkscape:pagecheckerboard="0"
     inkscape:deskcolor="#d1d1d1"
     inkscape:document-units="px"
     showgrid="true"
     inkscape:zoom="0.70710678"
     inkscape:cx="156.97771"
     inkscape:cy="400.92954"
     inkscape:window-width="1920"
     inkscape:window-height="1017"
     inkscape:window-x="1042"
     inkscape:window-y="276"
     inkscape:window-maximized="1"
     inkscape:current-layer="svg1">
    <inkscape:grid
       id="grid1"
       units="px"
       originx="0"
       originy="0"
       spacingx="0.26458332"
       spacingy="0.26458334"
       empcolor="#0099e5"
       empopacity="0.30196078"
       color="#0099e5"
       opacity="0.14901961"
       empspacing="5"
       dotted="false"
       gridanglex="30"
       gridanglez="30"
       visible="true" />
  </sodipodi:namedview>
  <defs
     id="defs1">
    <inkscape:path-effect
       effect="fillet_chamfer"
       id="path-effect1"
       is_visible="true"
       lpeversion="1"
       nodesatellites_param="F,0,0,1,0,0,0,1 @ F,0,0,1,0,0,0,1 @ F,0,0,1,0,0,0,1 @ F,0,0,1,0,0,0,1 @ F,0,0,1,0,0,0,1 @ F,0,0,1,0,0,0,1 @ F,0,0,1,0,0,0,1 @ F,0,0,1,0,0,0,1 @ F,0,0,1,0,0,0,1"
       radius="0"
       unit="px"
       method="auto"
       mode="F"
       chamfer_steps="1"
       flexible="false"
       use_knot_distance="true"
       apply_no_radius="true"
       apply_with_radius="true"
       only_selected="false"
       hide_knots="false" />
  </defs>
  <g
     id="g25"
     style="fill:#5dd795"
     transform="matrix(-0.76062411,0.76062411,-0.76062411,-0.76062411,158.61024,53.607599)">
    <path
       id="rect9"
       style="fill:#5dd795;fill-opacity:1;stroke-width:0.475876"
       d="m 68.791667,-38.364583 -7.9375,13.229166 V -7.9375 c 1.396258,0.1527236 1.387472,0.3269107 2.116666,1.3229167 0.315031,0.7115419 0.258099,1.5248223 0.264584,2.1166666 -0.05711,0.5653964 -0.08517,1.1492359 -1.058334,1.8913575 V 55.5625 c -1.092186,2.215434 -2.129082,4.470365 -3.824056,6.255949 -0.193204,0.203533 -0.1927,0.512706 5.17e-4,0.715718 1.658848,1.742951 2.726103,4.013721 3.823539,6.2575 v 13.803728 h 15.875 V 64.822917 c 1.16815,-0.259603 2.099219,-0.669449 2.645834,-1.322917 0.356967,-2.562917 0.348906,-5.201686 0,-7.9375 -0.25735,-0.560557 -1.962904,-1.039522 -2.645834,-1.322917 v -15.875 L 76.729167,37.041667 V 6.6145833 l -1.322917,-1.3229166 -4e-6,-10.5833331 c 1.097436,-2.2437781 2.164696,-5.8374656 3.823543,-7.5804166 0.193218,-0.203012 0.193722,-0.512185 5.17e-4,-0.715718 -1.694973,-1.785584 -2.731874,-2.717597 -3.82406,-4.933031 l 4e-6,-5.291668 c 0.441514,-0.877938 0.951752,-1.247728 1.322917,-2.645833 0.235346,0.32237 -2.642168,-3.991437 -7.9375,-11.90625 z"
       sodipodi:nodetypes="cccccccssccccccccccccsscccc" />
    <path
       id="rect1"
       style="display:inline;fill:#5dd795;stroke-width:0.278077"
       d="m 63.5,94.675438 c 0.521072,1.182831 1.355848,1.355747 2.645833,1.897479 V 129.6455 h -3.96875 c -4.636809,6.42789 18.621865,6.78888 13.229167,0 H 74.083333 V 96.572917 c 1.258699,-0.533948 2.120576,-0.686071 2.645834,-1.897479 z"
       sodipodi:nodetypes="ccccccccc" />
    <path
       id="rect5"
       style="fill:#5dd795;stroke-width:0.278077"
       d="m 85.989579,78.052079 c 0.09868,0.880217 0.241206,1.945863 0,3.439583 h 0.79375 c 0.05964,3.217479 -4.690821,8.787807 -8.747265,3.175005 H 62.177083 c -2.312188,1.740449 -4.703621,3.402341 -7.9375,1.322916 -1.340657,-1.10408 -0.599183,-2.239398 -3e-6,-3.968754 l -6.61458,1.852088 -1.5875,2.116666 0.264583,0.264584 1.322917,-0.264584 c 0.918069,-0.375383 1.795606,-0.329561 2.645833,0 1.024462,1.350679 1.7557,2.718658 0,4.233334 -1.316835,0.02654 -2.596026,0.763683 -3.96875,-0.264584 v -1.322916 l -1.322916,1.322916 c -0.287462,0.287663 -0.300294,0.740948 0,1.322917 l 3.96875,2.645833 c 2.569118,-0.522147 5.206534,-1.364593 7.9375,-2.645833 h 2.910416 c 1.579311,0.266948 2.051442,0.824615 2.38125,1.322917 h 15.875 c -0.09984,-1.809572 0.602547,-2.739377 2.645834,-2.645834 l 2.645833,1.322917 c 4.635747,-0.271912 10.159149,0.459755 14.552083,-5.291667 -1.587505,-4e-6 -3.175005,0.793746 -6.614588,-4e-6 -0.705647,-0.243124 -1.354095,-0.46696 -1.587495,-1.058329 v -1.5875 c 0.08662,-0.442217 0.324847,-0.435494 0.529167,-0.529167 0.388037,0.685656 0.732036,1.065702 1.058333,1.322917 -0.627433,-2.936813 -3.025205,-4.945684 -5.291671,-6.085421 z"
       sodipodi:nodetypes="ccccccccccccccccccccccccccccccc" />
  </g>
  <path
     id="path1"
     d="m 60.70896,6.3887431 c 0.486684,-0.8472032 0.860392,-1.1438264 1.84968,-1.3913172 l 1.245048,-0.33868 6.773352,4.1359676 c 3.727791,2.3001355 13.176843,7.8174835 13.126127,7.8567635 -1.052112,0.81443 -1.046648,4.500035 -0.782124,5.502683 0.09328,0.353588 -6.23232,-3.411255 -11.925119,-6.714803 L 60.626892,9.4221623 60.38566,8.4263131 C 60.168252,7.6839863 60.266404,7.1590259 60.708924,6.3887307 Z M 72.822063,1.2880418 c 0.08844,-0.1539704 0.39656,-0.45454813 0.66044,-0.67787821 0.28928,-0.2087264 0.91056,-0.46433063 1.377732,-0.56984023 0.813964,-0.17807116 1.20994,0.0174708 10.181108,5.22352334 7.166852,4.1589364 9.486164,5.6075163 10.111748,6.3471443 0.455864,0.504166 17.833849,25.17186 18.067659,25.649808 0.24432,0.518317 7.16949,10.407264 7.51399,11.223332 0.34448,0.816132 1.13413,2.095992 1.73439,2.820816 0.99452,1.15912 1.82916,1.71196 6.83572,4.617244 3.12598,1.814032 5.97729,3.47496 6.16182,3.684772 v 16.477048 l -20.7298,-8.486832 c -12.20534,-7.185608 -12.35782,-7.274088 -13.64517,-8.80846 -0.72316,-0.864708 -1.741573,-2.277192 -2.293457,-3.145208 -0.511272,-0.879212 -1.342488,-2.559176 -1.793608,-3.779452 -0.465928,-1.19464 -0.999256,-3.215808 -1.194644,-4.527352 -0.1848,-1.27108 -0.32052,-3.335332 -0.27248,-4.539864 1.087864,-5.881478 1.085024,-3.281722 0.925504,-3.858022 -0.253948,-0.917344 -1.196848,-4.563415 -5.320592,-8.681275 -1.9029,-1.900223 -3.010108,-3.052189 -4.208892,-7.027296 -0.09186,-0.429937 -0.481204,-3.874058 -0.200912,-4.361942 0.36868,-0.641782 0.837468,-0.985982 1.680896,-1.215414 0.667968,-0.160068 1.444172,-0.154632 1.800036,0.05187 0.35576,0.206324 1.996872,2.958839 5.788508,8.274298 4.527941,6.393205 6.478911,6.610196 6.868271,6.699159 0.31316,0.0446 2.94888,1.722254 3.23158,1.406992 1.09359,0.433806 -7.768643,-13.368338 -14.359567,-20.010538 -1.572928,-1.58518 -4.8939,-1.503422 -4.964936,-1.027532 -0.731132,0.328898 -1.112824,-0.609368 -7.320516,-4.3144187 -4.672152,-2.7797424 -6.366744,-3.9000492 -6.71274,-4.47748 -0.278,-0.4009042 -0.40036,-1.1907138 -0.30208,-1.7156885 0.11276,-0.5507271 0.266,-1.1122649 0.38028,-1.251461 z M 63.041388,18.845709 c 0.32448,-0.56486 0.793248,-0.908975 1.501404,-1.079966 l 1.014784,-0.232728 10.362395,5.910622 10.387896,5.925408 3.271708,4.568742 c 1.805568,2.519864 3.234076,4.752323 3.20704,4.9763 -0.05637,0.275352 -3.252088,-1.47639 -14.739376,-8.142505 -12.351247,-7.167515 -14.710703,-8.605157 -15.128959,-9.292885 -0.288644,-0.441385 -0.4633,-1.022072 -0.44702,-1.286451 0.05636,-0.275352 0.30472,-0.884389 0.570096,-1.346549 z m 7.496792,16.770449 c 0.1474,-0.256744 0.499816,-0.634251 0.763731,-0.85773 0.28928,-0.208616 0.910584,-0.464265 1.377772,-0.569723 0.81392,-0.17808 1.260716,0.04688 9.386664,4.659759 l 9.933408,5.661695 c -0.16216,3.36074 1.81166,8.17562 1.874916,7.864468 l -14.499668,-8.30992 c -5.84532,-3.392032 -8.393347,-4.973342 -8.718007,-5.46987 -0.278064,-0.401024 -0.484728,-1.102908 -0.466824,-1.606014 0.03255,-0.528723 0.17514,-1.130704 0.348112,-1.372637 z"
     style="fill:#5dd795;stroke-width:0.0278256"
     sodipodi:nodetypes="cccccssccsccccccccscccccccccscscccccscccccccccccccscccsccccccccsscc" />
  <path
     id="path2"
     d="m 74.761851,129.08103 c -0.486684,0.8472 -0.860392,1.14383 -1.84968,1.39132 l -1.245048,0.33868 -6.773351,-4.13597 c -3.727792,-2.30013 -13.176844,-7.81748 -13.126128,-7.85676 1.052112,-0.81443 1.046648,-4.50004 0.782124,-5.50269 -0.09328,-0.3536 6.23232,3.41126 11.92512,6.71481 l 10.369031,6.01719 0.24124,0.99585 c 0.2174,0.74233 0.11924,1.26729 -0.32328,2.03758 z m -12.113103,5.1007 c -0.08844,0.15396 -0.39656,0.45455 -0.66044,0.67788 -0.28928,0.20872 -0.91056,0.46433 -1.377732,0.56984 -0.813964,0.17808 -1.20994,-0.0176 -10.181108,-5.22352 -7.166852,-4.15894 -9.486164,-5.60752 -10.111752,-6.34715 C 39.861852,123.35462 22.483867,98.686919 22.250059,98.208971 22.005739,97.690655 15.080567,87.801707 14.736067,86.985639 14.391587,86.169507 13.601935,84.889647 13.001679,84.164823 12.007151,83.005703 11.172511,82.452863 6.1659509,79.547579 3.0399748,77.733547 0.18866665,76.072619 0.0041387,75.862807 V 59.385759 l 20.7297963,8.486832 c 12.205339,7.185608 12.357819,7.274088 13.645171,8.80846 0.723164,0.864708 1.741572,2.277192 2.293456,3.145208 0.511272,0.879212 1.342489,2.559176 1.793609,3.779452 0.465927,1.19464 0.999255,3.215808 1.194645,4.527352 0.1848,1.27108 0.32052,3.335332 0.27248,4.539864 -1.087865,5.88148 -1.085025,3.281724 -0.925506,3.858024 0.25396,0.917344 1.19685,4.563419 5.320598,8.681279 1.9029,1.90022 3.010108,3.05219 4.208892,7.02729 0.09184,0.42994 0.481204,3.87406 0.20092,4.36195 -0.36868,0.64178 -0.837468,0.98598 -1.680896,1.21541 -0.667968,0.16008 -1.444172,0.15464 -1.800036,-0.0519 -0.35576,-0.20632 -1.996872,-2.95884 -5.788514,-8.2743 -4.527944,-6.3932 -6.478908,-6.61019 -6.868272,-6.69916 -0.31316,-0.0446 -2.948879,-1.72225 -3.231579,-1.40699 -1.093588,-0.4338 7.768643,13.36834 14.359573,20.01054 1.572928,1.58518 4.8939,1.50342 4.964936,1.02753 0.731132,-0.32892 1.112824,0.60937 7.320516,4.31442 4.672152,2.77974 6.366744,3.90005 6.71274,4.47748 0.278,0.4009 0.40036,1.19071 0.30208,1.71569 -0.11276,0.55072 -0.266,1.11226 -0.38028,1.25146 z m 9.780675,-17.55766 c -0.32448,0.56486 -0.793248,0.90897 -1.501403,1.07996 l -1.014784,0.23272 -10.362396,-5.91062 -10.387896,-5.92541 -3.271708,-4.56874 c -1.805568,-2.519869 -3.234076,-4.752329 -3.20704,-4.976305 0.05636,-0.27536 3.252088,1.476392 14.739376,8.142515 12.351248,7.16751 14.710703,8.60515 15.128959,9.29288 0.28864,0.44138 0.4633,1.02207 0.44702,1.28645 -0.05636,0.27536 -0.30472,0.88439 -0.570096,1.34655 z M 64.932632,99.853614 c -0.1474,0.256756 -0.499816,0.634256 -0.763732,0.857736 -0.28928,0.2086 -0.910584,0.46426 -1.377772,0.56972 -0.81392,0.17808 -1.260716,-0.0469 -9.386664,-4.659763 l -9.933408,-5.661696 c 0.16216,-3.36074 -1.81166,-8.17562 -1.874916,-7.864468 l 14.499668,8.30992 c 5.84532,3.392032 8.393348,4.973344 8.718008,5.469872 0.27808,0.401024 0.484728,1.102908 0.466824,1.606012 -0.0324,0.528724 -0.17512,1.130707 -0.34812,1.372639 z"
     style="fill:#5dd795;stroke-width:0.0278256"
     sodipodi:nodetypes="cccccssccsccccccccscccccccccscscccccscccccccccccccscccsccccccccsscc" />
</svg>
