<?xml version="1.0" encoding="UTF-8" standalone="no"?>
<!-- Created with Inkscape (http://www.inkscape.org/) -->

<svg
   width="512"
   height="512"
   viewBox="0 0 135.46666 135.46667"
   version="1.1"
   id="svg1"
   inkscape:version="1.3 (0e150ed6c4, 2023-07-21)"
   sodipodi:docname="KWD_AIAF_SPEL_Necromancy_SummonEquipmentWarhammer.svg"
   xmlns:inkscape="http://www.inkscape.org/namespaces/inkscape"
   xmlns:sodipodi="http://sodipodi.sourceforge.net/DTD/sodipodi-0.dtd"
   xmlns="http://www.w3.org/2000/svg"
   xmlns:svg="http://www.w3.org/2000/svg">
  <sodipodi:namedview
     id="namedview1"
     pagecolor="#ffffff"
     bordercolor="#000000"
     borderopacity="0.25"
     inkscape:showpageshadow="2"
     inkscape:pageopacity="0.0"
     inkscape:pagecheckerboard="0"
     inkscape:deskcolor="#d1d1d1"
     inkscape:document-units="px"
     showgrid="true"
     inkscape:zoom="0.74920735"
     inkscape:cx="85.423614"
     inkscape:cy="247.59501"
     inkscape:window-width="1920"
     inkscape:window-height="1017"
     inkscape:window-x="1042"
     inkscape:window-y="276"
     inkscape:window-maximized="1"
     inkscape:current-layer="svg1">
    <inkscape:grid
       id="grid1"
       units="px"
       originx="0"
       originy="0"
       spacingx="0.26458332"
       spacingy="0.26458334"
       empcolor="#0099e5"
       empopacity="0.30196078"
       color="#0099e5"
       opacity="0.14901961"
       empspacing="5"
       dotted="false"
       gridanglex="30"
       gridanglez="30"
       visible="true" />
  </sodipodi:namedview>
  <defs
     id="defs1">
    <inkscape:path-effect
       effect="fillet_chamfer"
       id="path-effect1"
       is_visible="true"
       lpeversion="1"
       nodesatellites_param="F,0,0,1,0,0,0,1 @ F,0,0,1,0,0,0,1 @ F,0,0,1,0,0,0,1 @ F,0,0,1,0,0,0,1 @ F,0,0,1,0,0,0,1 @ F,0,0,1,0,0,0,1 @ F,0,0,1,0,0,0,1 @ F,0,0,1,0,0,0,1 @ F,0,0,1,0,0,0,1"
       radius="0"
       unit="px"
       method="auto"
       mode="F"
       chamfer_steps="1"
       flexible="false"
       use_knot_distance="true"
       apply_no_radius="true"
       apply_with_radius="true"
       only_selected="false"
       hide_knots="false" />
    <inkscape:path-effect
       effect="fillet_chamfer"
       id="path-effect12"
       is_visible="true"
       lpeversion="1"
       nodesatellites_param="F,0,0,1,0,9.772824,0,1 @ F,0,0,1,0,9.2122949,0,1 @ F,0,0,1,0,0,0,1 @ F,0,0,1,0,9.9647101,0,1 @ F,0,1,1,0,9.9647101,0,1 @ F,0,0,1,0,0,0,1"
       radius="0"
       unit="px"
       method="auto"
       mode="F"
       chamfer_steps="1"
       flexible="false"
       use_knot_distance="true"
       apply_no_radius="true"
       apply_with_radius="true"
       only_selected="false"
       hide_knots="false" />
  </defs>
  <path
     id="path1"
     d="m 76.864086,5.0050482 c 0.3815,-0.6641226 0.674465,-0.8966456 1.449966,-1.0906535 l 0.97599,-0.2654925 5.309634,3.2421855 c 2.922219,1.8030766 10.32933,6.1281273 10.289576,6.1589183 -0.824754,0.638432 -0.820467,3.527579 -0.613109,4.313555 0.07312,0.277178 -4.885519,-2.674084 -9.348104,-5.263736 L 76.799753,7.3829459 76.610643,6.6022996 C 76.440251,6.0203897 76.517167,5.6088734 76.86407,5.0050386 Z M 86.35955,1.006606 c 0.06932,-0.12068944 0.310864,-0.35632024 0.517718,-0.53138709 0.226788,-0.16361562 0.713787,-0.36398994 1.080005,-0.44669765 0.638067,-0.13959697 0.948475,0.01379662 7.980973,4.09472064 5.618094,3.2601907 7.436204,4.3957325 7.926604,4.9755274 0.35734,0.3952159 13.97995,19.7322247 14.16324,20.1068887 0.19155,0.406309 5.62016,8.158259 5.89022,8.797973 0.27006,0.639766 0.88904,1.643049 1.35958,2.211242 0.77961,0.90863 1.43389,1.342004 5.35853,3.619456 2.45045,1.422019 4.68559,2.724021 4.83025,2.888493 v 12.916362 l -16.25009,-6.652829 c -9.56777,-5.632802 -9.6873,-5.702158 -10.69646,-6.904957 -0.56689,-0.677845 -1.36522,-1.785089 -1.79784,-2.46553 -0.40078,-0.689209 -1.05237,-2.006134 -1.40601,-2.962709 -0.36522,-0.936479 -0.78331,-2.520872 -0.93648,-3.548994 -0.14487,-0.9964 -0.25123,-2.614568 -0.21359,-3.558799 0.85278,-4.610493 0.85056,-2.572545 0.72551,-3.024306 -0.19907,-0.719106 -0.93821,-3.577262 -4.17082,-6.805253 -1.491679,-1.489585 -2.359619,-2.392611 -3.299343,-5.508698 -0.072,-0.337027 -0.377221,-3.036876 -0.157512,-3.419328 0.289025,-0.503093 0.65649,-0.772911 1.317649,-0.952763 0.523621,-0.125478 1.132086,-0.121218 1.411052,0.04066 0.278864,0.16174 1.565344,2.319434 4.537604,6.486224 3.54946,5.011634 5.07882,5.181733 5.38405,5.251471 0.24546,0.03496 2.31163,1.350076 2.53324,1.102942 0.85726,0.34006 -6.08985,-10.479442 -11.25648,-15.686264 C 99.958137,9.7874274 97.354826,9.8515177 97.299141,10.224568 96.726006,10.482389 96.426797,9.7468839 91.560585,6.8424942 87.898084,4.6634536 86.569695,3.7852449 86.298469,3.3325967 86.08056,3.0183271 85.984645,2.3991955 86.061681,1.987668 c 0.0884,-0.4317142 0.20851,-0.8719055 0.298065,-0.9810212 z m -7.667073,13.76346 c 0.254347,-0.442794 0.621828,-0.712546 1.176952,-0.846586 l 0.795487,-0.182435 8.123086,4.633338 8.14307,4.644929 2.564693,3.581437 c 1.415385,1.975323 2.535195,3.725347 2.513995,3.900923 -0.0442,0.215849 -2.549305,-1.157343 -11.554195,-6.382911 -9.682142,-5.618617 -11.53172,-6.745584 -11.859592,-7.284694 -0.226268,-0.346002 -0.363181,-0.801203 -0.350422,-1.008449 0.0442,-0.215849 0.238868,-0.693273 0.446898,-1.05556 z m 5.876736,13.146358 c 0.115514,-0.201262 0.39182,-0.497189 0.59869,-0.672375 0.226788,-0.163532 0.713807,-0.363938 1.080037,-0.446606 0.638031,-0.139597 0.988273,0.03676 7.358205,3.652786 l 7.786795,4.438207 c -0.12711,2.634484 1.42017,6.40887 1.46975,6.164958 L 91.4964,34.539246 c -4.582146,-2.659016 -6.579544,-3.898607 -6.834048,-4.287835 -0.217988,-0.31436 -0.37998,-0.86457 -0.365941,-1.258955 0.0252,-0.414466 0.137273,-0.886359 0.272906,-1.076011 z"
     style="fill:#5dd795;stroke-width:0.0218125"
     sodipodi:nodetypes="cccccssccsccccccccscccccccccscscccccscccccccccccccscccsccccccccsscc" />
  <path
     id="path2"
     d="m 67.123538,125.44972 c -0.43691,0.76057 -0.772401,1.02686 -1.66052,1.24904 l -1.117719,0.30402 -6.080666,-3.713 c -3.346566,-2.0649 -11.829294,-7.01801 -11.783764,-7.05328 0.944516,-0.73114 0.939608,-4.03983 0.702136,-4.93994 -0.08376,-0.31742 5.594963,3.0624 10.705579,6.02811 l 9.30863,5.40183 0.216549,0.89401 c 0.19519,0.66641 0.107074,1.13769 -0.290225,1.8292 z M 56.2492,130.02879 c -0.0794,0.13824 -0.356022,0.40807 -0.592902,0.60856 -0.259707,0.18739 -0.817435,0.41684 -1.236833,0.51156 -0.730723,0.15988 -1.086201,-0.016 -9.139923,-4.68933 -6.433923,-3.73361 -8.516046,-5.03405 -9.077658,-5.69805 C 35.792641,120.30893 20.191842,98.16391 19.981945,97.73484 19.76261,97.269527 13.545651,88.391891 13.236382,87.659281 12.927131,86.92661 12.218234,85.777633 11.679364,85.126938 10.786542,84.086355 10.037258,83.590052 5.5427015,80.981881 2.7364075,79.353364 0.17669255,77.862296 0.01103563,77.673937 V 62.881943 L 18.620869,70.500855 c 10.957143,6.450759 11.094029,6.530191 12.249729,7.907649 0.649208,0.776276 1.563467,2.044312 2.058912,2.82356 0.458986,0.789296 1.205197,2.297455 1.610182,3.392939 0.418279,1.07247 0.897065,2.886937 1.072473,4.064353 0.165899,1.141094 0.287741,2.994244 0.244615,4.075593 -0.976612,5.280003 -0.974063,2.94611 -0.830856,3.463475 0.227988,0.82353 1.074449,4.096736 4.776478,7.793476 1.708292,1.70589 2.702274,2.74005 3.778459,6.30864 0.08244,0.38598 0.431994,3.47787 0.180391,3.91586 -0.330984,0.57615 -0.751826,0.88515 -1.508996,1.09112 -0.599661,0.14371 -1.296486,0.13883 -1.615953,-0.0466 -0.319384,-0.18523 -1.792658,-2.65625 -5.196541,-7.42811 -4.064887,-5.7394 -5.816333,-5.9342 -6.165878,-6.01406 -0.281134,-0.04 -2.647309,-1.54613 -2.901098,-1.26311 -0.981751,-0.38942 6.974172,12.00121 12.89107,17.96414 1.412069,1.42306 4.393417,1.34967 4.45719,0.92244 0.656358,-0.2953 0.999017,0.54706 6.571869,3.8732 4.194346,2.49547 5.715641,3.50121 6.026253,4.01959 0.249547,0.3599 0.359422,1.06894 0.271186,1.54023 -0.101235,0.4944 -0.238788,0.99852 -0.341382,1.12348 z m 8.78044,-15.7621 c -0.291305,0.50709 -0.712127,0.81602 -1.347859,0.96952 l -0.911006,0.20891 -9.30267,-5.30616 -9.325561,-5.31944 -2.937122,-4.10151 c -1.620921,-2.262171 -2.903341,-4.266325 -2.879069,-4.467399 0.05059,-0.247187 2.919507,1.325409 13.232033,7.309809 11.088128,6.43452 13.206292,7.72514 13.581773,8.34253 0.259107,0.39626 0.415919,0.91755 0.401307,1.15489 -0.0506,0.24719 -0.273546,0.79395 -0.511794,1.20885 z M 58.299519,99.211292 c -0.132313,0.230469 -0.448701,0.569387 -0.685625,0.770013 -0.259707,0.187275 -0.817466,0.416785 -1.236873,0.511465 -0.730687,0.15987 -1.13179,-0.0421 -8.426723,-4.18323 l -8.917556,-5.082693 c 0.145577,-3.01705 -1.626387,-7.339526 -1.683174,-7.060196 l 13.016839,7.460092 c 5.247537,3.045141 7.534988,4.464736 7.82645,4.91049 0.249627,0.360021 0.435153,0.990113 0.419078,1.441766 -0.0288,0.474656 -0.157192,1.015076 -0.312504,1.232269 z"
     style="fill:#5dd795;stroke-width:0.02498"
     sodipodi:nodetypes="cccccssccsccccccccscccccccccscscccccscccccccccccccscccsccccccccsscc" />
  <g
     id="g30"
     transform="matrix(-0.83238977,3.1069332,-3.106878,-0.83259592,189.27796,-117.56913)"
     style="fill:#5dd795">
    <path
       id="rect1"
       style="fill:#5dd795;stroke-width:0.0949974"
       d="m 84.919104,13.501169 -5.560159,-3.209902 -0.0032,0.0052 -0.244344,-2.0584316 -0.04134,0.071634 -1.859199,0.7384684 -0.0013,0.00217 C 76.564026,8.7882445 75.952698,8.4679318 75.418473,8.0162872 L 75.865059,7.2428104 76.09426,6.0189301 76.13897,5.1141006 76.511853,1.986417 73.994724,3.8762973 72.273318,5.1913678 71.836331,5.9482226 C 70.867283,5.6373545 69.395282,4.6313256 69.94942,3.4261229 L 64.218013,0.11708799 60.909019,5.8482126 61.736536,6.3258295 C 62.194923,6.015438 62.790161,5.9935444 63.270049,6.2695675 63.96247,6.6693216 64.19975,7.5547648 63.799997,8.2471329 63.400242,8.9395007 62.514757,9.1767382 61.822336,8.7769845 61.343331,8.4994303 61.108703,7.9712408 61.148327,7.4190854 l -0.859658,-0.4964361 -1.240815,2.1490721 4.66021,2.6904706 0.864414,0.976711 c 0.870335,-1.542281 2.596357,-1.882655 3.127875,0.372963 -0.667479,1.045947 -1.251665,2.12739 -1.877665,3.211613 l -0.165444,0.286547 0.788065,0.454972 c -4.882243,8.156004 -9.693418,16.450543 -14.509296,24.674369 l -1.351942,0.190764 0.524694,1.242015 -1.551758,0.536844 0.309509,1.117518 3.782183,1.722257 0.772426,-0.510697 -0.446776,-1.211538 1.41089,-0.458291 -1.011867,-1.221717 -0.0016,-9.55e-4 c 14.366193,-24.757032 0.04134,-0.07161 14.366193,-24.757032 l 0.64478,0.37225 0.206806,-0.358185 c 0.658878,-1.051629 1.238524,-2.144875 1.86125,-3.223657 2.405654,-1.41095 2.143418,2.123423 2.015607,3.391381 l 2.79051,-2.906491 2.537854,-0.444935 5.710752,-1.0013 c 0.384272,-0.240356 0.369775,-0.478256 0.41353,-0.716447 z"
       sodipodi:nodetypes="ccccccccccccccccccccscccccccccccccccccccccccccccccc" />
  </g>
</svg>
