<?xml version="1.0" encoding="UTF-8" standalone="no"?>
<!-- Created with Inkscape (http://www.inkscape.org/) -->

<svg
   width="512"
   height="512"
   viewBox="0 0 135.46666 135.46666"
   version="1.1"
   id="svg1"
   sodipodi:docname="KWD_AIAF_SPEL_Necromancy_Summon.svg"
   inkscape:version="1.3 (0e150ed6c4, 2023-07-21)"
   xml:space="preserve"
   xmlns:inkscape="http://www.inkscape.org/namespaces/inkscape"
   xmlns:sodipodi="http://sodipodi.sourceforge.net/DTD/sodipodi-0.dtd"
   xmlns="http://www.w3.org/2000/svg"
   xmlns:svg="http://www.w3.org/2000/svg"><sodipodi:namedview
     id="namedview1"
     pagecolor="#ffffff"
     bordercolor="#000000"
     borderopacity="0.25"
     inkscape:showpageshadow="2"
     inkscape:pageopacity="0.0"
     inkscape:pagecheckerboard="0"
     inkscape:deskcolor="#d1d1d1"
     inkscape:document-units="px"
     inkscape:zoom="0.70710678"
     inkscape:cx="277.18586"
     inkscape:cy="358.50314"
     inkscape:window-width="1920"
     inkscape:window-height="1017"
     inkscape:window-x="1042"
     inkscape:window-y="276"
     inkscape:window-maximized="1"
     inkscape:current-layer="svg1"
     showgrid="true"><inkscape:grid
       id="grid1"
       units="px"
       originx="0"
       originy="0"
       spacingx="0.26458333"
       spacingy="0.26458333"
       empcolor="#0099e5"
       empopacity="0.30196078"
       color="#0099e5"
       opacity="0.14901961"
       empspacing="5"
       dotted="false"
       gridanglex="30"
       gridanglez="30"
       visible="true" /></sodipodi:namedview><defs
     id="defs1" /><g
     id="g1"
     transform="matrix(4.0001372,0,0,4.0001372,2.2387862,-0.00542594)"><path
       style="display:inline;fill:#5dd795;stroke-width:2.31107"
       d="m 12.569258,1.0821047 c -0.07052,-0.00357 -0.209768,0.1648657 -0.471805,0.4816243 -1.60701,1.9426323 -1.957262,2.7433626 -2.1244185,4.8493163 -0.039618,0.4990633 -0.088844,1.0818787 -0.1090373,1.2939779 -0.047646,0.5002163 0.016106,0.481206 0.3203938,-0.095085 0.137078,-0.2596117 0.507523,-0.8806989 0.823206,-1.3797607 1.213475,-1.9183963 1.557723,-2.8637987 1.615922,-4.4410725 0.0177,-0.479506 0.02565,-0.7049583 -0.05426,-0.7090006 z"
       id="path36" /><path
       style="display:inline;fill:#5dd795;stroke-width:1.55548"
       d="m 24.918675,3.2946971 c -0.259375,-1.134e-4 1.473623,1.4821344 0.7631,3.0635287 -0.833274,1.8545961 0.887488,3.054223 1.541851,1.3613364 C 27.644017,7.2288 27.197746,4.0177605 24.918675,3.2946971 Z"
       id="path35"
       sodipodi:nodetypes="cscc" /><path
       style="display:inline;fill:#5dd795;stroke-width:2.31107"
       d="M 21.966617,0.96893309 C 22.123051,3.2087671 23.192957,8.7861434 24.919925,6.9566812 23.422167,7.6648273 25.035076,2.4424955 21.966617,0.96893309 Z"
       id="path34" /><path
       style="display:inline;fill:#5dd795;stroke-width:1.40621"
       d="M 8.7159094,3.3582296 C 6.4102371,4.0897307 5.9587725,7.3380155 6.3840706,7.834505 7.0460699,9.5471456 8.5412673,8.4255745 7.9439751,6.4572862 7.4747167,4.910914 9.0075512,3.3643842 8.7159094,3.3582296 Z"
       id="path33" /><path
       style="display:inline;fill:#5dd795;stroke-width:2.31107"
       d="M 19.733679,0.00155029 C 19.424119,0.01128711 17.641738,0.6004101 17.155542,1.1849406 13.787245,5.2344768 9.5108733,8.3200403 9.1601642,15.324646 c -0.02723,0.54384 2.78e-4,0.544439 -0.1932698,0.258899 C 8.4161797,14.771063 8.4020602,13.466211 8.9152179,10.925431 9.1467171,9.7792049 9.2429397,8.9665457 9.2128742,8.4196409 c -0.00681,-0.1230171 -1.627e-4,1e-6 -0.5462199,0.4201294 -3.9807182,2.2995157 -4.3458185,9.6872417 -1.0862386,14.2451247 0.400414,0.971486 0.3150637,4.716703 0.1173054,5.950025 0.1155678,0.137925 2.5699459,0.795184 4.0390289,1.561145 -0.02322,1.168382 0.401148,2.233476 0.946713,3.270601 0.579938,-0.948212 1.598544,-1.507008 2.780709,0 0.382174,-1.001832 1.731356,-1.430036 2.324406,0 1.021724,-1.472402 2.400322,-1.109351 2.846855,0 0.583722,-1.06144 1.227364,-2.1103 1.011308,-3.335197 0.605344,-0.351151 3.200234,-1.45194 3.767212,-1.894458 0.09977,-0.359528 -0.652825,-4.382703 0.100251,-6.312793 2.144893,-1.868099 1.531542,-3.73621 1.476913,-5.604309 -0.548894,-2.428773 -0.215553,-5.113191 0.130741,-7.6078039 -0.06651,0.011767 -0.266707,0.077201 -0.387056,0.1731161 -1.714915,1.9814168 -1.674567,5.4269598 -1.537891,8.0134638 -0.208992,-0.309768 -0.445494,-0.606355 -0.708484,-0.889868 0.0029,-0.47029 -0.0078,-1.015691 -0.04082,-1.598869 C 24.27492,11.751807 23.907527,10.595462 22.29683,8.0398192 21.386648,6.5956463 21.169567,5.6859869 21.389908,4.2379841 21.502662,3.4970321 21.5029,3.4912753 21.38009,3.4674885 c -3.322977,1.239358 -2.819474,6.3212308 -0.268718,8.0000285 -4.70656,1.87224 -2.923841,-9.7372808 -1.34307,-11.43030997 0.02396,-0.02566747 -0.03462,-0.03565674 -0.03462,-0.03565674 z M 22.663732,22.89731 c 0.356375,7.1e-4 0.732419,0.01901 1.114144,0.123507 0.402505,1.388964 -0.0048,3.226103 -2.850988,3.299023 -0.13094,0.0031 -0.267784,0.0035 -0.409278,-0.0026 -0.571844,-0.02309 -1.231222,-0.121985 -1.988509,-0.312642 -0.281907,-0.07108 -0.630975,-0.308792 -0.853694,-0.583427 1.389402,-1.423622 2.825453,-2.503443 4.638993,-2.521293 0.113974,-0.0011 0.230541,-0.0028 0.349332,-0.0026 z m -12.045259,0.0026 c 1.845306,0.01816 3.299131,1.135213 4.71134,2.596224 -0.222525,0.242542 -0.535985,0.443886 -0.792199,0.508496 -0.757289,0.190647 -1.416152,0.289552 -1.987993,0.312642 -0.141338,0.0059 -0.277419,0.0065 -0.408243,0.0036 -2.8713264,-0.07375 -3.2415253,-1.866687 -2.8215336,-3.2613 0.4551943,-0.112666 0.8864156,-0.16358 1.2986286,-0.15968 z m 6.037874,4.396631 c 0.04523,0 0.09058,0.0315 0.143661,0.09457 1.919113,3.061939 1.96949,4.016323 0.150378,2.823084 -0.07723,-0.09835 -0.185825,-0.147795 -0.294039,-0.147795 -0.108215,0 -0.216815,0.04945 -0.294039,0.147795 -1.819112,1.193239 -1.768731,0.238855 0.150379,-2.823084 0.05312,-0.06308 0.09842,-0.09457 0.14366,-0.09457 z"
       id="path22"
       sodipodi:nodetypes="scscscccccccccccccccccccsccccscccccccccccccccccsccsccs" /></g></svg>
