<?xml version="1.0" encoding="UTF-8" standalone="no"?>
<!-- Created with Inkscape (http://www.inkscape.org/) -->

<svg
   width="512"
   height="512"
   viewBox="0 0 135.46666 135.46667"
   version="1.1"
   id="svg1"
   inkscape:version="1.3 (0e150ed6c4, 2023-07-21)"
   sodipodi:docname="KWD_SPEL_Abyssal_DamageAbyssal.svg"
   xmlns:inkscape="http://www.inkscape.org/namespaces/inkscape"
   xmlns:sodipodi="http://sodipodi.sourceforge.net/DTD/sodipodi-0.dtd"
   xmlns="http://www.w3.org/2000/svg"
   xmlns:svg="http://www.w3.org/2000/svg">
  <sodipodi:namedview
     id="namedview1"
     pagecolor="#000000"
     bordercolor="#000000"
     borderopacity="0.25"
     inkscape:showpageshadow="2"
     inkscape:pageopacity="0.0"
     inkscape:pagecheckerboard="0"
     inkscape:deskcolor="#d1d1d1"
     inkscape:document-units="px"
     inkscape:zoom="0.72754395"
     inkscape:cx="197.92619"
     inkscape:cy="311.3214"
     inkscape:window-width="1920"
     inkscape:window-height="1017"
     inkscape:window-x="1042"
     inkscape:window-y="276"
     inkscape:window-maximized="1"
     inkscape:current-layer="svg1" />
  <defs
     id="defs1" />
  <g
     id="g1"
     transform="matrix(3.8673364,0,0,3.8673364,2.246439,2.2464976)">
    <path
       id="path12"
       style="fill:#82eb00;stroke-width:0.441326"
       d="m 6.691629,95.153828 -3.8630079,7.392842 h 7.7260899 z m 0,1.37358 1.0725037,2.076099 C 7.4538117,98.354234 7.0776176,98.203276 6.683678,98.203276 c -0.3819254,0 -0.7470929,0.142044 -1.0518017,0.377806 z m -0.00794,2.192061 c 0.7538332,0 1.2641919,0.454296 1.3783012,1.185241 H 5.3053029 c 0.114109,-0.730945 0.6245476,-1.185241 1.3783753,-1.185241 z m -2.1336054,1.780241 c 0.016802,0.009 0.035703,0.0146 0.056105,0.0146 h 0.2314669 c 0.097249,0.67012 0.3524618,1.08342 0.9119704,1.37273 H 3.8496676 Z m 4.2867887,0.005 0.6968095,1.38104 H 7.6176737 c 0.5595032,-0.2893 0.8147156,-0.7026 0.9119701,-1.37273 h 0.2641695 c 0.015243,0 0.029657,-0.003 0.043054,-0.009 z m -3.5365842,0.009 h 2.766722 c -0.1026796,0.75217 -0.6170839,1.22169 -1.3833268,1.22169 -0.7662381,0 -1.2807213,-0.46952 -1.3834012,-1.22169 z"
       sodipodi:nodetypes="ccccccsccsccsscsccccccccsccccscc"
       transform="matrix(3.0405868,0,0,3.0405868,-3.4063429,-281.89692)" />
    <path
       d="M 6.6894088,93.250169 12.449532,103.31073 H 0.929251 Z M 1.8978676,102.96117 H 11.476837 L 6.687371,94.193867 Z"
       style="fill:#82eb00;stroke-width:0.259937"
       id="path18"
       sodipodi:nodetypes="cccccccc"
       transform="matrix(3.0405868,0,0,3.0405868,-3.4063429,-281.89692)"
       inkscape:label="path18" />
  </g>
</svg>
