<?xml version="1.0" encoding="UTF-8" standalone="no"?>
<!-- Created with Inkscape (http://www.inkscape.org/) -->

<svg
   width="512"
   height="512"
   viewBox="0 0 135.46666 135.46667"
   version="1.1"
   id="svg1"
   xml:space="preserve"
   inkscape:version="1.3 (0e150ed6c4, 2023-07-21)"
   sodipodi:docname="PortalNew4.svg"
   xmlns:inkscape="http://www.inkscape.org/namespaces/inkscape"
   xmlns:sodipodi="http://sodipodi.sourceforge.net/DTD/sodipodi-0.dtd"
   xmlns="http://www.w3.org/2000/svg"
   xmlns:svg="http://www.w3.org/2000/svg"><sodipodi:namedview
     id="namedview1"
     pagecolor="#ffffff"
     bordercolor="#000000"
     borderopacity="0.25"
     inkscape:showpageshadow="2"
     inkscape:pageopacity="0.0"
     inkscape:pagecheckerboard="0"
     inkscape:deskcolor="#d1d1d1"
     inkscape:document-units="px"
     inkscape:zoom="0.7652427"
     inkscape:cx="210.39077"
     inkscape:cy="277.68968"
     inkscape:window-width="1920"
     inkscape:window-height="1017"
     inkscape:window-x="1042"
     inkscape:window-y="276"
     inkscape:window-maximized="1"
     inkscape:current-layer="svg1" /><defs
     id="defs1" /><path
     style="fill:#82eb00;fill-opacity:1;stroke-width:1.47197"
     d="M 29.625578,0.57309163 C 18.723724,13.522288 18.017565,37.850448 0,0 0,13.939047 -0.84997982,45.976835 5.6860637,50.415527 13.223205,55.534075 17.997352,76.868873 10.422885,74.922395 -0.40493257,72.139875 -1.8790652,55.798723 1.8194038,82.055456 4.052484,99.517655 11.312066,143.52646 33.407646,123.90355 19.282613,90.590053 19.840345,49.56393 28.890774,24.528218 l 0.01964,-0.0072 c 0.347832,-2.423299 1.656185,-6.041628 3.03682,-9.203573 2.267155,-5.192264 11.383407,-18.1142779 -2.321656,-14.74435337 z"
     id="path1"
     sodipodi:nodetypes="ccssccccsc" /><path
     style="fill:#82eb00;fill-opacity:1;stroke-width:1.47197"
     d="M 105.79441,0.5730917 C 116.69627,13.522288 117.40242,37.850448 135.41999,0 c 0,13.939047 0.84998,45.976835 -5.68606,50.415527 -7.53715,5.118548 -12.3118,26.451372 -4.73683,24.506868 10.83954,-2.78252 12.38981,-19.123672 8.60349,7.133061 -2.23308,17.462199 -9.49267,61.471004 -31.58825,41.848094 14.12504,-33.313497 13.5673,-74.33962 4.51688,-99.375332 l -0.0196,-0.0072 c -0.34784,-2.423299 -1.65619,-6.041628 -3.03682,-9.203573 -2.26716,-5.192264 -11.383401,-18.1142779 2.32165,-14.7443533 z"
     id="path19"
     sodipodi:nodetypes="ccssccccscc" /><path
     d="M 68.369801,27.572265 C 43.426738,25.930141 38.38694,72.850985 48.704403,84.664205 52.3457,84.292016 53.672138,82.396895 52.875935,80.635399 38.947687,49.821017 64.28771,25.03997 76.591837,36.676694 l 2.255358,2.132706 c 2.314407,2.188868 7.477541,0.421699 4.467828,-4.045087 -2.967035,-4.403439 -8.729403,-6.78283 -14.945222,-7.192048 z m 13.892604,18.380204 c 1.884534,10.545835 3.731725,21.09037 2.895711,31.517921 0,2.890581 4.060344,5.339131 4.753277,0.07761 1.017802,-5.76799 -0.337244,-19.858266 -2.067594,-31.641109 -0.587334,-3.999454 -6.144724,-5.035722 -5.581394,0.04558 z m 4.481498,37.235056 c -0.814738,0.06108 -1.857387,0.7849 -2.877795,2.287909 -10.637487,16.807796 -26.298409,7.050164 -27.251419,4.458604 -0.580316,-1.578061 -3.550229,-5.721811 -4.655057,-1.946029 -1.183494,3.084167 5.0139,14.585671 6.310745,15.968161 1.810027,2.55483 5.417036,1.82835 3.752591,-0.68268 l -1.554214,-1.99542 c -2.110512,-2.708914 -1.982165,-2.868272 1.132552,-1.411491 14.701002,3.853691 21.99435,-4.519852 24.544029,-8.695785 3.079779,-5.044161 2.390995,-8.117627 0.598568,-7.983269 z"
     style="fill:#82eb00;fill-opacity:1;stroke-width:1.62469"
     id="path1-7"
     sodipodi:nodetypes="sccccsssccscscscccccssc" /><path
     id="path20"
     style="fill:#82eb00;fill-opacity:1;stroke-width:0.32692"
     d="M 67.322505 0.3374471 A 40.115242 67.39592 0 0 0 27.207125 67.733332 A 40.115242 67.39592 0 0 0 67.322505 135.12922 A 40.115242 67.39592 0 0 0 107.43737 67.733332 A 40.115242 67.39592 0 0 0 67.322505 0.3374471 z M 67.322505 11.85199 A 31.078808 55.881435 0 0 1 98.401228 67.733332 A 31.078808 55.881435 0 0 1 67.322505 123.61468 A 31.078808 55.881435 0 0 1 36.243265 67.733332 A 31.078808 55.881435 0 0 1 67.322505 11.85199 z " /></svg>
