<?xml version="1.0" encoding="UTF-8" standalone="no"?>
<svg
   version="1.1"
   id="svg1"
   sodipodi:docname="KWD_AIAF_SPEL_Eldritch_EnhanceWeapon.svg"
   width="512"
   height="512"
   inkscape:version="1.3 (0e150ed6c4, 2023-07-21)"
   xmlns:inkscape="http://www.inkscape.org/namespaces/inkscape"
   xmlns:sodipodi="http://sodipodi.sourceforge.net/DTD/sodipodi-0.dtd"
   xmlns="http://www.w3.org/2000/svg"
   xmlns:svg="http://www.w3.org/2000/svg">
  <sodipodi:namedview
     id="namedview1"
     pagecolor="#ffffff"
     bordercolor="#000000"
     borderopacity="0.25"
     inkscape:showpageshadow="2"
     inkscape:pageopacity="0.0"
     inkscape:pagecheckerboard="0"
     inkscape:deskcolor="#d1d1d1"
     showgrid="true"
     inkscape:zoom="1"
     inkscape:cx="246"
     inkscape:cy="267.5"
     inkscape:window-width="1920"
     inkscape:window-height="1017"
     inkscape:window-x="1042"
     inkscape:window-y="276"
     inkscape:window-maximized="1"
     inkscape:current-layer="g2">
    <inkscape:grid
       id="grid1"
       units="px"
       originx="0"
       originy="0"
       spacingx="1"
       spacingy="1"
       empcolor="#0099e5"
       empopacity="0.30196078"
       color="#0099e5"
       opacity="0.14901961"
       empspacing="5"
       dotted="false"
       gridanglex="30"
       gridanglez="30"
       visible="true" />
  </sodipodi:namedview>
  <defs
     id="defs1">
    <rect
       x="-20"
       y="20"
       width="188.88463"
       height="124.24978"
       id="rect5" />
    <rect
       x="-60"
       y="-40"
       width="180"
       height="200"
       id="rect4" />
  </defs>
  <g
     id="g2"
     transform="matrix(3.7795276,0,0,3.7795276,6.4505635e-4,-0.00310586)">
    <path
       id="path4"
       style="display:inline;fill:#82eb00;stroke-width:11.4633"
       d="M 8.3356716,6.0445174e-4 C 8.1830894,0.01263469 8.0148512,0.09515403 7.8831292,0.22687566 L 0.22627365,7.8837311 C -0.01458756,8.1245919 -0.08590271,8.4933573 0.12323945,8.6514366 L 3.812268,11.439421 c 0.2091305,0.158076 0.5268438,0.137829 0.7677058,-0.103034 L 11.335785,4.5805757 C 11.57665,4.3397149 11.596901,4.021996 11.438818,3.8128699 L 8.6508346,0.12384145 C 8.5915524,0.04541044 8.5010671,0.00628428 8.4003221,6.0445186e-4 c -0.020999,-0.001181648 -0.042851,-0.001718602 -0.064651,-1.2e-10 z M 12.685331,5.663445 C 12.33179,5.6844844 11.813555,5.9695399 11.630746,6.1523524 L 6.1618517,11.621246 C 5.918107,11.864991 5.4932709,12.704261 5.7537555,12.95665 14.273895,21.214329 22.949904,29.3159 30.920365,38.123259 c 0.243364,0.268916 0.659319,0.266001 0.903064,0.02224 L 38.154982,31.81393 C 38.398728,31.570185 38.40159,31.154322 38.132759,30.910865 29.384568,22.98838 21.233084,14.291519 12.96615,5.7442562 12.90311,5.6790797 12.803181,5.6564452 12.685331,5.663445 Z m 38.266094,17.289543 c -0.140876,-0.01104 -0.282311,0.0324 -0.385868,0.113137 -9.924872,7.735718 -18.991968,16.668036 -27.033347,27.033348 -0.160987,0.207514 -0.157599,0.546888 0.09899,0.767701 l 4.541586,3.909239 c 0.256597,0.220794 0.669366,0.35047 0.765686,0.09696 5.046034,-13.279644 13.230156,-21.208764 26.083817,-26.083817 0.253552,-0.09617 0.101117,-0.494968 -0.099,-0.765686 l -3.590037,-4.85875 c -0.100077,-0.13536 -0.240993,-0.201106 -0.381829,-0.21213 z m -3.41023,11.248911 c -0.71809,0.397379 -1.415578,0.813653 -2.093009,1.250553 -0.67742,0.436901 -1.335021,0.893329 -1.971794,1.369748 -0.636761,0.47642 -1.252434,0.973006 -1.848552,1.488945 -0.596119,0.515937 -1.171889,1.052694 -1.727336,1.60814 -0.555459,0.555459 -1.091324,1.130342 -1.606123,1.725321 -0.5148,0.594974 -1.008745,1.210011 -1.482884,1.844512 -0.474146,0.634497 -0.928182,1.287674 -1.361668,1.96169 -0.433486,0.67402 -0.845604,1.367363 -1.238431,2.080886 l 87.655842,83.334476 c 0.25743,0.24467 0.61573,0.36238 1.00004,0.32931 l 9.51955,1.09701 -1.17782,-9.45288 -0.008,0.006 c 0.0304,-0.37911 -0.0852,-0.73254 -0.32527,-0.98792 z" />
    <path
       d="m 67.234871,46.551863 c 12.517454,-2.977255 24.059846,-0.582155 35.724549,-11.910322 11.28876,-8.966721 21.96303,-1.074488 28.02071,4.266923 1.87557,2.111368 1.38242,2.187658 1.30576,0.705687 C 131.66469,29.424736 112.58638,16.122734 99.049561,25.024784 79.492385,42.524031 70.68038,30.132604 57.011316,36.30513 l 0.258753,-0.133156"
       style="display:inline;fill:#82eb00;stroke-width:13.3921"
       id="path2"
       sodipodi:nodetypes="ccccccc" />
    <path
       d="m 46.547217,67.239513 c -2.977255,12.517459 -0.582155,24.059854 -11.910319,35.724557 -8.966723,11.28876 -1.074489,21.96304 4.266925,28.02072 2.111363,1.87557 2.187653,1.38242 0.705683,1.30576 C 29.420095,131.66935 16.11809,112.59104 25.020142,99.054215 42.519385,79.497031 30.127961,70.685022 36.300486,57.015959 l -0.133156,0.258752"
       style="display:inline;fill:#82eb00;stroke-width:13.3921"
       id="path6"
       sodipodi:nodetypes="ccccccc" />
    <path
       d="m 64.465146,84.854543 c -2.172471,9.133868 -0.424796,17.556247 -8.690841,26.067867 -6.542932,8.2373 -0.784048,16.02621 3.113531,20.44644 1.540638,1.36859 1.596309,1.00874 0.514933,0.9528 -7.435114,-0.45328 -17.14146,-14.37454 -10.645718,-24.25223 12.769027,-14.270684 3.727124,-20.700724 8.231158,-30.674906 l -0.09716,0.188834"
       style="display:inline;fill:#82eb00;stroke-width:9.77207"
       id="path7"
       sodipodi:nodetypes="ccccccc" />
    <path
       d="m 79.742586,96.318797 c -1.648703,6.931753 -0.322391,13.323543 -6.595535,19.783063 -4.965476,6.25135 -0.595019,12.1624 2.362877,15.51694 1.169201,1.03863 1.211452,0.76554 0.390788,0.72309 C 70.258161,131.9979 62.891953,121.43296 67.82161,113.93672 77.512108,103.1066 70.650153,98.2268 74.068291,90.65733 l -0.07372,0.143316"
       style="display:inline;fill:#82eb00;stroke-width:7.4161"
       id="path8"
       sodipodi:nodetypes="ccccccc" />
    <path
       d="m 91.025669,107.35077 c -1.138026,4.78468 -0.222514,9.19666 -4.552608,13.65538 -3.42745,4.31503 -0.410716,8.39517 1.630991,10.71067 0.807052,0.71691 0.836211,0.52841 0.269752,0.49911 -3.894812,-0.23743 -8.97938,-7.52996 -5.576654,-12.70428 6.688929,-7.47556 1.952418,-10.84387 4.311808,-16.06875 l -0.05092,0.0989"
       style="display:inline;fill:#82eb00;stroke-width:5.11901"
       id="path9"
       sodipodi:nodetypes="ccccccc" />
    <path
       d="m 84.852281,64.541766 c 9.133871,-2.172475 17.556239,-0.424795 26.067869,-8.690845 8.2373,-6.542932 16.02621,-0.784044 20.44644,3.113531 1.36859,1.540642 1.00874,1.596313 0.9528,0.514933 -0.45328,-7.435114 -14.37454,-17.141456 -24.25223,-10.645718 -14.270686,12.769027 -20.700722,3.727125 -30.674908,8.231158 l 0.188834,-0.09716"
       style="display:inline;fill:#82eb00;stroke-width:9.77207"
       id="path10"
       sodipodi:nodetypes="ccccccc" />
    <path
       d="m 96.316535,79.819202 c 6.931755,-1.648699 13.323545,-0.322391 19.783065,-6.595535 6.25135,-4.965472 12.1624,-0.595019 15.51694,2.362881 1.03863,1.169201 0.76555,1.211448 0.72309,0.390788 -0.34399,-5.642559 -10.90893,-13.008763 -18.40517,-8.079106 -10.83012,9.690498 -15.709918,2.828539 -23.279392,6.246677 l 0.143316,-0.07372"
       style="display:inline;fill:#82eb00;stroke-width:7.4161"
       id="path11"
       sodipodi:nodetypes="ccccccc" />
    <path
       d="m 107.34851,91.102285 c 4.78468,-1.138022 9.19666,-0.222514 13.65538,-4.552604 4.31503,-3.42745 8.39517,-0.41072 10.71067,1.630991 0.71691,0.807048 0.52841,0.836211 0.49911,0.269752 -0.23744,-3.894808 -7.52996,-8.979376 -12.70428,-5.576653 -7.47556,6.688928 -10.84387,1.952421 -16.06874,4.311811 l 0.0989,-0.05092"
       style="display:inline;fill:#82eb00;stroke-width:5.11901"
       id="path12"
       sodipodi:nodetypes="ccccccc" />
  </g>
</svg>
