<?xml version="1.0" encoding="UTF-8" standalone="no"?>
<!-- Created with Inkscape (http://www.inkscape.org/) -->

<svg
   width="512"
   height="512"
   viewBox="0 0 135.46666 135.46667"
   version="1.1"
   id="svg1"
   inkscape:version="1.3 (0e150ed6c4, 2023-07-21)"
   sodipodi:docname="KWD_AIAF_SPEL_Fire_Phoenix.svg"
   xmlns:inkscape="http://www.inkscape.org/namespaces/inkscape"
   xmlns:sodipodi="http://sodipodi.sourceforge.net/DTD/sodipodi-0.dtd"
   xmlns="http://www.w3.org/2000/svg"
   xmlns:svg="http://www.w3.org/2000/svg">
  <sodipodi:namedview
     id="namedview1"
     pagecolor="#ffffff"
     bordercolor="#000000"
     borderopacity="0.25"
     inkscape:showpageshadow="2"
     inkscape:pageopacity="0.0"
     inkscape:pagecheckerboard="0"
     inkscape:deskcolor="#d1d1d1"
     inkscape:document-units="px"
     inkscape:zoom="1"
     inkscape:cx="197.5"
     inkscape:cy="250.5"
     inkscape:window-width="1920"
     inkscape:window-height="1017"
     inkscape:window-x="1042"
     inkscape:window-y="276"
     inkscape:window-maximized="1"
     inkscape:current-layer="svg1" />
  <defs
     id="defs1" />
  <g
     id="g1"
     transform="translate(-1.7733332e-7,-2.6271966)">
    <path
       id="rect2"
       style="fill:#e08300;stroke-width:0.274455"
       d="M 62.39345,2.6350181 C 56.171954,2.8001395 52.377532,6.0980961 51.800298,8.5163018 47.850088,7.8827916 44.342645,11.660035 41.33391,14.572157 c 3.344331,-0.983104 6.915349,-0.50258 10.489799,0 10.003261,2.762018 25.017925,-0.630212 10.999329,20.577542 l 0.0088,5.57e-4 c -19.940173,20.77714 -12.189429,48.867119 9.371316,59.23945 -4.414634,-16.282654 9.647889,-43.998997 11.105972,-57.7537 v 0 C 84.317264,28.091999 81.845541,18.160421 77.536868,13.907128 l -0.32091,-0.796812 C 82.488474,16.499893 88.039706,29.055307 92.824307,25.222079 87.971071,25.560553 87.579536,8.406224 73.988608,5.4241378 l 0.0016,0.00556 C 71.109621,3.6745348 66.610892,2.5230854 62.39345,2.6350181 Z"
       sodipodi:nodetypes="scccccccccccccs" />
    <path
       id="rect3"
       style="fill:#e08300;stroke-width:0.264583"
       d="m 58.392021,88.592307 c 11.51768,13.829063 15.417419,33.598163 -1.12372,49.297813 8.156809,-14.22342 3.469814,-34.37429 1.12372,-49.297813 z"
       sodipodi:nodetypes="ccc" />
    <path
       id="path3"
       style="fill:#e08300;stroke-width:0.230332"
       d="m 72.203154,94.389706 c 10.026701,12.038874 16.138982,29.925504 1.739116,43.592814 3.704238,-13.14298 0.004,-30.25525 -1.739116,-43.592814 z"
       sodipodi:nodetypes="ccc" />
    <path
       id="path4"
       style="fill:#e08300;stroke-width:0.248424"
       d="M 77.660784,88.499909 C 91.467187,98.243017 102.30254,119.72428 91.116038,137.98252 93.166743,121.64219 84.29524,101.19102 77.660784,88.499909 Z"
       sodipodi:nodetypes="ccc" />
    <path
       id="rect8"
       style="fill:#e08300;stroke-width:0.274455"
       d="M 40.540677,27.28556 C 34.848349,27.63216 15.747113,43.626671 0,33.026165 1.3899239,41.437059 18.028343,46.789752 30.848763,46.81607 21.149056,51.630252 9.2844097,52.516335 0,47.908142 c 7.9512398,15.272088 23.27923,14.2721 38.759391,8.045409 l -0.03669,0.01835 C 34.348507,64.703196 14.734596,68.273522 8.5297118,62.760649 18.906919,77.327828 29.590381,75.166798 46.559948,65.756061 l -0.0217,0.02168 c -8.537595,14.297227 -15.515777,9.98775 -24.784017,10.751123 9.829779,6.956437 18.155738,8.397769 31.96084,-2.249756 C 52.013571,59.34224 54.807466,47.850595 62.823038,35.149699 42.787629,44.976576 49.557536,31.494965 41.495141,27.437361 41.239809,27.308858 40.920166,27.262454 40.540677,27.28556 Z m 13.17439,46.993553 c -3.401068,7.55424 -11.537855,10.626711 -17.481103,10.682728 2.605411,1.891747 10.824914,6.831127 22.74228,-2.952597 z"
       sodipodi:nodetypes="scccccccccccsscccc" />
    <path
       id="path14"
       style="fill:#e08300;stroke-width:0.274455"
       d="m 83.46333,34.934521 c -5.912582,12.417325 -16.945472,41.304288 -13.077281,48.10514 11.917358,9.783714 26.241241,3.813921 28.846652,1.922177 -5.851769,-0.05516 -13.756971,-3.202277 -17.245458,-10.509799 13.661371,10.445588 21.952667,8.992713 31.725197,2.076826 -9.26828,-0.763372 -16.246433,3.54609 -24.784019,-10.751121 l -0.0217,-0.02168 c 16.969579,9.410727 27.652979,11.571752 38.030229,-2.995412 -6.20491,5.512868 -25.8188,1.942539 -30.192982,-6.788749 l -0.03669,-0.01835 c 15.480202,6.226685 30.808112,7.226665 38.759382,-8.045409 -9.28445,4.608189 -21.14901,3.722106 -30.84876,-1.092071 12.82048,-0.02632 29.45884,-5.379021 30.84876,-13.789906 -8.25023,5.55379 -24.96022,-12.056837 -30.75422,-3.554644 -8.230085,12.076953 -18.994343,9.680224 -21.24911,5.462996 z"
       sodipodi:nodetypes="cccccccccccccsc" />
  </g>
</svg>
