<?xml version="1.0" encoding="UTF-8" standalone="no"?>
<!-- Created with Inkscape (http://www.inkscape.org/) -->

<svg
   width="512"
   height="512"
   viewBox="0 0 135.46666 135.46667"
   version="1.1"
   id="svg1"
   sodipodi:docname="KWD_AIAF_SPEL_Shadow_DebuffMovement.svg"
   inkscape:version="1.3 (0e150ed6c4, 2023-07-21)"
   xmlns:inkscape="http://www.inkscape.org/namespaces/inkscape"
   xmlns:sodipodi="http://sodipodi.sourceforge.net/DTD/sodipodi-0.dtd"
   xmlns="http://www.w3.org/2000/svg"
   xmlns:svg="http://www.w3.org/2000/svg">
  <sodipodi:namedview
     id="namedview1"
     pagecolor="#ffffff"
     bordercolor="#000000"
     borderopacity="0.25"
     inkscape:showpageshadow="2"
     inkscape:pageopacity="0.0"
     inkscape:pagecheckerboard="0"
     inkscape:deskcolor="#d1d1d1"
     inkscape:document-units="px"
     inkscape:zoom="1.0595392"
     inkscape:cx="231.2326"
     inkscape:cy="200.55888"
     inkscape:window-width="1920"
     inkscape:window-height="1017"
     inkscape:window-x="1042"
     inkscape:window-y="276"
     inkscape:window-maximized="1"
     inkscape:current-layer="svg1" />
  <defs
     id="defs1" />
  <path
     id="rect2"
     style="fill:#5b2fc2;stroke-width:1.3534"
     d="M 41.210027,94.256638 C 35.582565,88.629224 25.645111,89.505616 18.928961,96.221766 L 5.6725754,109.47815 c -6.7161033,6.71611 -7.5925422,16.65356 -1.9650811,22.28102 5.627461,5.62746 15.5649157,4.75102 22.2810187,-1.96508 L 39.244899,116.5377 c 6.71615,-6.71615 7.592542,-16.653601 1.965128,-22.281062 z m -6.366849,6.366852 c 3.716742,3.71669 3.139691,10.28109 -1.296069,14.71685 l -8.755915,8.75587 c -4.435761,4.4358 -11.000157,5.01285 -14.716898,1.29616 -3.7166953,-3.71674 -3.1379122,-10.27941 1.297849,-14.71521 l 8.755914,-8.75587 c 4.435761,-4.435762 10.998424,-5.014545 14.715119,-1.2978 z" />
  <path
     id="path4"
     style="fill:#5b2fc2;stroke-width:1.19239"
     d="m 67.733333,88.317292 c 7.958398,-2.5e-5 14.365536,-5.935449 14.365537,-13.307956 V 60.457329 C 82.098869,53.084823 75.691731,47.1494 67.733333,47.149373 59.774934,47.1494 53.367795,53.084822 53.367795,60.457329 v 14.552007 c 0,7.372507 6.407138,13.307932 14.365538,13.307956 z m 0,-6.989117 c -5.256234,2.7e-5 -9.489926,-3.919736 -9.489926,-8.789029 v -9.611627 c 0,-4.869293 4.233692,-8.789055 9.489926,-8.789029 5.256233,-2.6e-5 9.487475,3.919736 9.487475,8.789029 v 9.611628 c 0,4.869293 -4.231242,8.789055 -9.487475,8.789028 z" />
  <rect
     style="fill:#5b2fc2;stroke-width:1.24569"
     id="rect3"
     width="10.748208"
     height="53.498882"
     x="90.415253"
     y="5.2645464"
     ry="5.4334803"
     transform="rotate(45)" />
  <path
     id="path6"
     style="fill:#5b2fc2;stroke-width:1.3534"
     d="m 94.256638,41.210027 c 5.627461,5.627414 15.564912,4.751022 22.281062,-1.965128 l 13.25639,-13.256386 c 6.7161,-6.716103 7.59254,-16.6535576 1.96508,-22.2810188 -5.62746,-5.6274611 -15.56491,-4.7510222 -22.28102,1.9650813 L 96.221766,18.928961 c -6.71615,6.71615 -7.592542,16.653604 -1.965128,22.281066 z m 6.366852,-6.366849 c -3.716745,-3.716695 -3.139695,-10.28109 1.29607,-14.716851 l 8.75591,-8.755868 c 4.43576,-4.4357608 11.00016,-5.0128583 14.7169,-1.296163 3.71674,3.716788 3.13791,10.279452 -1.29785,14.715212 l -8.75587,8.755915 c -4.43576,4.435761 -10.99842,5.014544 -14.71516,1.297755 z" />
  <rect
     style="fill:#5b2fc2;stroke-width:1.24569"
     id="rect6"
     width="10.748208"
     height="53.498882"
     x="90.415253"
     y="-58.763435"
     ry="5.4334803"
     transform="rotate(45)" />
  <path
     id="path1"
     style="fill:#5b2fc2;stroke-width:1.3534"
     d="M 41.210025,41.210027 C 46.837439,35.582565 45.961047,25.645111 39.244897,18.928961 L 25.988513,5.6725754 C 19.272403,-1.0435279 9.3349532,-1.9199668 3.7074932,3.7074943 c -5.62746,5.627461 -4.75102,15.5649157 1.96508,22.2810187 L 18.928963,39.244899 c 6.71615,6.71615 16.653601,7.592542 22.281062,1.965128 z m -6.366852,-6.366849 c -3.71669,3.716742 -10.28109,3.139691 -14.71685,-1.296069 l -8.75587,-8.755915 C 6.9346532,20.355433 6.3576032,13.791037 10.074293,10.074296 c 3.71674,-3.7166953 10.27941,-3.1379122 14.71521,1.297849 l 8.75587,8.755914 c 4.435762,4.435761 5.014545,10.998424 1.2978,14.715119 z" />
  <rect
     style="fill:#5b2fc2;stroke-width:1.24569"
     id="rect4"
     width="10.748208"
     height="53.498882"
     x="-5.3741436"
     y="-90.524849"
     ry="5.4334803"
     transform="rotate(135)" />
  <path
     id="path5"
     style="fill:#5b2fc2;stroke-width:1.3534"
     d="m 94.256636,94.256638 c -5.627414,5.627461 -4.751022,15.564912 1.965128,22.281062 l 13.256386,13.25639 c 6.7161,6.7161 16.65356,7.59254 22.28102,1.96508 5.62746,-5.62746 4.75102,-15.56491 -1.96508,-22.28102 L 116.5377,96.221766 c -6.71615,-6.71615 -16.653602,-7.592542 -22.281064,-1.965128 z m 6.366854,6.366852 c 3.71669,-3.716745 10.28109,-3.139695 14.71685,1.29607 l 8.75586,8.75591 c 4.43576,4.43576 5.01286,11.00016 1.29617,14.7169 -3.71679,3.71674 -10.27945,3.13791 -14.71521,-1.29785 l -8.75592,-8.75587 c -4.435761,-4.43576 -5.014544,-10.99842 -1.29775,-14.71516 z" />
  <rect
     style="fill:#5b2fc2;stroke-width:1.24569"
     id="rect5"
     width="10.748208"
     height="53.498882"
     x="-5.3741436"
     y="-154.55283"
     ry="5.4334803"
     transform="rotate(135)" />
</svg>
