<?xml version="1.0" encoding="UTF-8" standalone="no"?>
<!-- Created with Inkscape (http://www.inkscape.org/) -->

<svg
   width="512"
   height="512"
   viewBox="0 0 135.46666 135.46667"
   version="1.1"
   id="svg1"
   xml:space="preserve"
   inkscape:version="1.3 (0e150ed6c4, 2023-07-21)"
   sodipodi:docname="KWD_AIAF_SPEL_FrostFire_DamageFrostFire.svg"
   xmlns:inkscape="http://www.inkscape.org/namespaces/inkscape"
   xmlns:sodipodi="http://sodipodi.sourceforge.net/DTD/sodipodi-0.dtd"
   xmlns="http://www.w3.org/2000/svg"
   xmlns:svg="http://www.w3.org/2000/svg"><sodipodi:namedview
     id="namedview1"
     pagecolor="#ffffff"
     bordercolor="#000000"
     borderopacity="0.25"
     inkscape:showpageshadow="2"
     inkscape:pageopacity="0.0"
     inkscape:pagecheckerboard="0"
     inkscape:deskcolor="#d1d1d1"
     inkscape:document-units="px"
     inkscape:zoom="1.0595392"
     inkscape:cx="221.79453"
     inkscape:cy="247.74921"
     inkscape:window-width="1920"
     inkscape:window-height="1017"
     inkscape:window-x="1042"
     inkscape:window-y="276"
     inkscape:window-maximized="1"
     inkscape:current-layer="g1" /><defs
     id="defs1" /><g
     id="g1"
     transform="matrix(0.24026739,0,0,0.24983494,0.8709245,0.02162572)"><path
       id="path199"
       style="fill:#5ab8ff;stroke-width:24.9879"
       d="m 339.77171,-0.02250704 c -3.35812,0.1027919 -7.19493,0.3156845 -11.5542,0.612373 C 274.22598,4.264429 251.0683,62.510837 236.98601,113.70506 c -15.93814,57.94089 -9.06748,57.67786 -43.06717,95.42042 -1.84915,-7.87095 -5.24848,-15.67483 -10.54497,-25.61208 -7.43919,-13.95735 -25.67893,-20.84187 -27.88743,-20.72138 -2.20851,0.12042 -1.17674,7.24714 4.3486,21.30892 18.69247,47.57164 -36.94594,157.17538 -39.27131,86.97569 -0.93399,-28.18037 -2.91336,-31.85697 -8.69719,-21.03584 -52.004954,97.29762 13.50681,251.55359 110.36461,285.74754 23.53762,9.41361 84.49306,6.89111 108.64341,1.85873 157.15591,-35.74119 135.39326,-172.12589 124.61735,-281.50737 -4.3991,-44.65264 -9.01017,-65.01595 -14.4409,-65.67285 -14.64627,-1.77161 -25.7524,88.22264 -47.62556,86.4975 C 358.059,267.53095 384.61912,204.44837 363.1176,116.15456 357.55175,93.298969 334.94847,59.553511 349.99018,29.992041 363.04163,4.3427335 363.27856,-0.74204644 339.77171,-0.02250704 Z M 338.1614,11.265015 c 11.09039,1.078818 -7.23193,16.813532 -13.45394,20.291059 -77.49894,67.702449 10.82373,107.853616 -80.82751,159.415556 -2.52454,1.42027 -4.24105,4.37352 -6.56743,6.62853 20.36619,-36.21921 8.46001,-163.361268 87.95893,-184.406998 6.20276,-1.642054 10.33061,-2.177105 12.88995,-1.928147 z M 324.39681,94.50164 c 0.68397,-5.190399 2.0804,-2.807554 3.72526,1.042693 49.76741,152.407137 -211.94296,178.543657 -119.89496,321.035377 45.82889,70.94383 177.1433,-28.2356 82.90211,-17.56708 -79.31692,16.59481 -68.15951,-65.43798 -28.85654,-104.48907 28.12591,-27.94566 54.62171,-37.42608 71.59394,-26.45323 137.90403,89.15736 -58.37835,305.64006 -159.64086,165.61277 -68.15752,-94.24924 41.17328,-188.85749 108.94622,-240.81875 46.14708,-35.38079 40.95525,-96.316937 41.22483,-98.36271 z m 100.58954,193.73885 c 55.27684,88.09502 -37.88453,280.05533 -180.89321,225.7369 92.50351,3.93457 177.60348,-87.45733 160.57052,-165.11225 -8.58383,-39.13445 11.30816,-33.25282 20.32269,-60.62465 z"
       sodipodi:nodetypes="ssscscscsccsscscsscscssscscsssssccsc" /></g></svg>
