<?xml version="1.0" encoding="UTF-8" standalone="no"?>
<!-- Created with Inkscape (http://www.inkscape.org/) -->

<svg
   width="512"
   height="512"
   viewBox="0 0 135.46666 135.46667"
   version="1.1"
   id="svg1"
   xml:space="preserve"
   inkscape:version="1.3 (0e150ed6c4, 2023-07-21)"
   sodipodi:docname="KWD_AIAF_SPEL_HolyLunar_DamageHolyLunar.svg"
   xmlns:inkscape="http://www.inkscape.org/namespaces/inkscape"
   xmlns:sodipodi="http://sodipodi.sourceforge.net/DTD/sodipodi-0.dtd"
   xmlns="http://www.w3.org/2000/svg"
   xmlns:svg="http://www.w3.org/2000/svg"><sodipodi:namedview
     id="namedview1"
     pagecolor="#000000"
     bordercolor="#000000"
     borderopacity="0.25"
     inkscape:showpageshadow="2"
     inkscape:pageopacity="0.0"
     inkscape:pagecheckerboard="0"
     inkscape:deskcolor="#d1d1d1"
     inkscape:document-units="px"
     showgrid="false"
     inkscape:zoom="1.0017501"
     inkscape:cx="195.65758"
     inkscape:cy="250.06237"
     inkscape:window-width="1920"
     inkscape:window-height="1017"
     inkscape:window-x="1042"
     inkscape:window-y="276"
     inkscape:window-maximized="1"
     inkscape:current-layer="svg1"><inkscape:grid
       id="grid1"
       units="px"
       originx="0"
       originy="0"
       spacingx="0.26458332"
       spacingy="0.26458334"
       empcolor="#0099e5"
       empopacity="0.30196078"
       color="#0099e5"
       opacity="0.14901961"
       empspacing="5"
       dotted="false"
       gridanglex="30"
       gridanglez="30"
       visible="false" /></sodipodi:namedview><defs
     id="defs1" /><path
     id="path2"
     style="fill:#4898ea;fill-opacity:1;stroke-width:1.41569"
     d="M 69.481257,0.05114221 C 66.077796,0.1251945 61.429031,0.69277249 55.589553,1.6967701 1.1813628,11.051319 -13.830472,77.471679 13.093692,112.12233 40.818504,147.80338 106.69482,142.08093 133.24675,97.950494 138.4409,89.317608 133.76911,87.684635 125.22948,91.082169 69.510077,113.25044 31.013039,50.280758 73.286771,7.3381111 78.429692,2.1138123 76.968874,-0.1117733 69.481257,0.05114221 Z M 61.028288,8.1505881 c 0.62346,-0.0103 1.248142,-0.013707 1.874074,0.00721 C 31.154702,17.828092 5.0694613,82.304357 18.523644,103.25124 -12.132965,81.887852 19.353721,8.8393492 61.028288,8.1505881 Z"
     sodipodi:nodetypes="ssssssssccs" /></svg>
