<?xml version="1.0" encoding="UTF-8" standalone="no"?>
<svg
   version="1.1"
   id="svg1"
   sodipodi:docname="KWD_AIAF_SPEL_ShockArc_EnhanceWeapon.svg"
   width="512"
   height="512"
   inkscape:version="1.3 (0e150ed6c4, 2023-07-21)"
   xmlns:inkscape="http://www.inkscape.org/namespaces/inkscape"
   xmlns:sodipodi="http://sodipodi.sourceforge.net/DTD/sodipodi-0.dtd"
   xmlns="http://www.w3.org/2000/svg"
   xmlns:svg="http://www.w3.org/2000/svg">
  <sodipodi:namedview
     id="namedview1"
     pagecolor="#ffffff"
     bordercolor="#000000"
     borderopacity="0.25"
     inkscape:showpageshadow="2"
     inkscape:pageopacity="0.0"
     inkscape:pagecheckerboard="0"
     inkscape:deskcolor="#d1d1d1"
     showgrid="true"
     inkscape:zoom="0.5"
     inkscape:cx="16"
     inkscape:cy="229"
     inkscape:window-width="1920"
     inkscape:window-height="1017"
     inkscape:window-x="1042"
     inkscape:window-y="276"
     inkscape:window-maximized="1"
     inkscape:current-layer="g2">
    <inkscape:grid
       id="grid1"
       units="px"
       originx="0"
       originy="0"
       spacingx="1"
       spacingy="1"
       empcolor="#0099e5"
       empopacity="0.30196078"
       color="#0099e5"
       opacity="0.14901961"
       empspacing="5"
       dotted="false"
       gridanglex="30"
       gridanglez="30"
       visible="true" />
  </sodipodi:namedview>
  <defs
     id="defs1">
    <rect
       x="-20"
       y="20"
       width="188.88463"
       height="124.24978"
       id="rect5" />
    <rect
       x="-60"
       y="-40"
       width="180"
       height="200"
       id="rect4" />
  </defs>
  <g
     id="g2"
     transform="matrix(3.7795276,0,0,3.7795276,6.4505635e-4,-0.00310586)">
    <path
       id="path1-6"
       style="display:inline;fill:#ff6633;stroke-width:11.7287"
       d="M 8.594825,3.3450437e-4 C 8.4230335,-0.00933757 8.2196838,0.07782004 8.0656586,0.23184471 L 0.2315182,8.0659851 c -0.24643833,0.246439 -0.31940466,0.6237411 -0.10541984,0.785481 L 3.9005418,11.704002 c 0.213973,0.161736 0.5390419,0.14102 0.7854809,-0.10542 L 11.598257,4.6863492 c 0.24644,-0.2464398 0.26716,-0.5715123 0.10542,-0.7854809 L 8.8511396,0.12642488 C 8.7904828,0.04617782 8.6979061,0.00614586 8.594825,3.3450437e-4 Z M 135.46655,0.00446862 C 129.80447,4.9019766 130.92887,12.795603 124.57318,11.028075 c -6.10239,3.110803 -10.2186,9.172176 -14.26888,14.543803 -3.47248,2.416522 -0.004,6.857489 -5.0705,1.920296 C 99.39965,24.673592 93.788695,23.753283 86.919693,24.6231 89.549831,19.56983 87.361797,9.5846319 87.8416,4.2377983 85.936682,12.17312 76.609973,24.425455 73.46316,30.805663 c 4.168546,8.329488 0.290961,10.87157 -6.029598,13.117533 -3.973998,1.482267 -7.784398,1.218383 -3.069578,4.57026 l 12.89429,12.894294 c -3.642406,-5.172759 -5.088748,-14.128016 1.971973,-17.160694 6.346779,-3.104141 14.8372,-9.412368 20.544463,-4.0783 3.08671,15.470186 -4.92806,8.781216 6.86882,34.751334 -2.03056,6.700675 -13.983318,0.941339 -12.42713,3.445781 l 13.73352,13.733521 c 1.52063,-1.699679 -0.25929,-4.609797 1.05832,-5.291664 1.79333,-0.928048 5.97132,-3.40949 8.46667,-2.116666 2.51728,1.304191 0.17375,4.281188 1.28157,6.860558 5.54202,-0.813903 11.6493,-1.465567 16.4579,-4.363556 -0.9204,-1.876666 -6.62822,-0.417748 -7.4352,-4.402829 -20.60288,-3.363333 -15.03729,1.64233 -12.33825,-11.461822 -0.63115,-10.263516 -4.65145,-15.253731 1.30224,-11.01327 2.67722,-2.229634 4.30873,-5.005161 11.75741,-8.859401 9.78561,-4.902548 9.67114,-5.040736 -2.96415,-0.549835 -8.3793,3.059602 -0.94509,-8.877882 -13.86169,-0.771011 -2.10569,4.521132 -3.61827,-1.76379 -4.32841,-5.839432 0.47728,-3.039057 2.65613,-5.620784 5.92625,-7.677046 4.90823,-3.900763 3.35263,-11.039949 7.93957,-15.09984 13.04872,-7.836759 8.67666,-8.043619 14.2544,-21.48910938 z M 12.979049,5.7942911 c -0.361727,0.02152 -0.891961,0.3131837 -1.079002,0.5002276 L 6.3045274,11.890037 c -0.249387,0.249387 -0.6840614,1.108091 -0.4175454,1.366325 8.71742,8.448882 17.594296,16.738019 25.749311,25.74931 0.249,0.275144 0.674584,0.272144 0.923973,0.02272 l 6.478153,-6.478135 c 0.24939,-0.249389 0.252317,-0.674879 -0.02273,-0.923972 C 30.064927,23.520356 21.724723,14.622146 13.266371,5.8769735 13.201872,5.8102878 13.09963,5.7871291 12.979049,5.7942911 Z M 52.131147,23.484152 c -0.144121,-0.01129 -0.28884,0.03316 -0.394799,0.115756 -10.15468,7.914838 -19.431695,17.053955 -27.659269,27.65927 -0.164716,0.21232 -0.161252,0.559551 0.10128,0.785479 l 4.64674,3.999753 c 0.262536,0.22592 0.684864,0.358599 0.783415,0.09924 5.162873,-13.587129 13.536472,-21.69982 26.687758,-26.687755 0.259439,-0.0984 0.103479,-0.506427 -0.101281,-0.783414 l -3.673158,-4.971268 c -0.102397,-0.138492 -0.24656,-0.20576 -0.39068,-0.21704 z m 34.999386,4.671546 c 3.380905,-0.370628 10.398107,5.360123 9.248004,6.242507 -4.800568,1.484993 -15.279376,5.502042 -13.68184,-3.788913 0.34452,-2.965524 2.256425,-2.080646 4.433836,-2.453594 z m -38.488576,6.837819 c -0.734715,0.40658 -1.448354,0.832492 -2.14147,1.279508 -0.693107,0.447017 -1.365931,0.914013 -2.017446,1.401463 -0.651511,0.487451 -1.281435,0.995535 -1.891355,1.52342 -0.609919,0.527883 -1.199018,1.077063 -1.76733,1.645375 -0.56832,0.56832 -1.116591,1.156515 -1.64331,1.765267 -0.526722,0.608751 -1.032101,1.238031 -1.517219,1.887222 -0.485124,0.649187 -0.949674,1.317487 -1.393195,2.00711 -0.443524,0.689625 -0.865183,1.399019 -1.267105,2.129067 l 89.685403,85.263981 c 0.2634,0.25035 0.62999,0.37075 1.0232,0.33692 l 9.73995,1.1224 -1.20508,-9.67175 -0.008,0.006 c 0.0312,-0.38788 -0.0872,-0.74949 -0.33281,-1.01079 z M 52.91663,69.85441 C 42.772907,86.544645 42.905481,53.278545 19.238094,97.914686 17.066619,102.95443 9.1992021,102.80089 6.6869326,108.93417 5.1934322,111.15681 0.03181612,117.55895 0.85990307,117.09283 9.3694587,111.05638 18.09566,104.22023 28.73828,102.71852 c -0.137471,5.64626 4.465147,10.67721 7.27397,15.48019 l -9.553931,17.2723 c 14.788517,-15.15072 16.559103,-7.22092 33.949321,-0.35967 9.602863,3.34626 -31.887165,-17.49252 -11.191039,-13.10514 5.569948,0.42919 13.067888,3.77669 17.123486,-1.78387 1.233523,-5.6158 7.843669,-9.14678 13.433797,-6.4616 -2.602882,6.90674 5.830694,11.5625 9.119848,16.73694 4.098488,0.41435 9.010461,0.96158 11.651988,4.86791 -0.164,-7.20225 -6.863981,-8.07129 -11.482493,-10.65566 -5.294999,-3.18569 -3.781132,-8.55291 -3.52226,-13.64878 -1.649915,-4.14684 -14.219613,-0.38164 -7.065195,-6.31277 2.696534,-2.43899 14.86732,3.67306 9.303817,-1.0666 L 71.011635,87.106044 c 1.982411,3.222925 5.354968,14.534176 -0.434084,13.334566 -0.885919,-1.262928 -7.08835,-6.009256 -8.135929,-6.244556 -0.614463,-0.12424 0.677879,2.732178 1.810738,4.56818 6.258975,6.253226 -0.962275,21.334496 -7.050725,15.850176 -4.097789,-5.55875 -13.18831,2.30593 -16.941586,-1.89549 -3.982149,-6.7145 -3.97037,-9.498 -5.32887,-17.259907 3.101951,-10.666191 10.660893,-16.970846 21.259669,-16.741081 3.957052,0.559399 9.713611,3.177777 4.330479,-1.254704 z"
       sodipodi:nodetypes="cccccccccccccccccccccccccssccccccccccccccscscccscccscccsccsccccccsssssscccccccccccccccccccccccccccscccccccc" />
  </g>
</svg>
