<?xml version="1.0" encoding="UTF-8" standalone="no"?>
<!-- Created with Inkscape (http://www.inkscape.org/) -->

<svg
   width="512"
   height="512"
   viewBox="0 0 135.46666 135.46666"
   version="1.1"
   id="svg1"
   xml:space="preserve"
   inkscape:version="1.3 (0e150ed6c4, 2023-07-21)"
   sodipodi:docname="KWD_AIAF_SPEL_Shadow_EnhanceSpell.svg"
   xmlns:inkscape="http://www.inkscape.org/namespaces/inkscape"
   xmlns:sodipodi="http://sodipodi.sourceforge.net/DTD/sodipodi-0.dtd"
   xmlns="http://www.w3.org/2000/svg"
   xmlns:svg="http://www.w3.org/2000/svg"><sodipodi:namedview
     id="namedview1"
     pagecolor="#ffffff"
     bordercolor="#000000"
     borderopacity="0.25"
     inkscape:showpageshadow="2"
     inkscape:pageopacity="0.0"
     inkscape:pagecheckerboard="0"
     inkscape:deskcolor="#d1d1d1"
     inkscape:document-units="px"
     inkscape:zoom="0.99999999"
     inkscape:cx="196"
     inkscape:cy="176.5"
     inkscape:window-width="1920"
     inkscape:window-height="1017"
     inkscape:window-x="1042"
     inkscape:window-y="276"
     inkscape:window-maximized="1"
     inkscape:current-layer="svg1" /><defs
     id="defs1" /><g
     id="g1"
     transform="matrix(4.0001251,0,0,4.0001251,-2.6284868,-0.00422541)"><path
       id="path1"
       style="fill:#5b2fc2;stroke-width:0.299156"
       d="m 14.197005,7.7062067 c 0.738466,0.7109619 0.290911,0.9521957 -2.870198,1.5455312 -3.057338,0.573856 -3.481439,0.7940611 -4.5104586,2.3426341 -0.8603668,1.294766 -0.010782,1.876482 2.9958077,2.051113 1.6950119,0.09846 1.7169799,0.128491 1.4591739,1.981503 -0.219981,1.581152 -0.269731,1.486846 1.11584,2.093507 1.679806,0.73549 1.732057,0.793321 1.896193,2.09089 0.08672,0.685422 0.252036,1.270997 0.667305,2.365661 1.261294,3.324804 1.641658,4.534533 0.229762,6.212482 -0.257431,0.305937 -0.257337,0.307608 0.09211,0.373167 0.620377,0.116381 0.922944,0.539729 1.250869,1.281225 0.172263,0.389508 0.937862,3.118971 1.082867,3.822743 0.144953,-0.703772 0.910604,-3.433235 1.082866,-3.822743 0.327925,-0.741496 0.630492,-1.164844 1.25087,-1.281225 0.349451,-0.06556 0.349545,-0.06723 0.09211,-0.373167 -1.411896,-1.677949 -1.031533,-2.887678 0.229763,-6.212482 0.415267,-1.094664 0.580588,-1.680239 0.667304,-2.365661 0.164135,-1.297569 0.216386,-1.3554 1.896193,-2.09089 1.38557,-0.606661 1.335821,-0.512355 1.115839,-2.093507 -0.257806,-1.853012 -0.235838,-1.883049 1.459174,-1.981503 3.006591,-0.174631 3.856176,-0.756347 2.995809,-2.051113 C 27.367194,10.045799 26.943092,9.8255939 23.885754,9.2517379 20.724645,8.6584024 20.27709,8.4171686 21.015556,7.7062067 23.982501,4.8497807 21.600062,-0.06565159 17.606232,0.00105632 13.984997,-0.19355638 11.063867,4.6897785 14.197005,7.7062067 Z"
       sodipodi:nodetypes="csssssccssscsscscsssssccc" /><path
       d="m 12.192625,33.678402 c 0,-4.297087 -1.187152,-6.252062 -1.832878,-6.497266 C 9.8939758,27.004265 7.3085328,26.828723 7.016624,30.867444 6.986484,31.284437 6.7407713,29.95897 6.570881,28.462947 6.3262137,26.308464 6.4057637,24.750937 6.882287,22.365846 c 0.36162,-1.809977 0.4030158,-1.903035 0.5564206,-1.250893 0.2398851,1.019779 0.4982294,1.971149 1.5094276,2.539012 2.3525318,1.321125 2.0744538,-1.339209 -1.421065,-4.550227 -1.0656986,-0.978961 -1.3672451,-0.573724 -1.1638143,-2.897669 0.154185,-1.761369 0.9156934,-1.745735 1.5283745,0.03138 0.4495419,1.303917 0.7210554,1.692553 2.2417716,3.208769 4.715193,4.701251 4.077835,10.480019 3.308237,11.823137 -0.37588,0.655991 -0.747629,1.440168 -0.884341,1.865452 -0.233205,0.725458 -0.364673,0.921471 -0.364673,0.543707 z"
       style="fill:#5b2fc2;stroke-width:0.324565"
       id="path1-6"
       sodipodi:nodetypes="sssssssssssssss" /><path
       d="m 22.987182,33.678405 c 0,-4.297086 1.187153,-6.252063 1.832879,-6.497267 0.465771,-0.176871 3.051214,-0.352413 3.343123,3.686308 0.03014,0.416994 0.275853,-0.908473 0.445744,-2.404495 0.244667,-2.154485 0.165117,-3.712013 -0.311408,-6.097104 -0.361619,-1.809977 -0.403015,-1.903036 -0.55642,-1.250893 -0.239884,1.019779 -0.498229,1.971149 -1.509427,2.539013 -2.352532,1.321125 -2.074454,-1.33921 1.421065,-4.550229 1.065699,-0.978961 1.367245,-0.573723 1.163815,-2.897669 -0.154186,-1.761369 -0.915695,-1.745735 -1.528376,0.03138 -0.449541,1.303918 -0.721054,1.692554 -2.241771,3.208769 -4.715193,4.701253 -4.077837,10.480022 -3.308237,11.82314 0.37588,0.655991 0.747629,1.440168 0.884341,1.865452 0.233205,0.725458 0.364672,0.921471 0.364672,0.543707 z"
       style="fill:#5b2fc2;stroke-width:0.324566"
       id="path3"
       sodipodi:nodetypes="sssssssssssssss" /></g></svg>
