<?xml version="1.0" encoding="UTF-8" standalone="no"?>
<!-- Created with Inkscape (http://www.inkscape.org/) -->

<svg
   width="512"
   height="512"
   viewBox="0 0 135.46666 135.46666"
   version="1.1"
   id="svg1"
   inkscape:version="1.3 (0e150ed6c4, 2023-07-21)"
   sodipodi:docname="KWD_AIAF_SPEL_Eldritch_Cloak.svg"
   xmlns:inkscape="http://www.inkscape.org/namespaces/inkscape"
   xmlns:sodipodi="http://sodipodi.sourceforge.net/DTD/sodipodi-0.dtd"
   xmlns="http://www.w3.org/2000/svg"
   xmlns:svg="http://www.w3.org/2000/svg">
  <g
     id="g14"
     transform="matrix(4.001374,0,0,4.0086641,-0.02368419,-4.4465289e-4)"
     style="fill:#8ea732">
    <path
       id="rect10"
       style="display:inline;fill:#8ea732;stroke-width:0.230266"
       d="M 24.502897,0.00206706 C 22.819883,-0.03826346 21.11144,0.55453756 19.566764,2.0153808 26.900257,-0.42006619 32.725757,4.5462473 33.537487,12.510347 35.222318,7.0250374 30.000738,0.13381342 24.502897,0.00206706 Z M 12.343432,2.2422404 C 3.9312475,2.3856976 0.4301686,5.8473838 0.234611,13.823445 1.7645809,5.843699 5.8888944,4.1448784 13.17594,2.2422404 c -0.283909,-0.00451 -0.561147,-0.00463 -0.832508,0 z M 18.6092,3.4700724 C 8.0392126,3.4129665 -3.9196603,11.94231 5.2978677,27.282055 -1.6329284,-1.7410318 35.269559,1.4546912 29.186332,22.306132 35.171926,9.4595779 27.367188,3.5173885 18.6092,3.4700724 Z m -1.135332,7.5892006 a 4.9596572,5.8375225 0 0 0 -4.959903,5.83737 4.9596572,5.8375225 0 0 0 4.959903,5.837886 4.9596572,5.8375225 0 0 0 4.959388,-5.837886 4.9596572,5.8375225 0 0 0 -4.959388,-5.83737 z m 7.037297,1.846916 C 33.050576,27.172015 8.1419358,36.161125 7.825362,13.834297 1.2737652,39.14466 38.715517,32.571249 24.511165,12.906189 Z m 8.335408,5.763989 c -0.560882,5.137596 -2.463442,10.721501 -9.081616,14.285949 3.504455,2.128204 12.226562,-8.456622 9.081616,-14.285949 z M 0.76584471,22.184175 C -2.2416533,25.591631 4.1068189,37.701299 12.64884,32.524112 6.800698,34.998493 -2.3252644e-5,27.787292 0.76584471,22.184175 Z" />
  </g>
  <sodipodi:namedview
     id="namedview1"
     pagecolor="#ffffff"
     bordercolor="#000000"
     borderopacity="0.25"
     inkscape:showpageshadow="2"
     inkscape:pageopacity="0.0"
     inkscape:pagecheckerboard="0"
     inkscape:deskcolor="#d1d1d1"
     inkscape:document-units="px"
     inkscape:zoom="1.4142136"
     inkscape:cx="328.09754"
     inkscape:cy="329.1582"
     inkscape:window-width="1920"
     inkscape:window-height="1017"
     inkscape:window-x="1042"
     inkscape:window-y="276"
     inkscape:window-maximized="1"
     inkscape:current-layer="svg1" />
  <defs
     id="defs1" />
</svg>
