<?xml version="1.0" encoding="UTF-8" standalone="no"?>
<!-- Created with Inkscape (http://www.inkscape.org/) -->

<svg
   width="512"
   height="512"
   viewBox="0 0 135.46666 135.46667"
   version="1.1"
   id="svg1"
   xml:space="preserve"
   sodipodi:docname="KWD_AIAF_SPEL_Shadow_InvisibilityBuff.svg"
   inkscape:version="1.3 (0e150ed6c4, 2023-07-21)"
   xmlns:inkscape="http://www.inkscape.org/namespaces/inkscape"
   xmlns:sodipodi="http://sodipodi.sourceforge.net/DTD/sodipodi-0.dtd"
   xmlns="http://www.w3.org/2000/svg"
   xmlns:svg="http://www.w3.org/2000/svg"><sodipodi:namedview
     id="namedview1"
     pagecolor="#ffffff"
     bordercolor="#000000"
     borderopacity="0.25"
     inkscape:showpageshadow="2"
     inkscape:pageopacity="0.0"
     inkscape:pagecheckerboard="0"
     inkscape:deskcolor="#d1d1d1"
     inkscape:document-units="px"
     inkscape:zoom="0.5297696"
     inkscape:cx="179.32324"
     inkscape:cy="363.36551"
     inkscape:window-width="1920"
     inkscape:window-height="1017"
     inkscape:window-x="1042"
     inkscape:window-y="276"
     inkscape:window-maximized="1"
     inkscape:current-layer="svg1" /><defs
     id="defs1" /><path
     id="rect1"
     style="fill:#5b2fc2;stroke-width:0.362375"
     d="M 66.958887,2.5470821e-5 C 63.901243,0.0171637 62.689983,0.1169231 60.179623,4.4500873 50.785267,9.7418794 48.363299,20.97315 44.852955,31.277223 41.280251,45.56765 34.857014,44.435838 26.290293,43.908606 13.762341,43.671162 17.774929,62.030494 21.061954,63.563238 v 0 C 22.33276,78.828511 8.0098347,99.641387 5.7172347,113.98104 c -1.6671649,14.62632 9.6360103,21.48562 22.6449513,21.48562 11.112577,0 20.604777,-5.35733 20.142305,-18.59509 15.314384,0.9111 15.165192,-0.96025 22.194116,-5.39956 3.662104,-13.818231 8.158544,-28.760063 16.030176,-41.562819 -0.824988,33.779409 7.155668,33.249779 12.200548,64.235599 3.761659,5.6096 31.963829,-8.44217 30.957669,-18.98368 C 112.59245,99.067335 105.0461,77.921435 106.10952,54.484154 106.20584,50.190762 96.832703,41.34639 96.522827,40.801618 80.588135,26.902216 94.152427,15.847074 73.431979,4.4500641 71.428687,1.063271 70.306515,0.02312118 66.958335,2.5470975e-6 c -1.8e-4,-1.2533252e-6 5.52e-4,2.29237235e-5 5.52e-4,2.29237235e-5 z M 67.532559,19.071099 c 1.551588,0.0883 17.635904,-0.199972 18.916324,19.123095 C 86.441283,41.738646 84.407851,48.92583 67.368335,53.40905 49.002647,48.81895 46.835271,41.818494 48.191699,35.318192 53.587255,20.653322 57.655747,19.687187 67.532531,19.071099 Z"
     sodipodi:nodetypes="scccccccccccccccssccccsc" /></svg>
