<?xml version="1.0" encoding="UTF-8" standalone="no"?>
<!-- Created with Inkscape (http://www.inkscape.org/) -->

<svg
   width="512"
   height="512"
   viewBox="0 0 135.46666 135.46667"
   version="1.1"
   id="svg1"
   inkscape:version="1.3 (0e150ed6c4, 2023-07-21)"
   sodipodi:docname="KWD_AIAF_SPEL_Necromancy_SummonEquipmentMace.svg"
   xmlns:inkscape="http://www.inkscape.org/namespaces/inkscape"
   xmlns:sodipodi="http://sodipodi.sourceforge.net/DTD/sodipodi-0.dtd"
   xmlns="http://www.w3.org/2000/svg"
   xmlns:svg="http://www.w3.org/2000/svg">
  <sodipodi:namedview
     id="namedview1"
     pagecolor="#ffffff"
     bordercolor="#000000"
     borderopacity="0.25"
     inkscape:showpageshadow="2"
     inkscape:pageopacity="0.0"
     inkscape:pagecheckerboard="0"
     inkscape:deskcolor="#d1d1d1"
     inkscape:document-units="px"
     showgrid="true"
     inkscape:zoom="0.70710678"
     inkscape:cx="203.64675"
     inkscape:cy="465.98337"
     inkscape:window-width="1920"
     inkscape:window-height="1017"
     inkscape:window-x="1042"
     inkscape:window-y="276"
     inkscape:window-maximized="1"
     inkscape:current-layer="svg1">
    <inkscape:grid
       id="grid1"
       units="px"
       originx="0"
       originy="0"
       spacingx="0.26458332"
       spacingy="0.26458334"
       empcolor="#0099e5"
       empopacity="0.30196078"
       color="#0099e5"
       opacity="0.14901961"
       empspacing="5"
       dotted="false"
       gridanglex="30"
       gridanglez="30"
       visible="true" />
  </sodipodi:namedview>
  <defs
     id="defs1">
    <inkscape:path-effect
       effect="fillet_chamfer"
       id="path-effect1"
       is_visible="true"
       lpeversion="1"
       nodesatellites_param="F,0,0,1,0,0,0,1 @ F,0,0,1,0,0,0,1 @ F,0,0,1,0,0,0,1 @ F,0,0,1,0,0,0,1 @ F,0,0,1,0,0,0,1 @ F,0,0,1,0,0,0,1 @ F,0,0,1,0,0,0,1 @ F,0,0,1,0,0,0,1 @ F,0,0,1,0,0,0,1"
       radius="0"
       unit="px"
       method="auto"
       mode="F"
       chamfer_steps="1"
       flexible="false"
       use_knot_distance="true"
       apply_no_radius="true"
       apply_with_radius="true"
       only_selected="false"
       hide_knots="false" />
  </defs>
  <path
     id="path1"
     d="M 71.309143,5.4878598 C 71.726802,4.7607848 72.04754,4.5062205 72.89655,4.2938222 l 1.068512,-0.2906591 5.81293,3.5495132 c 3.199215,1.9739898 11.308447,6.7090117 11.264921,6.7427217 -0.902929,0.698949 -0.898241,3.861958 -0.67122,4.722436 0.08008,0.303451 -5.348617,-2.927559 -10.234212,-5.762685 L 71.238713,8.0911567 71.031679,7.2365132 C 70.845085,6.5994438 70.929323,6.1489192 71.309111,5.4878474 Z M 81.704686,1.110406 c 0.07588,-0.13214 0.340349,-0.39009773 0.566794,-0.58175912 0.248273,-0.17912897 0.781448,-0.39849131 1.182376,-0.48904011 0.698547,-0.15282058 1.038381,0.01500182 8.737486,4.48285963 6.150636,3.5692251 8.141088,4.8124047 8.677968,5.4471582 0.39123,0.4326784 15.30512,21.6026454 15.50577,22.0128214 0.20968,0.444808 6.1529,8.93158 6.44855,9.631934 0.29564,0.700411 0.97333,1.798789 1.48847,2.420842 0.85351,0.994762 1.5698,1.469216 5.86646,3.962544 2.68273,1.556816 5.12975,2.982237 5.2881,3.162295 v 14.140704 l -17.79043,-7.283453 c -10.4747,-6.166732 -10.60556,-6.242666 -11.71037,-7.55947 -0.62063,-0.742101 -1.49463,-1.954304 -1.96826,-2.699241 -0.43878,-0.754545 -1.15213,-2.196301 -1.53928,-3.243549 -0.39986,-1.025249 -0.85757,-2.759824 -1.02526,-3.885398 -0.15857,-1.090853 -0.27509,-2.862405 -0.23386,-3.89614 0.93361,-5.04752 0.93118,-2.816397 0.79427,-3.310978 -0.21794,-0.787272 -1.02714,-3.91635 -4.56616,-7.450326 -1.633078,-1.630779 -2.583293,-2.619405 -3.612094,-6.030866 -0.07884,-0.368977 -0.412963,-3.324741 -0.172435,-3.743446 0.316431,-0.550781 0.718722,-0.846176 1.442556,-1.043075 0.573251,-0.137372 1.239398,-0.132708 1.544801,0.0445 0.305351,0.177067 1.713728,2.539294 4.967732,7.101054 3.88591,5.486685 5.56024,5.67291 5.89439,5.749259 0.26875,0.0382 2.53075,1.47805 2.77337,1.207489 0.93852,0.372284 -6.6671,-11.472789 -12.323468,-17.173165 C 96.592291,10.723561 93.74221,10.793726 93.681244,11.202137 93.053783,11.484399 92.726213,10.679174 87.398736,7.4994772 83.389066,5.1138848 81.934755,4.1524305 81.63782,3.6568755 81.399227,3.3128188 81.29419,2.6349979 81.378548,2.1844613 81.475305,1.7118239 81.606861,1.2299087 81.704898,1.1104501 Z M 73.31085,16.178503 c 0.278471,-0.484766 0.680767,-0.780087 1.288513,-0.926833 l 0.870897,-0.199726 8.893064,5.072532 8.91496,5.085219 2.807799,3.920921 c 1.549548,2.162566 2.775507,4.078472 2.7523,4.270693 -0.04836,0.2363 -2.790959,-1.267046 -12.649418,-6.987949 -10.599921,-6.151202 -12.624819,-7.384995 -12.983768,-7.975207 -0.247712,-0.378801 -0.397588,-0.877149 -0.383628,-1.10404 0.04836,-0.236309 0.261512,-0.758989 0.489261,-1.155617 z m 6.433791,14.392502 c 0.126517,-0.220333 0.428931,-0.544317 0.65544,-0.73611 0.248273,-0.179054 0.781469,-0.398424 1.182412,-0.488939 0.698515,-0.152827 1.081955,0.04003 8.055695,3.999036 l 8.524911,4.858901 c -0.139155,2.884203 1.554777,7.016365 1.609063,6.749333 L 87.328458,37.821601 c -5.016491,-2.91106 -7.20322,-4.268153 -7.481848,-4.694274 -0.238648,-0.344167 -0.416003,-0.946522 -0.400631,-1.378293 0.028,-0.453736 0.150275,-0.970378 0.29875,-1.178005 z"
     style="fill:#5dd795;stroke-width:0.0238801"
     sodipodi:nodetypes="cccccssccsccccccccscccccccccscscccccscccccccccccccscccsccccccccsscc" />
  <path
     id="path2"
     d="m 56.039169,111.6244 c -0.364789,0.63503 -0.644912,0.85737 -1.386438,1.04288 l -0.933231,0.25387 -5.077005,-3.10014 c -2.794183,-1.72409 -9.87677,-5.85965 -9.838756,-5.88909 0.788616,-0.61046 0.78452,-3.37303 0.586245,-4.124564 -0.06992,-0.265032 4.671467,2.556924 8.938536,5.033114 l 7.772163,4.51022 0.180835,0.74644 c 0.162955,0.55642 0.0894,0.94991 -0.242313,1.52728 z m -9.079443,3.82326 c -0.06628,0.1154 -0.297231,0.34071 -0.495037,0.50811 -0.216833,0.15643 -0.682515,0.34803 -1.032684,0.42712 -0.61011,0.13348 -0.906917,-0.0132 -7.631303,-3.91531 -5.371951,-3.11736 -7.110403,-4.20315 -7.579316,-4.75754 C 29.87969,107.33214 16.853931,88.842339 16.678679,88.48409 16.495547,88.095586 11.304749,80.683272 11.046527,80.071583 10.78832,79.459849 10.196433,78.500523 9.7465075,77.957227 9.0010538,77.088402 8.3754449,76.674018 4.6227519,74.496349 2.2796601,73.13663 0.14244723,71.891672 0.00413334,71.734409 V 59.38395 L 15.54226,65.7453 c 9.148577,5.386007 9.262869,5.452329 10.22781,6.602426 0.542051,0.648149 1.305404,1.70688 1.719072,2.357508 0.383228,0.659016 1.006269,1.918242 1.344409,2.832906 0.349237,0.895449 0.748997,2.410426 0.895452,3.3935 0.13852,0.952747 0.240248,2.500016 0.204238,3.40288 -0.815415,4.408494 -0.813286,2.459833 -0.693718,2.891804 0.190359,0.687599 0.897105,3.420532 3.988082,6.507094 1.426329,1.424324 2.256242,2.287786 3.154797,5.267347 0.06884,0.32227 0.360689,2.903815 0.1506,3.269515 -0.276348,0.48105 -0.627729,0.73905 -1.259925,0.91102 -0.500679,0.12 -1.082486,0.11592 -1.349226,-0.0388 -0.26666,-0.15463 -1.496766,-2.21781 -4.338811,-6.20204 -3.393944,-4.792058 -4.856299,-4.954705 -5.148149,-5.021391 -0.234733,-0.0336 -2.210348,-1.290921 -2.422248,-1.054616 -0.819704,-0.32515 5.823028,10.020307 10.763294,14.999007 1.178996,1.18818 3.668248,1.12689 3.721494,0.77019 0.548023,-0.24655 0.834122,0.45675 5.487131,3.23389 3.502037,2.08357 4.772226,2.9233 5.03157,3.35612 0.208394,0.30051 0.300111,0.89251 0.226433,1.286 -0.08452,0.4128 -0.199394,0.83371 -0.285031,0.93804 z m 7.331156,-13.16044 c -0.243232,0.4234 -0.594582,0.68133 -1.125381,0.8095 l -0.760637,0.17443 -7.767191,-4.430336 -7.7863,-4.441421 -2.452326,-3.424523 c -1.353373,-1.888783 -2.424119,-3.562131 -2.403854,-3.730014 0.04225,-0.206394 2.43762,1.106634 11.047977,6.103261 9.257941,5.372444 11.026483,6.45004 11.33999,6.965523 0.216353,0.33083 0.347269,0.76611 0.335069,0.96427 -0.04224,0.2064 -0.228393,0.6629 -0.427319,1.00931 z M 48.671626,89.716844 c -0.110477,0.192474 -0.374629,0.475406 -0.572463,0.642917 -0.216833,0.156355 -0.682531,0.347989 -1.032712,0.427039 -0.610082,0.133475 -0.944979,-0.0352 -7.035825,-3.49275 l -7.445638,-4.243754 c 0.121548,-2.519059 -1.357939,-6.128077 -1.405353,-5.894852 l 10.868301,6.228741 c 4.38139,2.542515 6.29128,3.727799 6.534629,4.099971 0.208433,0.300591 0.363348,0.826691 0.349909,1.203796 -0.0244,0.396308 -0.131276,0.84753 -0.260912,1.028868 z"
     style="fill:#5dd795;stroke-width:0.0208568"
     sodipodi:nodetypes="cccccssccsccccccccscccccccccscscccccscccccccccccccscccsccccccccsscc" />
  <g
     id="g2"
     style="fill:#5dd795"
     transform="matrix(-0.77809825,0.77809833,-0.77809833,-0.77809825,164.94696,59.326944)">
    <path
       id="rect1-1"
       style="fill:#5dd795;stroke-width:0.448659"
       d="m 54.153448,-9.2608171 -7.938017,1.3234334 c -10.017116,6.6615312 -9.853535,25.2569327 -3.88245,52.9161477 2.831417,1.439149 9.28165,2.330867 17.111616,5.16e-4 -7.528037,-9.220058 -10.103603,-17.197499 0.0863,-25.135932 h 0.0863 0.70745 c 0.002,0.661455 0.268575,1.322917 0.79375,1.322917 h 2.381767 l -5.17e-4,27.781765 -2.322339,-5.17e-4 c -0.789285,0 -0.778,3.963133 -0.0015,3.96875 h 2.323889 L 62.858342,68.868777 60.85438,124.69277 v 8.30595 c -1.033978,-0.179 -2.050435,0.39369 -3.023121,0.69297 0.580045,0.88549 1.032557,1.73908 1.907944,1.86917 2.090792,0.96626 8.484752,2.356 15.52773,1.15951 -1.001398,-1.75766 -1.271239,-2.25094 -3.059245,-2.84118 l -0.728121,-8.25273 0.639191,-56.757683 C 71.746243,61.07805 71.653812,58.048755 71.437663,52.916263 h 2.322339 c 0.778037,0 0.789846,-3.96875 0,-3.96875 H 71.437663 V 21.166265 h 2.380733 c 0.525176,0 0.791757,-0.661462 0.79375,-1.322917 h 0.79375 c 10.189899,7.938433 7.614337,15.915357 0.0863,25.135416 7.591842,2.694087 12.345306,0.739871 17.112133,5.16e-4 5.597892,-25.930514 6.09115,-43.8954202 -2.122868,-51.5286348 -0.547602,-0.508881 -1.13403,-0.9716833 -1.760099,-1.3880289 l -7.9375,-1.3229166 -2.645316,1.3229166 c 0,0 -4.907029,2.3426642 -3.96875,2.6458332 8.73139,2.8212153 8.610232,11.7883931 1.2361,11.9057326 H 74.08298 V 5.2917823 L 73.55433,2.6459491 h -1.8526 L 71.437146,1.9844908 71.702247,1.3225157 h 2.116149 c 1.05035,0 1.066291,-2.6453164 0,-2.6453164 H 61.118397 c -1.066291,0 -1.049834,2.6458332 5.17e-4,2.6458332 h 2.11615 l 0.264583,0.6743774 -0.264583,0.6485392 h -1.851567 l -0.529683,2.6458332 v 1.3223998 h -1.236617 -0.0863 C 52.15677,6.4968426 52.036124,-2.470852 60.767514,-5.2920673 c 0.938279,-0.303169 -3.96875,-2.6458332 -3.96875,-2.6458332 z"
       sodipodi:nodetypes="cccccccscccccccccccccccssccsccccscccscccccccssssccccccccscc" />
  </g>
</svg>
