<?xml version="1.0" encoding="UTF-8" standalone="no"?>
<!-- Created with Inkscape (http://www.inkscape.org/) -->

<svg
   width="512"
   height="512"
   viewBox="0 0 135.46666 135.46667"
   version="1.1"
   id="svg1"
   inkscape:version="1.3 (0e150ed6c4, 2023-07-21)"
   sodipodi:docname="KWD_AIAF_SPEL_Eldritch_BlackBook.svg"
   xml:space="preserve"
   xmlns:inkscape="http://www.inkscape.org/namespaces/inkscape"
   xmlns:sodipodi="http://sodipodi.sourceforge.net/DTD/sodipodi-0.dtd"
   xmlns="http://www.w3.org/2000/svg"
   xmlns:svg="http://www.w3.org/2000/svg"><sodipodi:namedview
     id="namedview1"
     pagecolor="#ffffff"
     bordercolor="#000000"
     borderopacity="0.25"
     inkscape:showpageshadow="2"
     inkscape:pageopacity="0.0"
     inkscape:pagecheckerboard="0"
     inkscape:deskcolor="#d1d1d1"
     inkscape:document-units="px"
     inkscape:zoom="1"
     inkscape:cx="179"
     inkscape:cy="209.5"
     inkscape:window-width="1920"
     inkscape:window-height="1017"
     inkscape:window-x="1042"
     inkscape:window-y="276"
     inkscape:window-maximized="1"
     inkscape:current-layer="svg1" /><defs
     id="defs1" /><path
     id="path1"
     style="fill:#8ea732;stroke-width:6.88676"
     d="M 59.599149,8.5886596e-4 C 34.108381,-0.04648297 10.034184,1.5813565 4.4606855,7.5497128 4.1683118,7.8628104 4.0449604,9.4179767 3.8447055,11.41509 c -0.012067,0.02572 -0.025224,0.0507 -0.037208,0.07648 v 0.301791 C 1.8559678,32.24313 0.60491677,122.15947 2.534198,127.75468 c 0.8379941,2.43032 4.9184995,5.61693 8.503829,6.63935 v 0.002 c 5.372719,1.53211 121.769543,1.3709 122.435303,-0.16949 1.01739,-2.35426 0.63352,-2.83069 -6.135,-7.62945 -0.23692,-0.16805 -0.45824,-0.35929 -0.66146,-0.57257 -0.20327,-0.21332 -0.38811,-0.45133 -0.5581,-0.7028 -2.37982,-3.52083 0.31356,-10.62293 3.8013,-11.15379 C 134.95514,113.40158 135.89668,2.3523494 128.6261,2.8182432 127.48709,2.8912305 92.373003,0.06172696 59.599149,8.5886596e-4 Z M 76.216139,6.9068614 c 2.417663,0.2044109 5.013986,0.7032872 7.131311,1.8562075 0.247159,0.1687872 0.485718,0.3525222 0.717264,0.5457004 2.315516,1.9315397 3.898384,4.9607167 5.663707,6.7054987 1.12143,1.602071 2.794461,5.527371 1.773527,9.144614 -3.619689,1.98855 -7.226175,3.993623 -12.249316,4.177501 -0.0072,0.0015 -0.014,6.17e-4 -0.0208,0.0021 2.382592,1.546326 8.441765,2.827797 10.7073,5.04566 0.151,0.147859 0.285879,0.298206 0.401006,0.454749 0.277439,0.377351 0.402139,0.879213 0.432015,1.438665 1.08111,1.532708 3.976418,2.571731 6.347898,3.22666 0.790493,0.218319 1.522665,0.396582 2.110457,0.533298 1.023592,-0.159779 5.011142,-0.117172 3.720672,-3.354816 -0.31955,-3.753756 1.62254,-6.735322 -3.375476,-9.018525 -3.450915,-2.468806 -3.238601,-11.126066 -0.107481,-10.500596 -1.498744,3.520133 5.935357,11.3517 5.961357,6.050245 0.24653,-2.295545 0.76868,-5.318512 -1.27949,-8.226845 6.32356,1.942953 8.49785,11.436958 3.38581,15.482179 -1.00954,3.257655 0.1658,6.651677 -0.33071,9.496011 -0.0496,0.284435 -0.11568,0.564396 -0.20256,0.837155 -0.32592,1.022855 -0.94097,1.959386 -2.04844,2.77191 -0.36916,0.270838 -0.79346,0.526661 -1.2795,0.76894 -3.931666,3.980079 -10.142796,-1.762551 -13.795469,2.005033 0.0048,0.166239 0.0164,0.331358 0.0164,0.498161 0,0.728113 -0.0592,1.466493 -0.169479,2.211737 -0.05512,0.372638 -0.121719,0.747052 -0.202559,1.122406 1.740619,-0.367998 23.332357,9.692234 23.318357,3.704149 0.66288,-3.708548 3.30454,-6.085908 -0.93225,-9.584894 -2.6943,-3.277843 -0.24563,-11.586477 2.61688,-10.171936 -2.35876,3.01228 2.79706,12.501776 4.19404,7.387622 0.83229,-2.153513 2.11654,-4.94125 0.8909,-8.280586 5.6052,3.513407 5.24898,13.249281 -0.73587,15.833575 -2.90939,4.616544 -0.50738,11.018915 -7.31941,12.404348 l -24.918244,-4.165098 0.04136,-0.10128 c -0.19684,0.340758 -0.390359,0.684484 -0.601514,1.021123 3.769926,4.536352 0.862548,7.413909 16.116758,12.422947 10.63451,5.341716 9.17851,22.362132 2.92487,26.499539 -0.22232,0.147318 -0.36932,0.271718 -0.45888,0.345197 -0.0899,0.07384 -0.12065,0.09592 -0.10545,0.04136 0.0312,-0.109199 0.24617,-0.527137 0.53331,-1.473804 0.73313,-3.634493 1.4395,-8.783958 -0.5395,-13.082336 -0.19792,-0.429833 -0.42375,-0.850396 -0.678,-1.260902 -1.27119,-2.052509 -3.2801,-3.832756 -6.358226,-5.047725 -8.143974,-3.214519 -13.831601,-6.751746 -17.46861,-11.104175 -2.223192,2.117645 -2.318776,3.747865 -4.673592,5.027058 0,0 0.004,0.0052 0.006,0.0084 -0.0244,0.01239 -0.04919,0.0284 -0.0744,0.04136 10.657696,5.063635 -4.573808,41.972728 17.080003,29.515368 5.455444,-7.520133 -2.76461,-19.992 -7.288406,-10.318707 -1.461961,-3.018032 -0.451026,-11.655108 10.194675,-3.598725 4.105934,3.529714 6.419286,10.968199 0.932239,17.509962 -1.424465,1.64379 -6.123477,4.02842 -10.858196,3.81989 -5.749294,-0.25323 -11.55076,-4.33284 -11.598199,-18.218948 -0.0028,-0.816828 0.0152,-1.6669 0.05376,-2.552803 0.038,-5.024342 -2.246965,-9.519483 -5.051861,-12.608982 -2.804898,3.089499 -5.09193,7.58464 -5.05393,12.608982 1.222469,28.348981 -19.148789,20.709091 -22.404716,16.951861 -5.48705,-6.541763 -3.173696,-13.980248 0.932239,-17.509962 10.645697,-8.056383 11.656644,0.580693 10.194671,3.598725 -0.141359,-0.302278 -0.286038,-0.581449 -0.434077,-0.841287 -4.589796,-8.055819 -12.139283,3.874868 -6.854329,11.159994 20.570713,10.65752 7.655705,-22.30796 15.219665,-29.037877 -2.074737,-1.22983 -4.068543,-3.043909 -5.85181,-5.227561 -3.646669,4.203378 -9.252071,7.643748 -17.191625,10.777579 -9.850005,3.887905 -8.750814,13.577834 -7.577792,19.393032 0.143583,0.473337 0.268142,0.81318 0.361734,1.050058 0.09359,0.23692 0.155603,0.369159 0.171563,0.423746 0.03193,0.109199 -0.117827,-0.09184 -0.562237,-0.386517 -6.253218,-4.137617 -7.711278,-21.160096 2.923224,-26.501808 15.821996,-5.195473 12.107451,-8.09897 16.569444,-12.937641 L 27.049413,61.472788 C 20.23732,60.087315 22.637274,53.687016 19.727891,49.070476 13.743052,46.486182 13.388878,36.748241 18.994089,33.234833 c -1.225646,3.339336 0.05658,6.127068 0.88883,8.280587 1.396975,5.114145 6.554872,-4.375343 4.196105,-7.387623 2.862513,-1.41454 5.309127,6.894093 2.614813,10.171936 -4.236779,3.498986 -1.59096,5.876342 -0.928103,9.584894 -0.0132,5.39984 17.153442,-1.769118 21.811474,-2.964144 -0.240399,-1.376442 -0.38447,-2.743398 -0.38447,-4.074148 -3.687225,-2.591549 -8.873042,1.362454 -12.691666,-2.503194 -6.221355,-3.101329 -2.245847,-8.659702 -3.861243,-13.871949 -5.112051,-4.045221 -2.937732,-13.541292 3.385822,-15.484246 -2.048163,2.908333 -1.528086,5.931306 -1.281568,8.226846 0.02574,5.301457 7.462191,-2.530112 5.963429,-6.050246 3.131066,-0.625469 3.343396,8.031789 -0.107487,10.500596 -4.998017,2.283204 -3.055957,5.264768 -3.375487,9.018525 -1.290671,3.237672 2.697083,3.19503 3.720684,3.354816 0.581789,-0.135362 1.303888,-0.309935 2.085652,-0.52503 0.781756,-0.215093 1.62348,-0.470396 2.437047,-0.773075 1.627135,-0.605355 3.1489,-1.394991 3.894316,-2.397774 0.04652,-0.613346 0.188679,-1.160278 0.473354,-1.502743 1.367497,-1.645046 7.117422,-3.425794 8.815954,-4.667391 l -0.08476,0.04341 c -3.50221,-1.102326 -11.797114,-2.347283 -9.374047,-9.148747 2.323823,-7.301647 8.535268,-9.154293 9.032993,-13.0678693 3.623285,-1.4044799 14.811799,-0.2273749 5.490075,1.9947004 -1.925601,0.3712819 -3.172155,1.3823779 -3.776492,2.5528019 -0.120879,0.234091 -0.217719,0.472224 -0.287319,0.715198 -0.69614,2.429838 1.157922,5.112907 5.293709,4.202306 0.769756,-2.211551 3.282531,1.384972 5.184153,0.892964 -4.096323,6.616498 -16.590242,-5.555898 -16.187044,3.95426 5.177973,2.988729 11.937963,6.548213 17.216551,1.819284 4.884658,4.182575 9.18624,1.378033 14.787531,0.719059 1.575316,-0.688607 3.163807,-1.479568 4.754207,-2.292354 0.301559,-3.302502 -0.900171,-4.180168 -2.773977,-4.084484 -8.290129,0.423691 -8.510205,2.201836 -12.191437,1.153413 -1.416509,-1.04232 -1.651248,-2.545159 -0.09716,-2.385371 3.65303,0.37561 12.567131,-0.531436 7.920919,-5.531417 -1.628219,-3.1702675 -7.443489,-3.9255328 -7.842371,2.465987 -0.185839,0.355122 -0.415945,0.667379 -0.696596,0.954975 -0.270599,0.277267 -0.574821,0.514062 -0.903299,0.711064 -0.21904,0.131351 -0.450062,0.246379 -0.686261,0.34313 -5.140789,1.518963 -6.464947,-1.218554 -5.2937,-3.431309 0.67044,-1.266639 2.380247,-2.115921 4.098954,-2.517663 3.023684,-1.2225824 3.852512,-3.2231296 5.979965,-3.3279446 z m -6.765445,4.9671126 c -3.335515,1.28e-4 -1.616383,4.174174 1.703247,3.158447 0.654941,-0.200394 4.101187,-1.350679 -0.504361,-3.022021 -0.455678,-0.09445 -0.853848,-0.13644 -1.198886,-0.136426 z M 120.74133,113.93554 c -1.45555,4.14138 -1.84167,9.5215 0.38049,13.94782 2.18673,4.35576 -102.618886,3.86922 -107.156875,0.29921 -5.490268,-4.31922 -4.6784395,-12.80519 3.3383,-13.02448 52.04543,-1.42354 79.445744,-0.54 103.411215,-1.21842 z"
     sodipodi:nodetypes="sccccsccccsccssccccccccccscccccccscsccssccccccccccccccccsssccccccccccccccccccccscssccccccccccccccccccccsscccccccscccccccscccccscsccsscscssccc" /></svg>
