<?xml version="1.0" encoding="UTF-8" standalone="no"?>
<!-- Created with Inkscape (http://www.inkscape.org/) -->

<svg
   width="512"
   height="512"
   viewBox="0 0 135.46666 135.46667"
   version="1.1"
   id="svg1"
   inkscape:version="1.3 (0e150ed6c4, 2023-07-21)"
   sodipodi:docname="KWD_AIAF_SPEL_Necromancy_SummonEquipmentBow.svg"
   xmlns:inkscape="http://www.inkscape.org/namespaces/inkscape"
   xmlns:sodipodi="http://sodipodi.sourceforge.net/DTD/sodipodi-0.dtd"
   xmlns="http://www.w3.org/2000/svg"
   xmlns:svg="http://www.w3.org/2000/svg">
  <sodipodi:namedview
     id="namedview1"
     pagecolor="#ffffff"
     bordercolor="#000000"
     borderopacity="0.25"
     inkscape:showpageshadow="2"
     inkscape:pageopacity="0.0"
     inkscape:pagecheckerboard="0"
     inkscape:deskcolor="#d1d1d1"
     inkscape:document-units="px"
     showgrid="true"
     inkscape:zoom="1.4984147"
     inkscape:cx="362.38299"
     inkscape:cy="121.79539"
     inkscape:window-width="1920"
     inkscape:window-height="1017"
     inkscape:window-x="1042"
     inkscape:window-y="276"
     inkscape:window-maximized="1"
     inkscape:current-layer="svg1">
    <inkscape:grid
       id="grid1"
       units="px"
       originx="0"
       originy="0"
       spacingx="0.26458332"
       spacingy="0.26458334"
       empcolor="#0099e5"
       empopacity="0.30196078"
       color="#0099e5"
       opacity="0.14901961"
       empspacing="5"
       dotted="false"
       gridanglex="30"
       gridanglez="30"
       visible="true" />
  </sodipodi:namedview>
  <defs
     id="defs1">
    <inkscape:path-effect
       effect="fillet_chamfer"
       id="path-effect1"
       is_visible="true"
       lpeversion="1"
       nodesatellites_param="F,0,0,1,0,0,0,1 @ F,0,0,1,0,0,0,1 @ F,0,0,1,0,0,0,1 @ F,0,0,1,0,0,0,1 @ F,0,0,1,0,0,0,1 @ F,0,0,1,0,0,0,1 @ F,0,0,1,0,0,0,1 @ F,0,0,1,0,0,0,1 @ F,0,0,1,0,0,0,1"
       radius="0"
       unit="px"
       method="auto"
       mode="F"
       chamfer_steps="1"
       flexible="false"
       use_knot_distance="true"
       apply_no_radius="true"
       apply_with_radius="true"
       only_selected="false"
       hide_knots="false" />
  </defs>
  <path
     id="path1"
     d="m 94.417091,3.5037943 c 0.267163,-0.4650144 0.472252,-0.6278066 1.015227,-0.7636362 l 0.683354,-0.1859562 3.717604,2.2700562 c 2.046034,1.2624425 7.232224,4.2906916 7.204394,4.3122514 -0.57746,0.4470125 -0.57447,2.4698855 -0.42931,3.0201935 0.0512,0.194074 -3.42064,-1.87229 -6.5452,-3.6854755 L 94.372028,5.1686267 94.239647,4.6220504 C 94.120303,4.2146226 94.174176,3.9264921 94.417039,3.5036977 Z m 6.648379,-2.79957367 c 0.0485,-0.0845243 0.21769,-0.24948138 0.36247,-0.37206135 0.15874,-0.11458489 0.49976,-0.25484141 0.75618,-0.31276338 0.44675,-0.09770427 0.66411,0.0089035 5.58799,2.8669733 3.9336,2.2826816 5.20657,3.077737 5.54993,3.4836946 0.25026,0.276699 9.78827,13.8157832 9.9166,14.0781172 0.13414,0.284489 3.93501,5.712126 4.1241,6.160017 0.18894,0.447957 0.62247,1.150409 0.95195,1.548243 0.54585,0.636192 1.00395,0.939625 3.75185,2.534211 1.71572,0.995651 3.28069,1.907263 3.38196,2.022413 v 9.043568 l -11.37773,-4.658075 c -6.69898,-3.94388 -6.78268,-3.992444 -7.48925,-4.834588 -0.3969,-0.474614 -0.95588,-1.249866 -1.25879,-1.726274 -0.28076,-0.482576 -0.73685,-1.404635 -0.98443,-2.074396 -0.25558,-0.65569 -0.54844,-1.765021 -0.65569,-2.484863 -0.10158,-0.697639 -0.17591,-1.83064 -0.14956,-2.49175 0.59708,-3.228103 0.59551,-1.8012 0.50797,-2.117497 -0.1395,-0.503503 -0.65691,-2.504684 -2.92025,-4.764797 -1.04441,-1.042962 -1.65212,-1.675226 -2.31011,-3.857004 -0.0503,-0.235976 -0.26416,-2.126302 -0.11017,-2.394079 0.20225,-0.352256 0.45965,-0.5411742 0.9226,-0.6671066 0.36662,-0.087812 0.79262,-0.084968 0.98793,0.028436 0.19519,0.1132807 1.09604,1.6239856 3.17709,4.5414336 2.48518,3.508963 3.556,3.628044 3.76971,3.676873 0.17177,0.02428 1.61853,0.945286 1.77368,0.772242 0.60023,0.238108 -4.26389,-7.337306 -7.88137,-10.9829366 -0.8633,-0.8700685 -2.68604,-0.8251946 -2.72504,-0.5639808 -0.4013,0.1804479 -0.61077,-0.3344735 -4.01792,-2.3680158 -2.56437,-1.5256968 -3.49445,-2.1405729 -3.68434,-2.4575062 -0.15255,-0.2200461 -0.21977,-0.6535368 -0.16582,-0.9416653 0.0618,-0.302268 0.14602,-0.61048409 0.20877,-0.68688705 z M 95.697292,10.340907 c 0.177975,-0.310043 0.435369,-0.4989128 0.824028,-0.5927471 l 0.556983,-0.1277589 5.687507,3.244106 5.70147,3.252206 1.79572,2.507604 c 0.99101,1.383039 1.77505,2.608355 1.7602,2.731277 -0.0304,0.151041 -1.78493,-0.810336 -8.08983,-4.469072 -6.779102,-3.933956 -8.074113,-4.723017 -8.303666,-5.100502 -0.158459,-0.242255 -0.254366,-0.560952 -0.245206,-0.706072 0.03119,-0.151039 0.167337,-0.485411 0.312878,-0.739069 z m 4.114664,9.204599 c 0.08087,-0.140941 0.274244,-0.34811 0.419174,-0.470765 0.15874,-0.114586 0.49977,-0.254814 0.75621,-0.312694 0.4467,-0.09771 0.69194,0.02576 5.15196,2.557547 l 5.45202,3.107466 c -0.0889,1.844556 0.99435,4.487248 1.02906,4.316489 l -7.95826,-4.560976 c -3.20824,-1.861752 -4.60675,-2.729672 -4.78495,-3.002192 -0.152527,-0.220105 -0.265935,-0.605349 -0.256176,-0.881469 0.018,-0.290205 0.09626,-0.620603 0.191014,-0.753382 z"
     style="fill:#5dd795;stroke-width:0.0152723"
     sodipodi:nodetypes="cccccssccsccccccccscccccccccscscccccscccccccccccccscccsccccccccsscc" />
  <path
     id="path2"
     d="m 77.275199,128.86805 c -0.502673,0.87502 -0.888636,1.18137 -1.910415,1.43701 l -1.285937,0.34993 -6.995834,-4.27183 c -3.850252,-2.3757 -13.609665,-8.0743 -13.557288,-8.11486 1.086675,-0.84116 1.081051,-4.64781 0.807824,-5.68344 -0.09634,-0.36522 6.437005,3.52335 12.316837,6.93537 l 10.70959,6.21485 0.249366,1.02858 c 0.22433,0.76671 0.123265,1.30891 -0.333914,2.1045 z m -12.510951,5.26821 c -0.09115,0.15905 -0.409485,0.46952 -0.682145,0.70016 -0.29896,0.21565 -0.94045,0.4796 -1.423001,0.58855 -0.840647,0.18385 -1.249664,-0.0164 -10.515475,-5.39509 -7.402293,-4.29553 -9.797759,-5.7917 -10.443917,-6.55562 C 41.228826,122.9535 23.280072,97.475579 23.038583,96.981917 22.786374,96.446573 15.633594,86.232837 15.27781,85.389955 14.922167,84.547028 14.106405,83.225105 13.486462,82.476496 12.459252,81.279305 11.597206,80.708305 6.4262074,77.707556 3.1975506,75.833975 0.25255798,74.118457 0.06198407,73.901762 V 56.88351 L 21.472666,65.649116 c 12.606261,7.42162 12.763727,7.513009 14.093399,9.097763 0.746899,0.893127 1.798763,2.352002 2.368784,3.24851 0.528032,0.908118 1.386584,2.643263 1.85251,3.903625 0.481227,1.233878 1.032073,3.321427 1.233889,4.67607 0.190816,1.312828 0.331076,3.44487 0.281483,4.688956 -1.123605,6.074666 -1.120677,3.389513 -0.95594,3.984762 0.262125,0.947453 1.236159,4.713297 5.495376,8.966438 1.965389,1.96261 3.108977,3.15241 4.347115,7.25809 0.09495,0.44411 0.497048,4.00133 0.20733,4.50523 -0.380669,0.66284 -0.864971,1.01837 -1.736086,1.25534 -0.689892,0.16524 -1.491625,0.15985 -1.859168,-0.0537 -0.36743,-0.21322 -2.062451,-3.05603 -5.978634,-8.54607 -4.676672,-6.60321 -6.691702,-6.82731 -7.093867,-6.91918 -0.323527,-0.0458 -3.045735,-1.778857 -3.337712,-1.45322 -1.12951,-0.448028 8.023799,13.80742 14.831229,20.66779 1.624578,1.63727 5.054671,1.55283 5.128017,1.06132 0.755163,-0.3396 1.149394,0.62937 7.560991,4.45611 4.825605,2.87107 6.575858,4.02814 6.933203,4.62454 0.287162,0.41414 0.413265,1.22985 0.312198,1.77204 -0.116665,0.56882 -0.274884,1.14882 -0.392948,1.29259 z m 10.101926,-18.13434 c -0.335355,0.58338 -0.819301,0.93881 -1.550708,1.11543 l -1.048132,0.24045 -10.702745,-6.10478 -10.729096,-6.12004 -3.379179,-4.71883 c -1.864885,-2.602604 -3.340308,-4.908415 -3.312396,-5.139732 0.05812,-0.284242 3.358918,1.524896 15.223525,8.409962 12.756922,7.40292 15.193908,8.88782 15.625874,9.59814 0.29804,0.45586 0.478541,1.05565 0.461914,1.3287 -0.05812,0.28423 -0.314557,0.91343 -0.58882,1.39078 z M 67.12316,98.680582 c -0.1521,0.265244 -0.516227,0.655113 -0.788839,0.885934 -0.298959,0.215651 -0.940493,0.479484 -1.422997,0.588434 -0.840699,0.18386 -1.302137,-0.0483 -9.694993,-4.812817 L 44.956609,89.494445 C 45.124267,86.023334 43.085444,81.0503 43.020125,81.371684 l 14.975941,8.582871 c 6.037296,3.503415 8.669054,5.136677 9.004342,5.649507 0.287162,0.414208 0.500689,1.139147 0.482176,1.65879 -0.03321,0.546087 -0.180896,1.167819 -0.359432,1.41773 z"
     style="fill:#5dd795;stroke-width:0.0287396"
     sodipodi:nodetypes="cccccssccsccccccccscccccccccscscccccscccccccccccccscccsccccccccsscc" />
  <g
     id="g5"
     transform="matrix(0.18893749,-0.18913078,0.18904315,0.18902507,-33.72737,73.295451)"
     style="display:inline;fill:#5dd795">
    <path
       id="rect2"
       style="fill:#5dd795;stroke-width:0.849279"
       d="m 308.60268,-78.936135 -7.00357,-5.002558 -38.0236,20.21061 -0.001,-3.229551 19.0121,-10.977989 -1.0005,-10.005117 c -11.8291,5.687589 -23.78223,11.181274 -34.19152,19.0954 -5.56806,12.620985 -4.63243,27.541927 0.001,43.772383 v 0 557.685727 0 c -4.63381,16.23045 -5.56944,31.15139 -0.001,43.77238 10.40929,7.91413 22.36242,13.40781 34.19152,19.0954 l 1.0005,-10.00512 -19.01248,-10.97798 10e-4,-3.22956 38.02398,20.21061 7.00357,-5.00256 -45.02717,-26.75816 v -13.26645 c 47.16516,-39.43741 83.18205,-94.28188 139.11534,-126.66421 l 4.43288,18.13665 c 6.51803,-22.795 9.95064,-23.92773 30.39859,-30.39857 l 26.87411,9.50637 2.12679,1.59059 c 3.8457,-5.17277 6.17135,-5.62655 8.85811,-11.32347 -0.19211,-0.17263 -3.70064,-3.36669 -3.85579,-3.11509 -10.5858,16.45475 -39.48655,-18.14422 -41.33858,-20.57934 1.32831,-4.25543 2.31742,-6.06247 6.11362,-7.81893 13.38104,7.07239 45.79406,6.69945 37.056,25.17148 -0.16426,0.29486 3.56729,3.04706 3.81573,3.11371 4.0952,-5.93235 3.46022,-8.30726 6.53925,-14.96069 L 478.708,376.34502 456.77476,363.25758 c -8.40493,-5.06143 0.10398,-30.10032 1.92163,-46.95017 l -5.00394,10e-4 c -7.00431,9.00555 -15.99009,5.24997 -15.00906,-10.0065 h 35.02344 c 13.06386,-7.03809 -0.13635,-23.34974 -10.00651,-10.00649 -0.98712,0.63287 -2.50714,1.29401 -4.97629,2.0024 l -3.45481,0.0304 c -1.87819,-3.34808 -7.35617,-3.46741 -8.28324,-17.04187 -0.82305,-12.05141 2.85177,-15.25786 3.58609,-30.01949 0.24125,-4.84975 -4.12779,-23.70929 -3.58609,-30.01674 0.66062,-7.692 6.29034,-3.11546 7.17494,-12.0089 h 4.56311 c 2.46915,0.70839 3.98778,1.36815 4.97491,2.00103 9.87016,13.34323 23.07037,-2.96841 10.00651,-10.00651 l -35.02206,0.001 c -0.98103,-15.25648 8.00475,-19.01205 15.00906,-10.0065 l 5.00394,0.001 c -1.81765,-16.84986 -10.32656,-41.88874 -1.92163,-46.95017 l 21.93462,-13.08881 5.00256,-12.76382 c -3.07903,-6.65344 -2.44543,-9.02972 -6.54064,-14.96207 -0.24844,0.0666 -3.9786,2.82022 -3.81434,3.11508 9.14052,16.59925 -24.41632,20.37346 -37.056,25.17148 -4.11299,-1.17646 -4.52234,-4.12827 -6.11362,-7.81891 8.74163,-10.75278 28.81979,-33.223154 41.33996,-20.58073 0.15516,0.25159 3.6623,-2.94107 3.85441,-3.11371 -2.68676,-5.696928 -5.01241,-6.150708 -8.85811,-11.323469 l -2.12679,1.590593 -26.87411,9.506366 C 413.88837,96.389146 415.32937,87.593026 407.12411,66.532196 l -4.43288,21.218975 C 346.75753,55.370344 310.74071,0.5258922 263.57551,-38.911525 v -13.266452 z m -45.02817,11.978501 0.001,3.229551 v 0 z m 0.001,14.779657 v 13.266452 c -0.67546,-0.549553 0.68236,0.544729 0,0 -1.21705,-4.664312 -1.44711,-9.131176 0,-13.266452 z m 5.00256,48.2871221 140.08682,140.0868249 0.1534,5.00394 -0.1534,5.00395 5.00257,5.00255 10e-4,35.02206 c -1.85645,9.97296 -8.04077,13.11154 -15.00906,15.00905 h -35.02343 l 0.001,9.00599 4.96248,-1.0019 17.40255,0.001 c 8.10339,8.15729 17.93603,18.0102 13.99195,36.01151 -2.02289,9.23285 3.65764,25.16504 0.35654,37.03275 -2.3609,8.48768 -7.7267,14.80441 -14.05552,16.66736 l -17.67893,0.15892 -4.97907,-0.81671 -0.001,8.00547 h 35.02343 c 6.96898,1.89747 13.15246,5.0353 15.00906,15.00906 l -10e-4,35.02205 -5.00257,5.00256 0.1534,5.00393 -0.15201,5.00295 -140.08821,140.08821 z M 263.57551,546.45133 v 13.26645 0 c -1.44711,-4.13527 -1.21705,-8.60213 0,-13.26645 0.68237,-0.54473 -0.67547,0.54957 0,0 z m -3.8e-4,24.81656 -10e-4,3.22956 v 0 z"
       sodipodi:nodetypes="cccccccccccccccccccccccccccccccccccccccccssscccccccccccccccccccccccccccccccccccccccccccccsscccccccccccccccccccc" />
  </g>
</svg>
