<?xml version="1.0" encoding="UTF-8" standalone="no"?>
<!-- Created with Inkscape (http://www.inkscape.org/) -->

<svg
   width="512"
   height="512"
   viewBox="0 0 135.46666 135.46666"
   version="1.1"
   id="svg1"
   inkscape:version="1.3 (0e150ed6c4, 2023-07-21)"
   sodipodi:docname="KWD_AIAF_SPEL_NecroticFire_DamageNecroticFire.svg"
   xmlns:inkscape="http://www.inkscape.org/namespaces/inkscape"
   xmlns:sodipodi="http://sodipodi.sourceforge.net/DTD/sodipodi-0.dtd"
   xmlns="http://www.w3.org/2000/svg"
   xmlns:svg="http://www.w3.org/2000/svg">
  <sodipodi:namedview
     id="namedview1"
     pagecolor="#ffffff"
     bordercolor="#000000"
     borderopacity="0.25"
     inkscape:showpageshadow="2"
     inkscape:pageopacity="0.0"
     inkscape:pagecheckerboard="0"
     inkscape:deskcolor="#d1d1d1"
     inkscape:document-units="px"
     inkscape:zoom="0.74920735"
     inkscape:cx="219.56538"
     inkscape:cy="226.2391"
     inkscape:window-width="1920"
     inkscape:window-height="1017"
     inkscape:window-x="1042"
     inkscape:window-y="276"
     inkscape:window-maximized="1"
     inkscape:current-layer="svg1" />
  <defs
     id="defs1" />
  <path
     id="path3"
     style="display:inline;fill:#5dd795;stroke-width:9.36095"
     d="M 84.428961,2.9984715e-4 C 82.926318,0.03984129 81.309263,2.6935404 80.846833,8.2724798 80.053398,17.840073 81.04262,14.050554 76.406891,12.17293 64.242588,7.2459865 50.552536,6.6227039 57.911273,14.279215 66.020041,17.850324 70.10733,27.377979 64.745325,36.204267 54.474733,44.979239 62.458012,34.717784 62.070105,25.5775 58.112541,19.617332 26.941032,56.772142 32.780936,69.361051 c 2.701173,9.374588 -3.172175,16.037501 -7.59793,22.38236 -4.686893,12.135829 -3.240138,28.395019 7.869003,34.992389 20.021259,11.89 63.36249,14.38862 77.622491,-10.24202 4.85732,-8.38981 0.2206,-19.105516 -2.35891,-33.525783 -3.84052,-39.506996 9.34964,-63.52469 -4.93129,-42.313438 -1.91814,2.848989 1.02397,21.817272 -7.004139,24.27597 -6.067334,-3.582957 5.658069,-4.481468 1.457503,-39.534927 C 96.924292,17.773587 89.283498,9.8587317 87.318645,7.4105361 84.059189,3.3492757 85.931604,-0.0392416 84.428961,2.9984715e-4 Z M 84.304924,14.502452 c 3.247596,-0.550341 9.232551,9.843069 9.449395,18.447446 -8.165747,13.173324 -9.792572,-10.36124 -10.195586,-17.01294 0.012,-0.910834 0.282234,-1.355883 0.746191,-1.434506 z m -9.107254,5.688415 c 1.235621,-0.263374 2.915287,2.285086 5.351493,7.726489 5.195417,11.604314 0.939819,18.76455 -22.249311,37.43978 C 51.25798,71.02821 44.633867,76.334841 43.580662,77.149435 40.846606,79.263811 39.289789,69.97427 41.238738,63.178504 42.361734,58.899383 53.71659,33.54639 52.272446,50.086054 c -0.786419,4.190292 -0.546952,6.298185 0.715184,6.298185 1.043373,0 1.897518,-1.061529 1.897518,-2.358461 0,-1.296927 2.688544,-4.408962 5.975732,-6.916222 7.01098,-5.347533 10.568505,-11.585918 12.112687,-21.242675 0.570079,-3.565133 1.263064,-5.471166 2.224103,-5.676014 z m 18.301319,19.545661 c 1.392133,-0.01352 2.354243,0.935195 2.356395,2.509352 0.0088,6.408569 -9.609335,25.236233 -14.936225,27.61114 -80.89821339,30.92457 5.886377,93.06787 10.9965,17.092117 L 91.694504,81.32273 c 1.477535,-5.887009 6.356283,-5.127902 9.369756,6.03981 4.6581,17.26266 -8.217497,36.78006 -23.56599,41.04257 C 41.67129,138.35483 24.831929,100.60361 53.843391,76.231683 58.455813,72.356909 66.339254,65.426398 71.361311,60.83038 76.322781,57.14409 88.541034,40.629004 93.499005,39.736528 Z M 83.022521,95.630198 C 74.3448,137.06831 37.825067,103.75237 68.461543,83.417419 c 5.445019,-3.61414 16.060012,5.054513 14.560978,12.212779 z"
     sodipodi:nodetypes="scscccccsscscssssccsscccccsssssssccccsccsssss" />
</svg>
