<?xml version="1.0" encoding="UTF-8" standalone="no"?>
<!-- Created with Inkscape (http://www.inkscape.org/) -->

<svg
   width="512"
   height="512"
   viewBox="0 0 135.46666 135.46667"
   version="1.1"
   id="svg1"
   inkscape:version="1.3 (0e150ed6c4, 2023-07-21)"
   sodipodi:docname="KWD_AIAF_SPEL_Necromancy_SummonEquipmentShield.svg"
   xmlns:inkscape="http://www.inkscape.org/namespaces/inkscape"
   xmlns:sodipodi="http://sodipodi.sourceforge.net/DTD/sodipodi-0.dtd"
   xmlns="http://www.w3.org/2000/svg"
   xmlns:svg="http://www.w3.org/2000/svg">
  <sodipodi:namedview
     id="namedview1"
     pagecolor="#ffffff"
     bordercolor="#000000"
     borderopacity="0.25"
     inkscape:showpageshadow="2"
     inkscape:pageopacity="0.0"
     inkscape:pagecheckerboard="0"
     inkscape:deskcolor="#d1d1d1"
     inkscape:document-units="px"
     showgrid="true"
     inkscape:zoom="1"
     inkscape:cx="236"
     inkscape:cy="184.5"
     inkscape:window-width="1920"
     inkscape:window-height="1017"
     inkscape:window-x="1042"
     inkscape:window-y="276"
     inkscape:window-maximized="1"
     inkscape:current-layer="svg1">
    <inkscape:grid
       id="grid1"
       units="px"
       originx="0"
       originy="0"
       spacingx="0.26458332"
       spacingy="0.26458334"
       empcolor="#0099e5"
       empopacity="0.30196078"
       color="#0099e5"
       opacity="0.14901961"
       empspacing="5"
       dotted="false"
       gridanglex="30"
       gridanglez="30"
       visible="true" />
  </sodipodi:namedview>
  <defs
     id="defs1">
    <inkscape:path-effect
       effect="fillet_chamfer"
       id="path-effect1"
       is_visible="true"
       lpeversion="1"
       nodesatellites_param="F,0,0,1,0,0,0,1 @ F,0,0,1,0,0,0,1 @ F,0,0,1,0,0,0,1 @ F,0,0,1,0,0,0,1 @ F,0,0,1,0,0,0,1 @ F,0,0,1,0,0,0,1 @ F,0,0,1,0,0,0,1 @ F,0,0,1,0,0,0,1 @ F,0,0,1,0,0,0,1"
       radius="0"
       unit="px"
       method="auto"
       mode="F"
       chamfer_steps="1"
       flexible="false"
       use_knot_distance="true"
       apply_no_radius="true"
       apply_with_radius="true"
       only_selected="false"
       hide_knots="false" />
  </defs>
  <path
     id="path1"
     d="m 71.307183,129.77023 c 0.417671,0.72981 0.738419,0.98533 1.587455,1.19852 l 1.068544,0.29178 5.813108,-3.56286 c 3.199312,-1.98139 11.308792,-6.7342 11.265264,-6.76804 -0.902956,-0.70157 -0.898268,-3.87646 -0.67124,-4.74017 0.08008,-0.30461 -5.34878,2.93856 -10.234524,5.78433 l -8.899039,5.18339 -0.207041,0.85785 c -0.1866,0.63946 -0.10236,1.09168 0.277441,1.75523 z m 10.395859,4.3939 c 0.07588,0.13265 0.34036,0.39158 0.566812,0.58394 0.24828,0.17979 0.781472,0.40001 1.182412,0.49088 0.698568,0.15341 1.038412,-0.0154 8.737752,-4.4997 6.150823,-3.58263 8.141342,-4.83048 8.678232,-5.4676 0.39124,-0.43431 15.30558,-21.6838 15.50625,-22.09552 0.20968,-0.44647 6.15308,-8.965115 6.44875,-9.668101 0.29564,-0.703041 0.97335,-1.805545 1.4885,-2.429934 0.85354,-0.998498 1.56985,-1.474732 5.86664,-3.977425 2.68282,-1.562665 5.1299,-2.993438 5.28827,-3.174173 V 69.732682 l -17.79098,7.310809 c -10.47501,6.189893 -10.60588,6.266113 -11.71072,7.587861 -0.62065,0.744889 -1.49468,1.961645 -1.96833,2.70938 -0.43879,0.757379 -1.15216,2.20455 -1.53932,3.255731 -0.39989,1.029101 -0.8576,2.77019 -1.02529,3.899992 -0.15859,1.094952 -0.27508,2.873155 -0.23388,3.910774 0.93364,5.066471 0.93121,2.826981 0.79429,3.323421 -0.21795,0.79022 -1.02716,3.93105 -4.566296,7.47829 -1.633128,1.63691 -2.583372,2.62925 -3.612204,6.05353 -0.07884,0.37036 -0.412977,3.33722 -0.17244,3.75751 0.31644,0.55284 0.718743,0.84935 1.4426,1.04698 0.573268,0.13787 1.239436,0.13323 1.544848,-0.0446 0.305359,-0.17774 1.71378,-2.54883 4.967882,-7.12773 3.88603,-5.50728 5.56041,-5.69421 5.89457,-5.77085 0.26876,-0.0381 2.53082,-1.4836 2.77345,-1.21201 0.93856,-0.37368 -6.6673,11.51587 -12.323838,17.23765 -1.349913,1.36552 -4.20008,1.29509 -4.261048,0.88514 -0.62748,-0.28333 -0.95506,0.52493 -6.2827,3.71656 -4.009792,2.39456 -5.464148,3.35962 -5.761092,3.85705 -0.2386,0.34535 -0.343639,1.02571 -0.25928,1.47793 0.09676,0.47441 0.22832,0.95814 0.32636,1.07805 z M 73.30895,119.03944 c 0.278481,0.48658 0.680788,0.78301 1.288552,0.93031 l 0.870925,0.20047 8.893335,-5.09158 8.915232,-5.10433 2.807883,-3.93563 c 1.549596,-2.1707 2.775593,-4.09381 2.752385,-4.28674 -0.04836,-0.2372 -2.791044,1.2718 -12.649804,7.01419 -10.600244,6.17431 -12.625204,7.41273 -12.984163,8.00517 -0.24772,0.3802 -0.397601,0.88044 -0.38364,1.10817 0.04836,0.23721 0.261519,0.76185 0.489275,1.15996 z m 6.433988,-14.44656 c 0.12652,0.22114 0.428944,0.54637 0.655461,0.73888 0.248279,0.17971 0.781491,0.39993 1.182447,0.49077 0.698536,0.1534 1.081988,-0.0401 8.05594,-4.01405 l 8.525171,-4.877153 c -0.139159,-2.895037 1.554824,-7.042719 1.609112,-6.774683 l -12.444083,7.158412 c -5.016644,2.921984 -7.20344,4.284184 -7.482075,4.711914 -0.238641,0.34543 -0.416016,0.95006 -0.400645,1.38346 0.028,0.45544 0.15028,0.97402 0.29876,1.18242 z"
     style="fill:#5dd795;stroke-width:0.0239252"
     sodipodi:nodetypes="cccccssccsccccccccscccccccccscscccccscccccccccccccscccsccccccccsscc" />
  <g
     id="shape0"
     transform="matrix(0.92194253,0,0,1.0847793,242.14071,-51.423539)"
     style="fill:#5dd795;stroke:#5dd795">
    <path
       id="path296"
       style="fill:#5dd795;stroke:#5dd795"
       d="m -189.85446,47.540951 c -20.24584,-0.0083 -40.27107,0.358616 -48.78755,0.975115 -0.3,20.132959 3.76606,38.166969 12.20004,54.099934 8.56598,15.76698 21.0012,28.17047 37.26817,37.07045 16.26696,-8.89998 28.70218,-21.30347 37.26816,-37.07045 8.43398,-15.932965 12.50004,-33.966975 12.20004,-54.099934 -8.51648,-0.616499 -28.54171,-0.983415 -48.78754,-0.975115 -0.22891,0 -0.45171,0.0033 -0.68066,0.0034 -0.22895,-1.89e-4 -0.45175,-0.0034 -0.68066,-0.0034 z m 0.68066,4.427643 c 17.86019,-0.01013 35.6512,0.276105 42.31791,0.74732 v 4.000001 c 0.234,15.566969 -2.89994,29.53311 -9.39992,41.900086 -6.66599,12.199979 -20.29955,25.750099 -32.89952,32.650089 -0.006,-0.003 -0.0125,-0.007 -0.0185,-0.01 -0.006,0.003 -0.0124,0.007 -0.0185,0.01 -12.59998,-6.89999 -26.23354,-20.45011 -32.89952,-32.650089 -6.49999,-12.366976 -9.63393,-26.333117 -9.39993,-41.900086 v -4.000001 c 6.66671,-0.471215 24.45772,-0.757454 42.31792,-0.74732 z" />
    <path
       id="path1-5"
       style="fill:#5dd795;stroke:#5dd795"
       d="m -192.30305,106.82389 c -0.237,0 -0.42786,0.19217 -0.42786,0.42917 v 8.21708 l -9.75724,9.75689 c -0.167,0.167 -0.167,0.4379 0,0.6049 l 12.98616,12.98622 c 0.0901,0.0901 0.21015,0.12739 0.32819,0.12022 v -32.11448 z" />
    <path
       d="m -237.046,64.221 c -0.193,0.002 -0.357,-0.152 -0.369,-0.345 l -0.846,-14.958 c -0.01,-0.193 0.137,-0.351 0.33,-0.353 l 14.981,-0.2 c 0.193,-0.003 0.358,0.151 0.369,0.344 l 0.635,11.239 5.008,4.669 c 0.144,0.135 0.156,0.355 0.027,0.493 l -3.378,3.623 c -0.129,0.138 -0.35,0.141 -0.494,0.007 l -5.007,-4.67 z"
       style="fill:#5dd795;stroke:#5dd795"
       id="path2-8" />
    <path
       d="m -190.91,69.58 h 3.684 c 0.233,0 0.421,0.189 0.421,0.421 v 3.108 c 0,0.233 -0.188,0.421 -0.421,0.421 h -3.684 c -0.233,0 -0.421,-0.188 -0.421,-0.421 v -3.108 c 0,-0.232 0.188,-0.421 0.421,-0.421 z"
       style="fill:#5dd795;stroke:#5dd795"
       id="path5" />
    <path
       id="path4-7"
       style="fill:#5dd795;stroke:#5dd795"
       d="m -189.1738,71.373268 c -0.0223,0.01215 -0.0439,0.02705 -0.0624,0.04862 l -7.47562,8.769145 c -0.083,0.097 -0.0851,0.253775 -0.003,0.348775 l 7.30682,8.57236 c 0.0628,0.0737 0.15656,0.08787 0.23436,0.04556 z" />
    <path
       style="fill:#5dd795;stroke:#5dd795"
       d="m -191.069,86.961 3.005,-0.017 c 1.105,0 1.1,-0.099 1.1,0.992 v 2.554 c 0,0.233 -0.188,0.421 -0.421,0.421 h -3.684 c -0.233,0 -0.421,-0.188 -0.421,-0.421 v -3.108 c 0,-0.233 0.188,-0.421 0.421,-0.421 z"
       id="path6" />
    <path
       d="m -198.704,78.271 h 3.684 a 0.421,0.421 0 0 1 0.421,0.421 V 81.8 a 0.421,0.421 0 0 1 -0.421,0.421 h -3.684 a 0.421,0.421 0 0 1 -0.421,-0.421 v -3.108 a 0.421,0.421 0 0 1 0.421,-0.421 z"
       style="fill:#5dd795;stroke:#5dd795"
       id="path7" />
    <path
       id="path12"
       style="fill:#5dd795;stroke:#5dd795"
       d="m -192.30305,106.82389 c -0.237,0 -0.42786,0.19217 -0.42786,0.42917 v 8.21708 l -9.75724,9.75689 c -0.167,0.167 -0.167,0.4379 0,0.6049 l 12.98616,12.98622 c 0.0901,0.0901 0.21015,0.12739 0.32819,0.12022 v -32.11448 z"
       transform="matrix(-1,0,0,1,-378.34761,8.2966043e-7)" />
    <path
       d="m -237.046,64.221 c -0.193,0.002 -0.357,-0.152 -0.369,-0.345 l -0.846,-14.958 c -0.01,-0.193 0.137,-0.351 0.33,-0.353 l 14.981,-0.2 c 0.193,-0.003 0.358,0.151 0.369,0.344 l 0.635,11.239 5.008,4.669 c 0.144,0.135 0.156,0.355 0.027,0.493 l -3.378,3.623 c -0.129,0.138 -0.35,0.141 -0.494,0.007 l -5.007,-4.67 z"
       style="fill:#5dd795;stroke:#5dd795"
       id="path13"
       transform="matrix(-1,0,0,1,-378.34761,8.2966043e-7)" />
    <path
       d="m -190.91,69.58 h 3.684 c 0.233,0 0.421,0.189 0.421,0.421 v 3.108 c 0,0.233 -0.188,0.421 -0.421,0.421 h -3.684 c -0.233,0 -0.421,-0.188 -0.421,-0.421 v -3.108 c 0,-0.232 0.188,-0.421 0.421,-0.421 z"
       style="fill:#5dd795;stroke:#5dd795"
       id="path14"
       transform="matrix(-1,0,0,1,-378.34761,8.2966043e-7)" />
    <path
       id="path15"
       style="fill:#5dd795;stroke:#5dd795"
       d="m -189.1738,71.373268 c -0.0223,0.01215 -0.0439,0.02705 -0.0624,0.04862 l -7.47562,8.769145 c -0.083,0.097 -0.0851,0.253775 -0.003,0.348775 l 7.30682,8.57236 c 0.0628,0.0737 0.15656,0.08787 0.23436,0.04556 z"
       transform="matrix(-1,0,0,1,-378.34761,8.2966043e-7)" />
    <path
       style="fill:#5dd795;stroke:#5dd795"
       d="m -191.069,86.961 3.005,-0.017 c 1.105,0 1.1,-0.099 1.1,0.992 v 2.554 c 0,0.233 -0.188,0.421 -0.421,0.421 h -3.684 c -0.233,0 -0.421,-0.188 -0.421,-0.421 v -3.108 c 0,-0.233 0.188,-0.421 0.421,-0.421 z"
       id="path16"
       transform="matrix(-1,0,0,1,-378.34761,8.2966043e-7)" />
    <path
       d="m -198.704,78.271 h 3.684 a 0.421,0.421 0 0 1 0.421,0.421 V 81.8 a 0.421,0.421 0 0 1 -0.421,0.421 h -3.684 a 0.421,0.421 0 0 1 -0.421,-0.421 v -3.108 a 0.421,0.421 0 0 1 0.421,-0.421 z"
       style="fill:#5dd795;stroke:#5dd795"
       id="path17"
       transform="matrix(-1,0,0,1,-378.34761,8.2966043e-7)" />
  </g>
  <path
     id="path2"
     d="m 64.159478,129.77023 c -0.417671,0.72981 -0.738419,0.98533 -1.587455,1.19852 l -1.068544,0.29178 -5.813108,-3.56286 c -3.199312,-1.98139 -11.308792,-6.7342 -11.265264,-6.76804 0.902956,-0.70157 0.898268,-3.87646 0.67124,-4.74017 -0.08008,-0.30461 5.34878,2.93856 10.234524,5.78433 l 8.899039,5.18339 0.207041,0.85785 c 0.1866,0.63946 0.102359,1.09168 -0.277441,1.75523 z m -10.39586,4.3939 c -0.07588,0.13265 -0.34036,0.39158 -0.566811,0.58394 -0.24828,0.17979 -0.781472,0.40001 -1.182412,0.49088 -0.698568,0.15341 -1.038412,-0.0154 -8.737752,-4.4997 -6.150824,-3.58263 -8.141336,-4.83048 -8.678233,-5.4676 -0.391239,-0.43431 -15.305583,-21.6838 -15.506247,-22.09552 -0.20968,-0.44647 -6.153088,-8.965115 -6.448748,-9.668101 C 12.347776,92.804988 11.670064,91.702484 11.154908,91.078095 10.301371,90.079597 9.5850594,89.603363 5.2882675,87.10067 2.605452,85.538005 0.158364,84.107232 0,83.926497 V 69.732682 l 17.790979,7.310809 c 10.475016,6.189893 10.605879,6.266113 11.710728,7.587861 0.620644,0.744889 1.494672,1.961645 1.968316,2.70938 0.438792,0.757379 1.152168,2.20455 1.539332,3.255731 0.39988,1.029101 0.857592,2.77019 1.025284,3.899992 0.1586,1.094952 0.27508,2.873159 0.233879,3.910774 -0.933636,5.066481 -0.931204,2.826981 -0.794295,3.323421 0.217959,0.79022 1.027171,3.93105 4.566304,7.47829 1.633127,1.63691 2.583372,2.62925 3.612204,6.05353 0.07884,0.37036 0.412976,3.33722 0.17244,3.75751 -0.31644,0.55284 -0.718744,0.84935 -1.4426,1.04699 -0.573268,0.13786 -1.239438,0.13322 -1.54485,-0.0446 -0.305359,-0.17773 -1.713779,-2.54883 -4.967882,-7.12773 -3.886028,-5.50728 -5.560408,-5.69421 -5.894573,-5.77085 -0.268759,-0.0385 -2.530823,-1.4836 -2.773447,-1.21201 -0.938556,-0.37368 6.6673,11.51587 12.32384,17.23765 1.349911,1.36552 4.20008,1.29509 4.261048,0.88514 0.62748,-0.28333 0.95506,0.52493 6.2827,3.71656 4.009792,2.39456 5.464147,3.35962 5.761092,3.85705 0.238599,0.34535 0.343639,1.02571 0.259279,1.47793 -0.09676,0.47441 -0.228319,0.95814 -0.326359,1.07805 z m 8.394092,-15.12469 c -0.27848,0.48658 -0.680787,0.78301 -1.288552,0.93031 l -0.870924,0.20047 -8.893335,-5.09158 -8.915232,-5.10433 -2.807885,-3.93563 c -1.549595,-2.1707 -2.775591,-4.0938 -2.752384,-4.28674 0.04836,-0.2372 2.791044,1.2718 12.649805,7.01419 10.600244,6.17431 12.625204,7.41273 12.984163,8.00517 0.24772,0.3802 0.397601,0.88044 0.38364,1.10817 -0.04836,0.23721 -0.261519,0.76185 -0.489276,1.15996 z m -6.433987,-14.44656 c -0.12652,0.22118 -0.428944,0.54637 -0.655461,0.73888 -0.248279,0.17975 -0.781491,0.39993 -1.182447,0.49077 -0.698536,0.1534 -1.081988,-0.0401 -8.05594,-4.01405 l -8.525172,-4.877153 c 0.139159,-2.895037 -1.554824,-7.042719 -1.609112,-6.774683 l 12.444083,7.158412 c 5.016645,2.921984 7.20344,4.284184 7.482076,4.711914 0.238641,0.34543 0.416016,0.95006 0.400645,1.38346 -0.028,0.45544 -0.15028,0.97402 -0.298761,1.18242 z"
     style="fill:#5dd795;stroke-width:0.0239252"
     sodipodi:nodetypes="cccccssccsccccccccscccccccccscscccccscccccccccccccscccsccccccccsscc" />
</svg>
