<?xml version="1.0" encoding="UTF-8" standalone="no"?>
<!-- Created with Inkscape (http://www.inkscape.org/) -->

<svg
   width="512"
   height="512"
   viewBox="0 0 135.46667 135.46667"
   version="1.1"
   id="svg1"
   xml:space="preserve"
   sodipodi:docname="KWD_AIAF_SPEL_Shadow_EnhanceWeapon.svg"
   inkscape:version="1.3 (0e150ed6c4, 2023-07-21)"
   xmlns:inkscape="http://www.inkscape.org/namespaces/inkscape"
   xmlns:sodipodi="http://sodipodi.sourceforge.net/DTD/sodipodi-0.dtd"
   xmlns="http://www.w3.org/2000/svg"
   xmlns:svg="http://www.w3.org/2000/svg"><sodipodi:namedview
     id="namedview1"
     pagecolor="#ffffff"
     bordercolor="#000000"
     borderopacity="0.25"
     inkscape:showpageshadow="2"
     inkscape:pageopacity="0.0"
     inkscape:pagecheckerboard="0"
     inkscape:deskcolor="#d1d1d1"
     inkscape:document-units="px"
     inkscape:zoom="1"
     inkscape:cx="292"
     inkscape:cy="314.5"
     inkscape:window-width="1920"
     inkscape:window-height="1017"
     inkscape:window-x="1042"
     inkscape:window-y="276"
     inkscape:window-maximized="1"
     inkscape:current-layer="svg1"
     showgrid="true"><inkscape:grid
       id="grid6"
       units="px"
       originx="0"
       originy="0"
       spacingx="0.26458334"
       spacingy="0.26458334"
       empcolor="#0099e5"
       empopacity="0.30196078"
       color="#0099e5"
       opacity="0.14901961"
       empspacing="5"
       dotted="false"
       gridanglex="30"
       gridanglez="30"
       visible="true" /></sodipodi:namedview><defs
     id="defs1" /><path
     id="path6"
     style="fill:#5b2fc2;fill-opacity:1;stroke-width:4.21004"
     d="M 69.174709,0.00130914 C 68.599752,-0.05120669 68.752137,1.0817066 69.05687,3.3504848 72.626601,40.652973 27.316922,41.145609 14.024891,60.193436 c 0,-3.272046 7.086357,-12.626462 16.789294,-22.160377 13.225267,-12.994896 12.985588,-14.233688 -1.316929,-6.766575 -12.597946,6.577188 -14.763566,6.98842 -9.898675,1.885462 2.7986,-2.935536 3.269652,-3.863242 1.670453,-3.285087 C 16.404278,31.625606 12.401933,35.471352 7.2810576,43.304911 -13.035219,74.383332 11.59257,125.59722 51.366131,134.14844 99.043614,144.39897 143.14253,93.448838 134.33266,39.22181 132.81155,29.859231 119.76293,1.2154992 116.57582,1.1404423 c -1.60381,-0.037759 -2.88356,5.3821453 -1.85652,7.8622932 5.27064,16.3102705 3.98545,31.3109985 -5.53854,45.1621875 -4.19848,5.903529 -6.33696,5.350895 -3.3409,-1.238369 2.17126,-3.947415 5.9599,-41.650889 -2.06739,-49.6670343 C 99.695155,-0.81220426 97.10916,-1.131107 99.656293,2.7509411 107.38501,24.59919 87.195062,16.656954 73.656815,3.7722327 71.052249,1.2933956 69.749666,0.05382493 69.174709,0.00130914 Z m 8.27985,28.95176586 c 1.031391,-0.06561 2.035586,1.057836 3.115561,3.330569 10.088955,21.231518 -7.585597,36.440935 -9.660926,37.578991 -3.277435,1.797255 10.840477,4.927759 17.994584,-20.111595 2.117012,-7.409533 13.444992,-13.017192 13.760562,-12.702061 0.31558,0.315091 -0.37762,2.728853 -1.0585,4.234024 -1.704075,3.766967 -2.11701,17.994585 -3.175518,27.521129 -3.231347,44.741058 -35.079881,43.874838 -30.901316,45.515708 10.788705,4.23661 34.546194,-13.38528 39.354884,-21.170095 1.55952,-2.524709 9.21056,-15.330801 3.18999,0 -1.06481,3.550539 -19.65234,36.841315 -49.209498,33.872155 -40.169083,-4.03518 -47.76132,-44.918561 -20.827559,-67.822877 10.030149,-8.529582 11.819215,-9.110069 6.02438,-1.955753 -6.768033,8.355822 -8.578885,22.130671 -3.628272,27.593484 3.003907,3.314693 3.326279,2.904383 3.7027,-4.71572 0.613564,-12.420617 5.421599,-25.608439 18.422534,-34.604012 4.988916,-3.451916 6.584379,-5.375944 8.561071,-10.326626 1.638178,-4.102855 3.009248,-6.152971 4.335323,-6.237321 z M 64.03718,71.059653 c -1.678304,-0.0292 -3.708601,2.231742 -5.830044,7.271018 -3.09741,7.357713 -4.617405,17.416931 -3.37812,22.354719 2.975738,11.85631 11.236757,8.76024 12.830235,-4.808759 1.7724,-15.091858 -0.18555,-24.75686 -3.622071,-24.816978 z"
     sodipodi:nodetypes="sccsscssscscccccsssssssscsscssssssssscccs" /></svg>
