<?xml version="1.0" encoding="UTF-8" standalone="no"?>
<!-- Created with Inkscape (http://www.inkscape.org/) -->

<svg
   width="512"
   height="512"
   viewBox="0 0 135.46666 135.46667"
   version="1.1"
   id="svg1"
   inkscape:version="1.3 (0e150ed6c4, 2023-07-21)"
   sodipodi:docname="KWD_AIAF_SPEL_Eldritch_Rune.svg"
   xmlns:inkscape="http://www.inkscape.org/namespaces/inkscape"
   xmlns:sodipodi="http://sodipodi.sourceforge.net/DTD/sodipodi-0.dtd"
   xmlns="http://www.w3.org/2000/svg"
   xmlns:svg="http://www.w3.org/2000/svg">
  <sodipodi:namedview
     id="namedview1"
     pagecolor="#ffffff"
     bordercolor="#000000"
     borderopacity="0.25"
     inkscape:showpageshadow="2"
     inkscape:pageopacity="0.0"
     inkscape:pagecheckerboard="0"
     inkscape:deskcolor="#d1d1d1"
     inkscape:document-units="px"
     showgrid="true"
     inkscape:zoom="1"
     inkscape:cx="139"
     inkscape:cy="323.5"
     inkscape:window-width="1920"
     inkscape:window-height="1017"
     inkscape:window-x="1042"
     inkscape:window-y="276"
     inkscape:window-maximized="1"
     inkscape:current-layer="svg1">
    <inkscape:grid
       id="grid1"
       units="px"
       originx="0"
       originy="0"
       spacingx="0.26458332"
       spacingy="0.26458334"
       empcolor="#0099e5"
       empopacity="0.30196078"
       color="#0099e5"
       opacity="0.14901961"
       empspacing="5"
       dotted="false"
       gridanglex="30"
       gridanglez="30"
       visible="true" />
  </sodipodi:namedview>
  <defs
     id="defs1" />
  <path
     id="path1"
     style="fill:#8ea732;fill-opacity:1;stroke-width:0.311494"
     d="M 67.757076,0 C 30.33588,-2.7999998e-6 2.7890226e-6,30.325245 0,67.733331 c 1.1176084e-5,37.408109 30.335886,67.733329 67.757076,67.733329 37.421204,0 67.757074,-30.32522 67.757074,-67.733329 C 135.51415,30.325248 105.17828,0 67.757076,0 Z m 0,7.0862448 c 36.287124,8e-6 60.603054,24.3726872 60.603214,60.6470862 -1.6e-4,36.274419 -24.31609,60.647089 -60.603214,60.647119 -36.287118,0 -60.603067,-24.3727 -60.6032131,-60.647119 C 7.154009,31.458927 31.469958,7.086242 67.757076,7.0862448 Z"
     sodipodi:nodetypes="sssssscscs" />
  <path
     style="fill:#8ea732;stroke-width:2.28271"
     d="M 58.124278,16.328196 46.616607,16.49228 c -1.080103,9.815031 -1.065179,19.678004 0.01078,29.492516 0.445535,2.004551 2.138251,1.124032 4.549157,-2.367088 2.580514,-3.736742 5.148303,-5.53047 9.12089,-6.371222 5.065139,-1.071973 4.851945,-1.633461 4.943401,13.05883 0.07382,24.517636 -1.888631,52.046844 1.075166,74.709784 0.219622,1.67929 1.04396,2.24538 1.430887,0.82145 2.594779,-9.54907 6.382168,-37.645703 6.593968,-45.85825 0.235024,-18.185448 8.184739,-33.811116 4.796144,-37.15508 -0.862812,-0.85148 -3.06426,-5.201121 -2.776271,-5.48533 0.13076,-0.12908 1.289107,0.05443 2.574401,0.40662 1.28532,0.3522 2.672062,0.641492 3.081481,0.643336 0.940725,0.0044 2.317336,-2.646584 2.830888,-5.450163 0.216948,-1.184669 1.09914,-2.804605 1.95933,-3.599852 0.860166,-0.795244 2.548345,-3.438154 3.752367,-5.872022 2.986179,-6.036365 2.924091,-6.073574 -9.890366,-6.073574 -5.863652,0 -10.042933,-0.246663 -10.415211,-0.614035 -0.392039,-0.386895 -4.872763,-0.553152 -12.128716,-0.449977 z"
     id="path87"
     sodipodi:nodetypes="ccssscssssssccsssssc" />
</svg>
