<?xml version="1.0" encoding="UTF-8" standalone="no"?>
<!-- Created with Inkscape (http://www.inkscape.org/) -->

<svg
   width="512"
   height="512"
   viewBox="0 0 135.46665 135.46665"
   version="1.1"
   id="svg1"
   sodipodi:docname="KWD_AIAF_SPEL_Necromancy_ShardHarvest.svg"
   xml:space="preserve"
   inkscape:version="1.3 (0e150ed6c4, 2023-07-21)"
   xmlns:inkscape="http://www.inkscape.org/namespaces/inkscape"
   xmlns:sodipodi="http://sodipodi.sourceforge.net/DTD/sodipodi-0.dtd"
   xmlns="http://www.w3.org/2000/svg"
   xmlns:svg="http://www.w3.org/2000/svg"><sodipodi:namedview
     id="namedview1"
     pagecolor="#ffffff"
     bordercolor="#000000"
     borderopacity="0.25"
     inkscape:showpageshadow="2"
     inkscape:pageopacity="0.0"
     inkscape:pagecheckerboard="false"
     inkscape:deskcolor="#d1d1d1"
     inkscape:document-units="px"
     inkscape:zoom="1"
     inkscape:cx="210.99999"
     inkscape:cy="302.49999"
     inkscape:window-width="1920"
     inkscape:window-height="1017"
     inkscape:window-x="1042"
     inkscape:window-y="276"
     inkscape:window-maximized="1"
     inkscape:current-layer="svg1"
     inkscape:lockguides="false"
     showguides="true"
     showgrid="true"
     inkscape:clip-to-page="false"><inkscape:grid
       id="grid35"
       units="px"
       originx="0"
       originy="0"
       spacingx="0.26458331"
       spacingy="0.2645833"
       empcolor="#0099e5"
       empopacity="0.30196078"
       color="#0099e5"
       opacity="0.14901961"
       empspacing="5"
       dotted="false"
       gridanglex="30"
       gridanglez="30"
       visible="true" /></sodipodi:namedview><defs
     id="defs1"><inkscape:path-effect
       effect="fillet_chamfer"
       id="path-effect70"
       is_visible="true"
       lpeversion="1"
       nodesatellites_param="F,0,0,1,0,1.3229158,0,1 @ F,0,0,1,0,1.3229161,0,1 @ F,0,0,1,0,0,0,1 @ F,0,0,1,0,0,0,1"
       radius="0"
       unit="px"
       method="auto"
       mode="F"
       chamfer_steps="1"
       flexible="false"
       use_knot_distance="true"
       apply_no_radius="true"
       apply_with_radius="true"
       only_selected="false"
       hide_knots="false" /><inkscape:path-effect
       effect="fillet_chamfer"
       id="path-effect68"
       is_visible="true"
       lpeversion="1"
       nodesatellites_param="F,0,0,1,0,0,0,1 @ F,0,0,1,0,0,0,1 @ F,0,0,1,0,0,0,1 @ F,0,0,1,0,0,0,1"
       radius="0"
       unit="px"
       method="auto"
       mode="F"
       chamfer_steps="1"
       flexible="false"
       use_knot_distance="true"
       apply_no_radius="true"
       apply_with_radius="true"
       only_selected="false"
       hide_knots="false" /><inkscape:path-effect
       effect="fillet_chamfer"
       id="path-effect67"
       is_visible="true"
       lpeversion="1"
       nodesatellites_param="F,0,0,1,0,0,0,1 @ F,0,0,1,0,0,0,1 @ F,0,0,1,0,0,0,1 @ F,0,0,1,0,0,0,1"
       radius="0"
       unit="px"
       method="auto"
       mode="F"
       chamfer_steps="1"
       flexible="false"
       use_knot_distance="true"
       apply_no_radius="true"
       apply_with_radius="true"
       only_selected="false"
       hide_knots="false" /><inkscape:path-effect
       effect="fillet_chamfer"
       id="path-effect65"
       is_visible="true"
       lpeversion="1"
       nodesatellites_param="F,0,0,1,0,0.52916652,0,1 @ F,0,0,1,0,0.52916652,0,1 @ F,0,0,1,0,0.52916652,0,1 @ F,0,0,1,0,0.52916652,0,1"
       radius="0.52916652"
       unit="px"
       method="auto"
       mode="F"
       chamfer_steps="1"
       flexible="false"
       use_knot_distance="true"
       apply_no_radius="true"
       apply_with_radius="true"
       only_selected="false"
       hide_knots="false" /><inkscape:path-effect
       effect="fillet_chamfer"
       id="path-effect63"
       is_visible="true"
       lpeversion="1"
       nodesatellites_param="F,0,0,1,0,0.52916652,0,1 @ F,0,0,1,0,0.52916652,0,1 @ F,0,0,1,0,0.52916652,0,1 @ F,0,0,1,0,0,0,1"
       radius="0.52916652"
       unit="px"
       method="auto"
       mode="F"
       chamfer_steps="1"
       flexible="false"
       use_knot_distance="true"
       apply_no_radius="true"
       apply_with_radius="true"
       only_selected="false"
       hide_knots="false" /><inkscape:path-effect
       effect="mirror_symmetry"
       start_point="36.379876,98.706102"
       end_point="36.379876,129.13318"
       center_point="36.379876,113.91964"
       id="path-effect61"
       is_visible="true"
       lpeversion="1.2"
       lpesatellites=""
       mode="free"
       discard_orig_path="false"
       fuse_paths="false"
       oposite_fuse="false"
       split_items="false"
       split_open="false"
       link_styles="false" /><inkscape:path-effect
       effect="mirror_symmetry"
       start_point="36.379876,98.706104"
       end_point="36.379876,129.13318"
       center_point="36.379876,113.91964"
       id="path-effect57"
       is_visible="true"
       lpeversion="1.2"
       lpesatellites=""
       mode="free"
       discard_orig_path="false"
       fuse_paths="false"
       oposite_fuse="false"
       split_items="false"
       split_open="false"
       link_styles="false" /><inkscape:path-effect
       effect="fillet_chamfer"
       id="path-effect31"
       is_visible="true"
       lpeversion="1"
       nodesatellites_param="F,0,0,1,0,0,0,1 @ F,0,0,1,0,0,0,1 @ F,0,0,1,0,0,0,1 @ F,0,0,1,0,0,0,1 @ F,0,0,1,0,0,0,1 @ F,0,0,1,0,0,0,1 @ F,0,0,1,0,0,0,1 @ F,0,0,1,0,0,0,1"
       radius="0"
       unit="px"
       method="auto"
       mode="F"
       chamfer_steps="1"
       flexible="false"
       use_knot_distance="true"
       apply_no_radius="true"
       apply_with_radius="true"
       only_selected="false"
       hide_knots="false" /><inkscape:perspective
       sodipodi:type="inkscape:persp3d"
       inkscape:vp_x="0 : 41.434045 : 1"
       inkscape:vp_y="0 : 999.99983 : 0"
       inkscape:vp_z="296.99997 : 41.434045 : 1"
       inkscape:persp3d-origin="148.49997 : 6.4340591 : 1"
       id="perspective4" /></defs><g
     transform="matrix(0.26472481,0,0,0.25751918,-27.85584,0.87296805)"
     id="g1"
     style="fill:#5dd795"><path
       id="path-1"
       style="fill:#5dd795;fill-opacity:1;stroke-width:3.38633"
       d="m 172.976,151.8 c 1.886,8.199 4.419,16.481 7.597,24.875 2.803,7.935 6.268,15.942 10.428,24.074 3.892,7.595 8.311,15.282 13.275,23.099 4.561,7.248 9.665,14.501 15.313,21.763 5.109,6.895 10.605,13.793 16.518,20.723 5.47,6.315 11.184,12.712 17.252,19.098 5.558,5.865 33.21505,26.09694 41.06705,30.04794 l 0.40695,0.21106 v 0 c 0.065,0.035 0.139,0.076 0.225,0.123 0.376,0.204 0.93,0.498 1.647,0.875 1.437,0.755 3.51,1.83 6.055,3.136 5.092,2.613 12.06,6.145 19.572,9.87 15.024,7.45 32.103,15.621 40.703,18.775 1.523,0.394 3.049,0.812 4.612,1.263 l -0.008,0.031 0.114,-0.001 0.141,0.041 c 0.005,0.002 0.016,0.005 0.021,0.006 8.621,2.559 17.562,5.937 26.763,10.117 8.613,3.9 17.402,8.536 26.297,13.88 8.306,5.124 16.713,10.713 25.184,16.738 7.997,5.772 15.824,11.846 23.453,18.213 7.369,6.032 14.362,12.262 20.95,18.68 6.273,6.101 12.07,12.152 17.326,18.067 0,0 39.335,47.823 45.164,55.082 l 0.56,0.698 -21.306,21.37 -0.692,-0.928 c -10.26,-13.741 -39.756,-51.932 -40.931,-53.452 -6.283,-6.417 -12.569,-12.577 -18.914,-18.543 -6.899,-6.411 -13.721,-12.509 -20.488,-18.303 -7.427,-6.267 -14.831,-12.094 -22.204,-17.492 -7.775,-5.971 -15.513,-11.345 -23.251,-16.142 -8.343,-5.225 -16.539,-9.859 -24.63,-13.924 -8.666,-4.345 -17.205,-7.953 -25.636,-10.836 -9.033,-3.323 -15.859,-7.296 -24.331,-9.913 -4.272,-1.331 -10.191,-4.063 -14.996,-6.444 -2.404,-1.192 -4.549,-2.304 -6.086,-3.115 -0.77,-0.406 -1.391,-0.738 -1.817,-0.968 -0.20784,-0.11133 -0.41467,-0.22467 -0.622,-0.337 -0.951,-0.609 0.883,0.571 -0.034,-0.019 -0.917,-0.59 0.883,0.572 -0.017,-0.009 l -0.9,-0.581 c -1.70211,-1.09881 0.93496,-1.27757 0,0 l -53.883,-34.908 -0.055,-0.048 c -5.502,-4.837 -12.36,-9.761 -18.156,-15.644 -6.007,-6.103 -12.634,-12.177 -18.36,-19.092 -5.993,-7.098 -12.133,-14.024 -17.619,-21.529 -5.655,-7.856 -11.547,-13.973 -16.476,-21.824 -5.084,-8.337 -9.513,-16.576 -13.261,-24.672 -4.012,-8.643 -7.288,-17.064 -9.795,-25.188 -2.6,-8.612 -4.361,-16.894 -5.266,-24.755 -0.922,-8.344 -0.837,-16.263 0.257,-23.62 l 0.046,-0.311 15.157,-15.973 0.129,2.312 c 0.47,8.354 1.632,16.793 3.501,25.403 z"
       sodipodi:nodetypes="ccccccccccccssccccccccccccccccccccccccccccsssccccccccccccccc" /><path
       id="path766"
       style="fill:#5dd795"
       d="m 267.08133,45.650258 c -3.17062,1.899748 -6.33072,3.84399 -9.48172,5.835988 -5.966,3.776997 -11.82147,7.697762 -17.56846,11.758758 -5.74699,4.059996 -11.38482,8.260891 -16.91281,12.601887 -5.254,4.109996 -10.34371,8.298338 -15.27471,12.563334 -4.92999,4.263996 -9.41795,8.485017 -14.02695,12.901015 -3.881,3.73699 -7.69059,7.50676 -11.34359,11.15676 -3.02699,3.02399 -0.0967,0.0408 -6.58168,6.60775 -0.675,0.685 -0.56013,0.47766 -1.35213,1.29066 0,0 4.71609,26.8904 8.45709,38.76139 4.28399,13.58699 15.74334,39.31041 15.99134,39.06241 4.07899,-4.15 11.64471,-25.25609 14.6277,-30.04709 2.984,-4.79199 15.38618,-28.48598 19.50618,-32.32398 4.847,-4.43899 9.71081,-8.76037 14.58781,-12.96136 4.87599,-4.2 9.76763,-8.2807 14.67163,-12.24569 5.35999,-4.238 10.75386,-8.3226 16.18285,-12.251597 5.42799,-3.927996 10.89292,-7.701923 16.39092,-11.322919 5.82399,-3.940996 11.68731,-7.686206 17.5893,-11.233203 5.90299,-3.546996 11.84544,-6.894755 17.83144,-10.042752 6.37799,-3.390997 12.76983,-6.566268 19.17382,-9.524265 6.40199,-2.957998 12.81733,-5.698848 19.24433,-8.224845 6.89699,-2.677998 13.80855,-5.113017 20.73655,-7.300015 6.92599,-2.187998 13.87086,-4.129328 20.82885,-5.826326 7.373,-1.815998 14.75687,-3.373149 22.16286,-4.670147 7.406,-1.295999 14.83117,-2.331421 22.27116,-3.106421 7.80299,-0.800999 15.64337,-1.308387 23.52037,-1.518387 7.87799,-0.209 15.79299,-0.121001 23.74798,0.265999 L 485.90274,13.553579 469.74203,1.2463927 c -7.18999,-1.55499845 -14.49712,-2.7181184 -21.92111,-3.4901176 -7.425,-0.7739992 -14.96959,-1.1560182 -22.62858,-1.1460182 -7.23799,0.007 -14.56661,0.3597515 -21.98561,1.0577508 -7.42099,0.6979993 -14.93199,1.74352544 -22.53998,3.12852405 -7.12399,1.35099865 -14.30527,2.98953765 -21.53926,4.91853575 -7.23399,1.9269981 -14.52555,4.1449587 -21.86754,6.6489565 -6.86699,2.408997 -13.74749,5.065109 -20.64549,7.971106 -6.89699,2.903997 -13.80789,6.058403 -20.73288,9.4614 -6.45699,3.247996 -12.87865,6.67864 -19.25865,10.292637 -3.19049,1.806998 -6.37098,3.661343 -9.5416,5.561091 z"
       sodipodi:nodetypes="scccccccccccccccccccccccccccccccccccccs" /></g><path
     id="rect4"
     style="fill:#5dd795;stroke-width:1.05846"
     d="m 69.829267,21.165159 c -5.25974,-0.03144 -11.358661,4.097322 -19.066788,15.881064 -9.861984,14.23365 -14.460973,60.7345 78.326191,48.424635 -31.350019,1.045883 -51.981445,-13.9031 -39.163098,-40.151265 1.273372,-2.607481 1.483865,-6.482815 0,-8.27337 C 83.412144,30.143163 77.516578,21.21114 69.829267,21.165159 Z m -6.892406,10.2001 c 2.841809,2e-6 3.702554,4.8037 3.70255,8.856348 0,4.052651 -4.321422,10.181496 -7.163228,10.181496 -2.841809,0 -4.479857,-6.128845 -4.479857,-10.181496 0,-4.052649 5.098721,-8.856346 7.940535,-8.856348 z m 17.005681,2.232694 c 2.841809,1e-6 3.632265,4.687923 3.632261,8.740581 0,4.05265 -4.251124,10.297265 -7.092938,10.297265 -2.841809,0 -4.550142,-6.244615 -4.550142,-10.297265 0,-4.052659 5.169005,-8.74058 8.010819,-8.740581 z"
     sodipodi:nodetypes="cccsccssssssssss" /></svg>
