<?xml version="1.0" encoding="UTF-8" standalone="no"?>
<!-- Created with Inkscape (http://www.inkscape.org/) -->

<svg
   width="512"
   height="512"
   viewBox="0 0 135.46666 135.46667"
   version="1.1"
   id="svg1"
   xml:space="preserve"
   inkscape:version="1.3 (0e150ed6c4, 2023-07-21)"
   sodipodi:docname="Wings1.svg"
   xmlns:inkscape="http://www.inkscape.org/namespaces/inkscape"
   xmlns:sodipodi="http://sodipodi.sourceforge.net/DTD/sodipodi-0.dtd"
   xmlns="http://www.w3.org/2000/svg"
   xmlns:svg="http://www.w3.org/2000/svg"><sodipodi:namedview
     id="namedview1"
     pagecolor="#ffffff"
     bordercolor="#000000"
     borderopacity="0.25"
     inkscape:showpageshadow="2"
     inkscape:pageopacity="0.0"
     inkscape:pagecheckerboard="0"
     inkscape:deskcolor="#d1d1d1"
     inkscape:document-units="px"
     showgrid="false"
     inkscape:zoom="0.35355339"
     inkscape:cx="50.911688"
     inkscape:cy="233.34524"
     inkscape:window-width="1920"
     inkscape:window-height="1017"
     inkscape:window-x="1042"
     inkscape:window-y="276"
     inkscape:window-maximized="1"
     inkscape:current-layer="svg1"><inkscape:grid
       id="grid2"
       units="px"
       originx="0"
       originy="0"
       spacingx="0.26458332"
       spacingy="0.26458334"
       empcolor="#0099e5"
       empopacity="0.30196078"
       color="#0099e5"
       opacity="0.14901961"
       empspacing="5"
       dotted="false"
       gridanglex="30"
       gridanglez="30"
       visible="false" /></sodipodi:namedview><defs
     id="defs1"><inkscape:path-effect
       effect="fillet_chamfer"
       id="path-effect8"
       is_visible="true"
       lpeversion="1"
       nodesatellites_param="F,0,0,1,0,0,0,1 @ F,0,0,1,0,0,0,1 @ F,0,0,1,0,0,0,1 @ F,0,0,1,0,0,0,1 | F,0,0,1,0,0,0,1 @ F,0,0,1,0,0,0,1 @ F,0,0,1,0,0,0,1 @ F,0,0,1,0,0,0,1 | F,0,0,1,0,0,0,1 @ F,0,0,1,0,0,0,1 @ F,0,0,1,0,0,0,1 @ F,0,0,1,0,0,0,1 | F,0,0,1,0,0,0,1 @ F,0,0,1,0,0,0,1 @ F,0,0,1,0,0,0,1 @ F,0,0,1,0,0,0,1 | F,0,0,1,0,0,0,1 @ F,0,0,1,0,0,0,1 @ F,0,0,1,0,0,0,1 @ F,0,0,1,0,0,0,1"
       radius="0"
       unit="px"
       method="auto"
       mode="F"
       chamfer_steps="1"
       flexible="false"
       use_knot_distance="true"
       apply_no_radius="true"
       apply_with_radius="true"
       only_selected="false"
       hide_knots="false" /></defs><path
     id="path4"
     style="fill:#c9779a;stroke-width:1.66506"
     d="m 0.27621258,24.973534 c -0.57065047,0.131966 -0.0978771,1.541498 0.0127835,3.453262 0.57543107,9.945183 7.551643,11.880532 14.3107079,14.638774 12.412143,4.908595 28.882807,3.818522 32.030449,20.550736 19.086187,62.515754 23.120138,62.516304 42.206477,0 3.147646,-16.732214 19.6183,-15.642141 32.03045,-20.550736 6.75907,-2.758242 13.73528,-4.693591 14.31071,-14.638774 0.1106,-1.911764 0.58342,-3.321298 0.0124,-3.453262 -0.19024,-0.044 -0.49616,0.05284 -0.97036,0.321844 -0.74186,0.420826 -26.29652,9.272937 -31.8666,12.075347 -17.280678,8.694219 -21.787605,15.340751 -24.16541,28.208319 -1.525781,8.256753 -2.865266,13.550616 -4.373015,17.290054 -0.734232,1.821013 -1.162797,2.867602 -1.198057,3.310802 2.091082,14.98548 -12.107923,14.6842 -9.767449,0 -0.0356,-0.443204 -0.463849,-1.489789 -1.198057,-3.310802 C 60.143653,79.12966 58.804172,73.835797 57.278395,65.579044 54.90077,52.711476 50.393847,46.064944 33.11317,37.370725 27.543082,34.568315 1.9884227,25.716208 1.2465746,25.295382 0.77234883,25.026372 0.46641833,24.929529 0.27621258,24.973534 Z M 3.0255709,45.323771 c 6.3556955,10.105326 30.9002471,22.070706 39.2826231,21.183877 1.949693,-6.6868 1.988317,-9.290093 -5.760453,-12.180071 z m 129.4156091,0 -33.522168,9.003806 c -7.748772,2.889978 -7.710148,5.493271 -5.760455,12.180071 8.382373,0.886829 32.926923,-11.078551 39.282623,-21.183877 z M 9.0647959,66.267588 C 15.651098,75.079577 40.365073,82.497226 47.545169,80.064804 48.528434,73.09152 46.140404,70.367302 39.109829,68.947886 Z m 117.3371641,0 -30.045041,2.680298 c -7.030569,1.419416 -9.418602,4.143634 -8.435337,11.116918 7.180096,2.432422 31.894068,-4.985227 38.480378,-13.797216 z M 43.582863,82.937686 16.023311,83.62095 c 6.468299,7.552873 29.408685,11.87338 35.835289,8.83233 0.535428,-6.63522 -1.785697,-8.933366 -8.275737,-9.515594 z m 48.301025,0 c -6.49004,0.582228 -8.811165,2.880374 -8.275737,9.515594 6.426604,3.04105 29.366989,-1.279457 35.835289,-8.83233 z m -39.38902,12.90818 c -0.780684,-0.0184 -1.695777,0.10988 -2.764257,0.36404 l -17.709098,6.355184 c 5.23315,3.49116 20.655447,1.35976 24.382462,-1.98385 -0.435449,-3.301109 -1.567069,-4.680494 -3.909107,-4.735374 z m 30.477015,0 c -2.342038,0.05492 -3.473682,1.434265 -3.909107,4.735374 3.727019,3.34361 19.149316,5.47501 24.382464,1.98385 l -17.7091,-6.355168 c -1.06848,-0.25416 -1.983573,-0.3824 -2.764257,-0.36404 z"
     sodipodi:nodetypes="ccccccscssssccccssccccccccccccccccccccccccccccccscccss" /></svg>
