<?xml version="1.0" encoding="UTF-8" standalone="no"?>
<!-- Created with Inkscape (http://www.inkscape.org/) -->

<svg
   width="512"
   height="512"
   viewBox="0 0 135.46666 135.46667"
   version="1.1"
   id="svg1"
   xml:space="preserve"
   inkscape:version="1.3 (0e150ed6c4, 2023-07-21)"
   sodipodi:docname="VulcanoTEST5.svg"
   xmlns:inkscape="http://www.inkscape.org/namespaces/inkscape"
   xmlns:sodipodi="http://sodipodi.sourceforge.net/DTD/sodipodi-0.dtd"
   xmlns="http://www.w3.org/2000/svg"
   xmlns:svg="http://www.w3.org/2000/svg"><sodipodi:namedview
     id="namedview1"
     pagecolor="#ffffff"
     bordercolor="#000000"
     borderopacity="0.25"
     inkscape:showpageshadow="2"
     inkscape:pageopacity="0.0"
     inkscape:pagecheckerboard="0"
     inkscape:deskcolor="#d1d1d1"
     inkscape:document-units="px"
     inkscape:zoom="1"
     inkscape:cx="313.99999"
     inkscape:cy="260.49999"
     inkscape:window-width="1920"
     inkscape:window-height="1017"
     inkscape:window-x="1042"
     inkscape:window-y="276"
     inkscape:window-maximized="1"
     inkscape:current-layer="svg1" /><defs
     id="defs1" /><path
     id="path1"
     style="fill:#db5e40;stroke-width:6.53711"
     d="M 86.363512,0.00356077 C 85.74191,-0.00901398 82.895802,0.00362288 82.045863,0.03869722 76.559146,0.24128019 73.83791,0.47923036 70.033322,3.9471123 67.435097,6.3154886 64.570071,15.437105 61.885795,20.583195 c -3.695863,8.632192 -9.248456,27.775626 -21.931353,13.734224 -2.021838,-1.792121 -6.806985,-1.899538 -8.558829,-0.609721 -1.666109,1.320259 -0.67387,16.048479 -4.950108,32.864996 -1.368167,6.591226 -1.70017,13.849838 -5.938063,19.012962 -2.391261,2.913325 -3.546175,-3.856903 -4.028292,-6.142683 -5.059525,4.844885 -7.4253916,15.659773 -7.8250977,22.448067 0,2.27728 -0.8197866,3.55672 -4.1068328,6.41344 -3.1126989,2.70527 -4.18747427,4.30945 -4.44372925,6.63666 -0.31018487,2.81437 -0.27833261,3.86515 4.42512795,6.74413 45.9737858,28.14058 132.0801418,6.27199 130.8254618,-5.08858 0.50957,-3.59977 -0.63682,-6.28201 -2.9308,-6.85781 -3.39785,-0.85279 -6.80159,-6.20288 -9.801,-15.406313 -2.24967,-6.902859 -2.17669,-8.616004 -3.72127,-8.842513 -2.2215,-0.325768 -0.93535,0.09355 -3.29545,-13.02736 -3.22462,-17.217321 -3.67673,-28.304958 -4.68992,-30.105226 -0.19558,-0.347525 -0.63671,-0.254815 -1.25734,0.173783 -6.34383,4.38083 -8.89699,2.285136 -9.59777,-10.991687 C 98.961146,24.036418 97.834446,0.23561276 86.363512,0.00356077 Z M 83.378978,7.5372322 c 3.844924,-0.1416139 7.081612,2.7913328 7.039697,8.3128748 -0.0396,5.308739 -0.163184,5.540853 -1.58941,2.972131 -2.012339,-3.62339 -3.021494,-2.245428 -3.253223,3.598387 -0.562952,14.196559 24.161468,23.679593 21.925158,73.67497 0.0855,1.149077 0.0456,2.130051 -0.0889,2.95766 h 0.002 c -0.46762,4.191785 -6.53042,9.461195 -11.070051,10.131705 C 105.68669,96.204292 99.223548,52.19277 91.425234,55.382764 86.7171,56.633887 94.259587,89.558259 80.413662,96.159256 87.378278,76.433758 84.643555,50.941807 78.736837,46.030261 74.345795,42.58177 72.284149,45.246472 70.552106,46.650319 55.543657,62.766294 48.431471,82.207285 39.780831,101.00023 40.952585,85.321794 46.134896,69.519376 55.925003,55.326957 53.443634,45.758476 40.571632,62.597331 37.759451,66.380641 37.214145,67.334922 34.103997,67.748153 33.844308,66.481911 33.226486,65.410554 30.643281,33.429095 38.478711,40.311288 59.310737,58.608929 65.409552,27.966892 73.342352,13.584838 75.814065,9.5252589 80.3885,7.6473812 83.378978,7.5372322 Z M 117.26087,108.33135 c 7.1066,-0.37296 5.6981,7.45291 -11.24574,13.25058 -25.493723,9.82468 -60.462492,6.9018 -86.62172,-0.57665 -16.0260865,-4.83948 -8.768567,-14.00581 -0.126078,-9.60259 27.491186,9.05177 62.58089,9.17836 87.746088,-0.0455 4.71343,-1.93756 8.22389,-2.88812 10.24745,-3.02587 z"
     sodipodi:nodetypes="sccccccscccccccsscsscssccsccccccccccccccscccccc" /></svg>
