<?xml version="1.0" encoding="UTF-8" standalone="no"?>
<!-- Created with Inkscape (http://www.inkscape.org/) -->

<svg
   width="512"
   height="512"
   viewBox="0 0 135.46666 135.46667"
   version="1.1"
   id="svg1"
   inkscape:version="1.3 (0e150ed6c4, 2023-07-21)"
   sodipodi:docname="KWD_AIAF_SPEL_Eldritch_DamageEldritch.svg"
   xml:space="preserve"
   xmlns:inkscape="http://www.inkscape.org/namespaces/inkscape"
   xmlns:sodipodi="http://sodipodi.sourceforge.net/DTD/sodipodi-0.dtd"
   xmlns="http://www.w3.org/2000/svg"
   xmlns:svg="http://www.w3.org/2000/svg"><sodipodi:namedview
     id="namedview1"
     pagecolor="#ffffff"
     bordercolor="#000000"
     borderopacity="0.25"
     inkscape:showpageshadow="2"
     inkscape:pageopacity="0.0"
     inkscape:pagecheckerboard="0"
     inkscape:deskcolor="#d1d1d1"
     inkscape:document-units="px"
     inkscape:zoom="1"
     inkscape:cx="194"
     inkscape:cy="170.5"
     inkscape:window-width="1920"
     inkscape:window-height="1017"
     inkscape:window-x="1042"
     inkscape:window-y="276"
     inkscape:window-maximized="1"
     inkscape:current-layer="svg1" /><defs
     id="defs1" /><path
     id="path10"
     style="fill:#8ea732;stroke-width:13.9573"
     d="M 66.805058,0.05393706 C 39.454439,-0.49457307 19.159226,10.198446 7.2082406,31.938316 -0.46130453,45.889877 8.519671,55.021048 21.638618,27.328527 24.92357,20.394327 45.097631,5.084219 62.961499,15.636761 c 1.482416,0.875527 1.107932,3.282606 -1.815411,3.310705 -11.92314,0.111798 -27.159342,6.345767 -31.77905,15.361835 C 25.074919,42.685784 16.80451,48.264817 10.549926,49.161003 5.4380357,49.893457 1.4334959,57.315488 -0.00798048,68.207367 -0.03552088,92.606413 7.9066536,104.95976 23.199998,120.62308 c 2.901069,2.03421 8.993446,8.2356 11.433601,6.01627 19.414247,-17.65732 20.842001,-7.88137 23.307112,6.39215 0.505783,2.92859 6.628379,2.322 13.370872,2.39371 1.983907,0.0212 73.212847,-3.66144 63.198727,-88.595952 -0.40151,-3.405384 -2.47105,-7.563593 -3.39125,-9.568617 C 128.51715,31.591372 113.2415,13.672695 110.33965,13.809115 108.62352,13.889791 85.674393,39.75524 89.770343,5.398127 90.119466,2.4696823 82.686653,1.4558917 78.955323,0.97713422 74.763841,0.43933519 70.712288,0.13229563 66.805058,0.05393706 Z M 71.660622,29.91637 C 99.677337,30.268505 112.64075,60.949903 103.33434,83.04048 88.863751,117.38923 38.505984,112.10579 42.231904,78.366664 44.459333,58.196754 71.496417,42.476903 69.508234,70.826717 69.125357,76.28626 60.609912,76.143073 57.60043,73.464773 53.959752,70.903125 51.932395,73.311621 54.091457,76.953094 92.804145,106.50326 92.843659,7.2962693 38.833644,54.437531 22.774843,68.454044 23.91707,101.53767 40.848141,112.83064 c 1.830675,1.22127 2.767813,2.30318 2.092167,2.2264 C 2.7605716,110.23409 11.711946,29.162884 71.660622,29.91637 Z m 47.314368,11.262178 c 11.02517,30.886519 6.93306,59.177532 -24.934582,78.636992 -11.153808,4.50148 -15.278051,6.72126 -18.579267,4.45481 -2.658037,-1.82488 -3.492335,-7.22802 -0.29675,-8.90296 49.961649,-9.61148 40.787429,-58.44625 36.542759,-66.148552 -3.27956,-5.951037 4.58569,-13.808769 7.26786,-8.04029 z"
     sodipodi:nodetypes="ssccccsccsssssssssssssccsccsccscscc" /></svg>
