<?xml version="1.0" encoding="UTF-8" standalone="no"?>
<!-- Created with Inkscape (http://www.inkscape.org/) -->

<svg
   width="512"
   height="512"
   viewBox="0 0 135.46667 135.46667"
   version="1.1"
   id="svg1"
   xml:space="preserve"
   sodipodi:docname="KWD_AIAF_SPEL_Earth_DamageEarth.svg"
   inkscape:version="1.3 (0e150ed6c4, 2023-07-21)"
   xmlns:inkscape="http://www.inkscape.org/namespaces/inkscape"
   xmlns:sodipodi="http://sodipodi.sourceforge.net/DTD/sodipodi-0.dtd"
   xmlns="http://www.w3.org/2000/svg"
   xmlns:svg="http://www.w3.org/2000/svg"><sodipodi:namedview
     id="namedview1"
     pagecolor="#ffffff"
     bordercolor="#000000"
     borderopacity="0.25"
     inkscape:showpageshadow="2"
     inkscape:pageopacity="0.0"
     inkscape:pagecheckerboard="0"
     inkscape:deskcolor="#d1d1d1"
     inkscape:document-units="px"
     inkscape:zoom="0.27055415"
     inkscape:cx="214.37483"
     inkscape:cy="412.11713"
     inkscape:window-width="1920"
     inkscape:window-height="1017"
     inkscape:window-x="1042"
     inkscape:window-y="276"
     inkscape:window-maximized="1"
     inkscape:current-layer="svg1" /><defs
     id="defs1" /><path
     id="path2"
     style="fill:#976533;stroke-width:4.44267"
     d="M 61.053515,5.5684421 C 47.770764,5.347364 34.666244,9.7326089 29.101436,17.820776 27.183094,20.608992 22.478852,25.616884 18.648245,28.948645 9.6403708,36.783459 7.9405396,40.591538 6.7354134,55.648179 5.9414265,65.568196 5.0619976,69.41521 2.1683591,75.598766 -7.7930111,96.885732 18.511438,129.31501 41.528928,124.12372 c 3.786621,-0.85403 4.956746,-0.53725 9.086534,2.45436 5.801545,4.20262 10.843177,4.41666 16.334999,0.68981 3.622552,-2.45834 5.849666,-2.82511 21.297786,-3.49233 25.627823,-1.10687 33.381573,-7.29847 37.807943,-30.200506 0.43734,-2.26273 -0.43014,-10.462706 3.43389,-18.220642 10.99574,-22.07654 4.69168,-22.64584 -1.97214,-33.647425 -0.92632,-1.5293 0.0771,-1.834231 0.99044,-5.07306 1.69054,-5.994809 0.95737,-12.148082 -8.61945,-22.108696 -5.11448,-5.3194662 -7.31917,-5.4778438 -18.69205,-1.338544 -8.465926,3.081282 -8.466698,3.080501 -17.632458,-2.052148 C 77.0564,7.4901703 69.023161,5.7010888 61.053515,5.5684421 Z M 41.273762,17.234757 c 1.137597,0.07716 1.972859,0.558626 1.969971,1.40558 1.990971,12.464094 11.634354,27.787922 19.23915,24.465744 3.318621,-1.449751 8.182403,-3.38989 10.803504,-4.322701 8.166843,-2.90646 10.393956,-22.527056 18.361202,-15.736009 3.442111,2.981296 -17.85269,26.271239 -19.053184,27.648841 -1.773986,2.035712 -0.729769,4.985875 5.455819,9.759052 8.130439,6.273945 11.393392,2.766086 20.319258,-3.305533 8.408638,-5.719789 13.281528,-13.349588 14.035278,-14.240431 0.89276,-1.055132 3.67496,-3.600404 5.08625,-2.5451 2.11237,1.57954 0.12452,2.818382 -4.30345,9.393537 -4.99281,7.413902 -3.93922,4.301726 5.4225,14.864964 6.03219,6.806389 6.02253,6.827441 4.38068,8.708407 -1.93522,2.217066 -1.94263,2.192205 -8.21247,-3.610572 -9.82901,-9.096822 -7.81355,-11.228483 -23.042024,1.144689 -5.950962,4.835182 -5.965378,4.935795 -1.470455,11.140843 4.093307,5.650652 4.156012,6.510414 1.617504,22.809322 -3.201605,20.55638 -7.005826,18.4243 -6.947894,-3.89453 0.06836,-26.329894 -11.761127,-40.538428 -25.642107,-46.676076 -7.837521,-3.465467 -21.067132,5.067771 -22.629837,10.563474 -0.272254,0.957452 -2.811215,8.685436 4.071856,22.619028 9.711144,19.658924 10.76172,22.401124 9.672556,25.265834 C 47.707172,119.7965 42.54702,112.97457 36.838614,94.749275 29.219072,70.422278 27.76644,70.230724 19.165361,70.230724 c -6.264478,0 -6.478938,-1.574956 -6.478938,-3.843894 0,-2.312162 0.390123,-3.611684 5.648299,-2.914162 5.690614,0.754882 5.733332,1.920575 13.266484,-5.357138 16.927164,-16.353155 13.651275,-14.673302 8.362486,-29.39164 -2.909885,-8.098009 -3.802155,-9.635541 -2.476349,-10.474953 1.208561,-0.765181 2.648818,-1.091341 3.786419,-1.01418 z m 3.161472,47.904336 c 0.528376,-0.05144 1.496712,0.577836 3.05984,2.214325 0.182921,0.191401 2.79769,3.413634 5.630968,7.585807 6.034511,8.886241 8.542286,9.48003 13.361664,3.161476 3.59556,-4.71404 6.014354,-5.592207 5.605015,-2.527883 -0.327122,2.448555 -2.160229,5.498983 -4.288101,8.316708 -2.272786,3.00968 -5.90589,4.124825 -8.279944,4.080508 -2.528252,-0.04708 -5.909086,-2.841646 -8.137232,-5.762877 -3.94413,-5.171096 -9.212627,-16.848003 -6.95221,-17.068064 z"
     sodipodi:nodetypes="sssssssssssssssssscsscssssssssssssssscssssscssssccsccccs" /></svg>
