<?xml version="1.0" encoding="UTF-8" standalone="no"?>
<!-- Created with Inkscape (http://www.inkscape.org/) -->

<svg
   width="512"
   height="512"
   viewBox="0 0 135.46666 135.46667"
   version="1.1"
   id="svg1"
   inkscape:version="1.3 (0e150ed6c4, 2023-07-21)"
   sodipodi:docname="KWD_AIAF_SPEL_Nature_Alteration.svg"
   xmlns:inkscape="http://www.inkscape.org/namespaces/inkscape"
   xmlns:sodipodi="http://sodipodi.sourceforge.net/DTD/sodipodi-0.dtd"
   xmlns="http://www.w3.org/2000/svg"
   xmlns:svg="http://www.w3.org/2000/svg">
  <sodipodi:namedview
     id="namedview1"
     pagecolor="#818181"
     bordercolor="#000000"
     borderopacity="0.25"
     inkscape:showpageshadow="2"
     inkscape:pageopacity="0.0"
     inkscape:pagecheckerboard="0"
     inkscape:deskcolor="#d1d1d1"
     inkscape:document-units="px"
     inkscape:zoom="0.74920735"
     inkscape:cx="237.58443"
     inkscape:cy="236.91706"
     inkscape:window-width="1920"
     inkscape:window-height="1017"
     inkscape:window-x="1042"
     inkscape:window-y="276"
     inkscape:window-maximized="1"
     inkscape:current-layer="svg1" />
  <defs
     id="defs1" />
  <g
     id="g1"
     transform="matrix(4.1985311,0,0,3.9999999,-3.3617925,1.6101094e-5)">
    <path
       style="display:inline;fill:#714b39;fill-opacity:1;stroke:none;stroke-width:0.0211577"
       d="M 13.464978,4.3303933 C 13.897538,4.1484571 14.1004,3.7676956 14.058989,3.3148125 14.044097,3.151868 14.011972,2.8976617 13.82435,2.8423002 12.386533,3.2674328 12.282387,3.2545965 11.635809,1.4952532 11.558525,1.3068661 11.361132,1.1441983 11.159093,1.2779189 c -0.343876,0.2275763 -0.260422,0.9759202 -0.190639,1.3175425 0.250944,1.228844 1.353884,2.1084099 1.937208,3.1736641 0.22382,0.4087278 0.610001,1.5288835 -0.181191,1.5648492 C 11.506157,7.3893453 10.570377,6.1140558 9.9739498,5.2190217 9.8302268,5.0033478 9.6916478,4.7832976 9.5548662,4.5631306 9.5074514,4.4868405 9.4064473,4.3846877 9.3942125,4.2941319 9.3756973,4.1564011 9.7477802,3.8940107 9.8309902,3.7802949 10.031065,3.5069195 10.082673,3.094363 10.02442,2.7647142 9.8958321,2.0369075 9.2693175,1.4883934 8.6621741,1.1271843 8.4099873,0.97716173 8.0075559,0.81959024 7.7100874,0.9208994 7.5254606,0.98379056 7.5369701,1.1710211 7.6399244,1.3045107 7.9492671,1.705743 8.3986975,1.9924218 8.4836262,2.5319824 8.5817541,3.1556885 7.8072879,3.3033361 7.9116847,3.7591351 7.9939489,4.1181779 8.262927,4.4926752 8.434071,4.8170238 8.7882728,5.4882949 9.1438779,6.1622555 9.4685307,6.8481741 9.5577423,7.0366564 9.6875119,7.2675178 9.6754664,7.4829035 9.6489547,7.9573356 9.0480143,8.2146799 8.6410204,8.2427015 7.8424991,8.2977095 7.4597101,7.529122 7.3451718,6.8481741 7.2577351,6.328458 7.228341,5.7858803 7.2929693,5.2613409 7.3410313,4.8712745 7.4696754,4.4903067 7.4966111,4.097654 7.5335246,3.5587443 7.4445038,3.0204398 7.2728043,2.5108209 7.1428607,2.1252166 6.9256508,1.7888796 6.7015402,1.4529339 6.5647449,1.2478475 6.4102254,1.0295303 6.1655491,0.94737475 6.0068994,0.89408429 5.8360873,0.9303875 5.6789243,0.96627076 c 0,0.90730814 1.0080664,2.04483004 0.3593613,2.59764604 C 5.7898816,3.7756472 5.4066028,3.5830993 5.1711412,3.444662 4.9322409,3.3042021 4.7688404,3.0868485 4.5783993,2.8916112 4.216308,2.5204214 3.8632473,2.143918 3.5265784,1.7490988 3.3981237,1.5984463 3.2705053,1.399964 3.0765101,1.3287701 2.9159325,1.2698299 2.7746937,1.3135006 2.7610447,1.4952074 c -0.029642,0.3947333 0.2041339,0.815898 0.4001061,1.1425143 0.4590944,0.7651709 0.9957805,1.4633239 1.7560973,1.953039 0.2207583,0.1421781 0.4554978,0.2730584 0.6981972,0.3740776 0.1166396,0.048538 0.304935,0.080299 0.3914541,0.175389 0.1350587,0.1484576 0.181058,0.4598289 0.2299582,0.6500104 0.1533818,0.5964394 0.4102736,1.5509691 -0.00878,2.0943124 C 5.7009518,8.5680712 4.8093841,7.8878126 4.3883358,7.4617093 4.0022995,7.071021 3.7376601,6.5729721 3.4943981,6.0864503 3.0022721,5.1021681 2.674688,4.0449874 2.1826197,3.060877 2.0154571,2.726548 1.8236916,2.2850481 1.4896373,2.0861574 1.222673,1.9272021 0.84044962,2.1127835 0.80321275,2.4261476 0.77647164,2.6511949 0.96995574,2.8680103 1.0870193,3.0397175 1.295686,3.3457236 1.467162,3.6822609 1.6325159,4.0129809 2.1544111,5.0567985 2.590496,6.1441386 3.069998,7.2078183 c 0.2873581,0.6373858 0.5401519,1.2830939 1.1701593,1.6586738 0.5452941,0.325114 1.1710987,0.4784197 1.7984033,0.538131 0.3109593,0.029601 0.7747049,-0.097038 1.0547392,0.073484 0.1011605,0.061593 0.04123,0.1891313 -0.00439,0.2686373 -0.107135,0.1861351 -0.5062233,0.5608216 -0.098088,0.6888086 0.074688,0.02342 0.155138,0.03613 0.2327185,0.04566 1.629498,0.200134 2.3084114,-1.7282647 3.8930327,-1.7288852 0.498237,-1.448e-4 1.474648,0.09051 1.586833,0.7193706 -0.187948,0 -0.371927,0.040098 -0.550104,0.098831 -1.43757,0.4736376 -1.49656,2.2411166 -2.6658796,2.9965816 -0.2888894,0.186631 -0.6742211,0.289901 -1.0155831,0.21543 -0.1602915,-0.03497 -0.3000836,-0.14279 -0.4654631,-0.156359 -0.2958957,-0.02426 -0.6884168,0.163134 -0.5786889,0.526979 0.1039284,0.344569 0.6974145,0.549944 1.001846,0.664859 0.2285862,0.08626 0.4735241,0.153974 0.7193546,0.159984 0.2501805,0.0064 0.4991188,-0.0068 0.740531,-0.07841 1.1414601,-0.338775 1.5500151,-1.625901 2.3070241,-2.417895 0.247886,-0.259337 0.49932,-0.501094 0.866639,-0.558785 0.186327,-0.02924 0.405667,0.01336 0.495696,0.199122 0.186115,0.384117 0.05442,0.982954 0.05442,1.396392 v 3.237143 c 0,1.954772 0.02117,3.905948 0.02117,5.860718 0,2.177567 -0.03618,4.292707 -0.491086,6.431982 -0.274057,1.28893 -0.608255,2.564961 -0.97777,3.829553 -0.178863,0.612098 -0.713731,1.896576 -0.435348,1.988846 0.3343,-0.0027 0.490003,-0.230842 0.719689,-0.435438 0.434509,-0.386758 0.810538,-0.837215 1.247995,-1.220797 0.143992,-0.126528 0.322486,-0.344035 0.507785,-0.40623 0.14924,-0.05037 0.420399,0.172429 0.550104,0.237599 0.342922,0.172641 0.654734,0.377878 0.973262,0.590721 0.207238,0.138379 0.437702,0.311032 0.698209,0.318857 0.21982,0.0065 0.422307,-0.139427 0.592409,-0.260665 0.298956,-0.213275 0.593697,-0.432475 0.888638,-0.651455 0.191681,-0.14239 0.454471,-0.37386 0.698207,-0.238652 0.213265,0.118052 0.388033,0.312287 0.571252,0.47033 0.314208,0.211019 1.674244,2.017629 1.991804,1.50433 0.08737,-0.109832 0.02602,-0.3015 -0.01546,-0.4164 -0.11022,-0.306785 -0.201633,-0.621398 -0.304878,-0.930941 -0.434582,-1.303532 -1.095758,-2.550995 -1.403814,-3.893035 -0.265333,-1.155845 -0.523241,-2.370303 -0.60427,-3.554515 -0.09203,-1.34373 0.0033,-2.716232 0.01926,-4.062299 0.0296,-2.504023 0.06346,-5.005721 0.06346,-7.511016 0.339168,0.07774 0.648496,0.112444 0.994422,0.04224 0.161436,-0.03277 0.369831,-0.168212 0.528944,-0.162066 0.07787,0.0031 0.15741,0.06167 0.232731,0.0829 0.153402,0.04323 0.315049,0.05749 0.465479,0.11202 0.350795,0.1271 0.346981,0.527587 0.573156,0.771166 0.481554,0.518126 1.33824,0.634789 1.986937,0.408527 0.564707,-0.196971 0.96818,-0.631278 1.113321,-1.212451 -0.06219,-0.794693 0.480767,-0.763364 0.89308,-1.205994 0.718648,-1.113009 0.129176,-0.981772 1.421178,-1.166449 0.478577,-0.06883 0.92818,-0.268262 1.311778,-0.561167 0.529797,-0.404511 0.95528,-0.9755877 1.09576,-1.6364756 0.06733,-1.157323 -0.143354,-1.0686069 0.914239,-1.4387341 0.550954,-0.2196896 1.106347,-0.4761231 1.58683,-0.8284342 C 33.872579,5.2697029 32.893415,2.9116037 31.851258,2.0334682 31.267086,1.5413142 30.51832,1.2990791 29.75663,1.3718898 28.728593,1.6345541 28.977372,1.5399877 27.958207,1.2302972 27.266349,1.0530376 26.470185,1.1055837 25.800109,1.3482731 25.280685,1.5363358 24.742022,1.8084799 24.343822,2.1995007 23.515436,3.1881112 23.18636,2.5520584 22.660723,1.7914505 22.430519,1.4844501 22.164999,1.2146402 21.864757,0.97581226 20.400436,-0.18926245 18.094236,-0.35334258 16.532999,0.71300924 15.184459,1.6341291 14.205694,3.4019553 14.540096,5.0709001 c 0.147942,0.7383499 0.61955,1.3668817 0.765718,2.1157906 0.07199,0.3687486 0.0816,0.7779534 -0.212378,1.0556635 C 14.87509,8.4486257 14.600182,8.388979 14.511135,8.0964731 14.307045,7.4261543 14.497012,6.7036504 14.344736,6.0230038 14.19981,5.3751729 13.76885,4.9010863 13.465098,4.3303855 m 2.687054,22.2675415 c 0.187529,-0.0455 0.299375,0.191262 0.355448,0.329 0.177506,0.437327 0.358204,0.873181 0.533175,1.31178 0.195713,0.491073 0.389722,0.996531 0.684459,1.438741 0.131812,0.197819 0.389085,0.458904 0.314396,0.719355 -0.11022,0.384432 -0.593044,0.62755 -0.847153,0.909796 -0.203744,0.226174 -0.447063,0.620762 -0.765271,0.689949 -0.36397,0.07892 -0.747942,-0.385287 -0.994424,-0.59644 -0.219095,-0.187663 -0.414433,-0.402837 -0.634729,-0.588815 -0.128035,-0.108126 -0.311912,-0.22512 -0.363809,-0.393333 -0.07824,-0.253473 0.165884,-0.594313 0.282115,-0.803995 0.291662,-0.5262 0.471832,-1.119043 0.707511,-1.671469 0.143782,-0.337046 0.270415,-0.689531 0.437546,-1.015569 0.06184,-0.120609 0.146263,-0.294087 0.290736,-0.329 z"
       id="path8765"
       inkscape:label="path8765"
       sodipodi:nodetypes="ccsccccccccccccccccsccccccccccscccccccccccccccccccsccscccccscccccsccssscccccccccccccccccccccccccscccccccccccccccsccccccccccccccccccc" />
  </g>
</svg>
