<?xml version="1.0" encoding="UTF-8" standalone="no"?>
<!-- Created with Inkscape (http://www.inkscape.org/) -->

<svg
   width="512"
   height="512"
   viewBox="0 0 135.46666 135.46666"
   version="1.1"
   id="svg1"
   xml:space="preserve"
   sodipodi:docname="KWD_AIAF_SPEL_Nature_Stagger.svg"
   inkscape:version="1.3 (0e150ed6c4, 2023-07-21)"
   xmlns:inkscape="http://www.inkscape.org/namespaces/inkscape"
   xmlns:sodipodi="http://sodipodi.sourceforge.net/DTD/sodipodi-0.dtd"
   xmlns="http://www.w3.org/2000/svg"
   xmlns:svg="http://www.w3.org/2000/svg"><sodipodi:namedview
     id="namedview1"
     pagecolor="#ffffff"
     bordercolor="#000000"
     borderopacity="0.25"
     inkscape:showpageshadow="2"
     inkscape:pageopacity="0.0"
     inkscape:pagecheckerboard="0"
     inkscape:deskcolor="#d1d1d1"
     inkscape:document-units="px"
     inkscape:zoom="1.0076757"
     inkscape:cx="203.43848"
     inkscape:cy="244.62236"
     inkscape:window-width="1920"
     inkscape:window-height="1017"
     inkscape:window-x="1042"
     inkscape:window-y="276"
     inkscape:window-maximized="1"
     inkscape:current-layer="svg1" /><defs
     id="defs1" /><g
     id="g1"
     transform="matrix(3.9999953,0,0,3.9999953,7.7295355e-5,1.813994e-4)"><path
       style="fill:#9eda74;stroke-width:0.768435"
       d="m 6.6253088,9.388574 c -1.2927886,0.1939993 -2.4454483,0.67708 -3.561175,1.235584 -2.46005057,2.245297 -3.87986303,9.347182 -2.51430495,12.575976 0.28783028,0.680588 0.30367349,0.680118 1.46476295,-0.03204 1.1828305,-0.725451 3.5645492,-1.416324 4.899822,-1.421618 2.410204,-0.0094 4.9795022,-0.764904 6.3565682,-1.704289 -2.937945,-4.356419 -2.438197,-7.231279 -1.704169,-10.581266 z"
       id="path3" /><path
       style="fill:#9eda74;stroke-width:0.768435"
       d="m 19.473648,8.7798257 c -0.09829,0.00254 -0.191299,0.011439 -0.286967,0.017053 l -0.887623,1.3415203 c -3.1403,4.74631 2.705928,6.362073 5.332143,14.068908 2.55531,0.137028 3.912717,-1.532258 7.175256,-6.088 3.367115,-4.701771 3.886879,-3.437333 1.816391,-4.514453 -2.664348,-1.386061 -8.73164,-5.016796 -13.1492,-4.8250283 z"
       id="path2"
       sodipodi:nodetypes="ccccssc" /><path
       style="fill:#9eda74;stroke-width:0.768435"
       d="M 5.662338,0 C 5.5211766,-0.00303357 5.4631775,0.1265923 5.3534606,0.38602294 4.5026637,2.3976893 5.0729102,6.3746106 6.3324631,8.6976601 8.3423246,8.6785197 10.418352,8.7738398 11.767887,8.858348 12.632112,6.4191353 13.958815,4.822859 15.315558,2.9930989 14.360563,2.1873334 12.210684,1.5023049 10.205187,1.4944824 9.1872138,1.4904465 7.3720905,0.96337419 6.4703357,0.41031086 6.0277451,0.13884741 5.8034997,0.00303357 5.662338,0 Z"
       id="path1" /><path
       id="rect1"
       style="fill:#9eda74;stroke-width:0.716217"
       d="m 14.545204,20.286339 c -3.171642,-4.560983 -2.598771,-7.493935 -1.83371,-10.9710767 1.144115,-3.5114102 3.355779,-5.5360406 5.133512,-8.35813818 1.820663,-2.36255152 4.89328,0.0865668 3.177778,2.61189138 l -4.346387,6.5692135 c -3.385351,5.11668 3.675444,6.590388 5.884356,15.984663 0.754186,2.254002 0.106842,4.787428 -0.306243,7.124421 -0.07434,0.420557 -5.793807,1.510873 -5.005429,-0.854178 1.848867,-5.546403 0.898114,-6.926952 -2.703877,-12.106796 z"
       sodipodi:nodetypes="scccscsss" /><path
       id="path7"
       style="fill:#9eda74;stroke-width:0.444253"
       d="m 26.937963,0.52067089 c -1.403375,-0.0202536 -2.824742,0.002755 -3.894068,1.22650921 -0.344525,1.4250932 -2.793682,4.733263 -3.360245,5.801019 1.2502,0.093174 4.914739,0.846592 6.5151,1.4666501 1.61352,-0.5185717 3.117616,-1.7356874 4.447021,-2.7977565 0.886215,-0.7702193 1.773265,-1.51163 1.9719,-1.6469279 C 33.73619,3.4957473 33.384951,4.3004585 31.126187,2.6038766 29.344047,1.2652912 28.341339,0.54092447 26.937963,0.52067089 Z"
       sodipodi:nodetypes="scccccss" /></g></svg>
