<?xml version="1.0" encoding="UTF-8" standalone="no"?>
<!-- Created with Inkscape (http://www.inkscape.org/) -->

<svg
   width="512"
   height="512"
   viewBox="0 0 135.46666 135.46666"
   version="1.1"
   id="svg1"
   xml:space="preserve"
   sodipodi:docname="ThornsTest.svg"
   inkscape:version="1.3 (0e150ed6c4, 2023-07-21)"
   xmlns:inkscape="http://www.inkscape.org/namespaces/inkscape"
   xmlns:sodipodi="http://sodipodi.sourceforge.net/DTD/sodipodi-0.dtd"
   xmlns="http://www.w3.org/2000/svg"
   xmlns:svg="http://www.w3.org/2000/svg"><sodipodi:namedview
     id="namedview1"
     pagecolor="#ffffff"
     bordercolor="#000000"
     borderopacity="0.25"
     inkscape:showpageshadow="2"
     inkscape:pageopacity="0.0"
     inkscape:pagecheckerboard="0"
     inkscape:deskcolor="#d1d1d1"
     inkscape:document-units="px"
     inkscape:zoom="1.0822166"
     inkscape:cx="188.502"
     inkscape:cy="203.74849"
     inkscape:window-width="1920"
     inkscape:window-height="1017"
     inkscape:window-x="1042"
     inkscape:window-y="276"
     inkscape:window-maximized="1"
     inkscape:current-layer="svg1" /><defs
     id="defs1" /><path
     id="path1"
     style="fill:#9eda74;fill-opacity:1;stroke-width:4.5514"
     d="m 67.733338,0 c -4.321113,8.365431 0.428336,20.553616 -6.06945,27.763524 -11.793583,5.912715 -17.877272,-8.022222 -26.600279,-13.493019 2.339831,6.840127 7.179006,12.36909 11.403527,18.11749 2.815109,7.445965 -11.705172,6.304389 -15.728587,2.631434 L 4e-6,12.640217 c 4.1106635,8.93698 18.0703,24.583474 26.134409,35.149972 -0.864162,5.490345 -12.496476,0.42206 -18.0038448,2.484464 4.6835928,3.349033 19.8556028,3.556069 20.1746098,9.638367 -4.550166,5.552125 -12.817623,6.79559 -17.367031,11.897239 7.035223,0.028 12.750433,-5.582329 19.707367,-1.979084 10.433153,8.192154 -3.45472,19.137109 -9.621208,25.295678 7.345156,-2.535952 27.390379,-13.534999 21.177101,5.764317 -0.661544,3.63294 -0.676432,3.71021 -3.545036,14.8359 7.420565,-8.0352 8.917218,-14.3813 14.449471,-15.764979 11.751815,9.294779 10.987619,22.428169 15.659632,35.504609 2.822157,-12.35268 5.593306,-24.30445 14.636148,-33.7921 4.029961,0.1626 7.791842,19.24787 13.495192,27.67957 -0.591856,-6.60757 -0.586072,-6.66428 -1.296357,-10.83478 -1.139016,-8.30819 -3.034624,-17.09068 -2.058652,-24.561169 5.254013,-6.767142 14.730715,-0.30224 20.026585,2.480869 2.41954,1.271524 3.06918,1.269552 7.54627,1.439852 -2.11062,-2.944809 -2.1728,-3.483833 -5.16771,-5.90391 -7.71693,-4.949493 -13.32171,-7.130973 -13.86521,-14.668031 1.61853,-7.12299 9.05447,-10.593775 15.7161,-7.844855 2.33002,0.856133 11.13832,3.194985 4.83444,-0.634788 -3.58056,-3.593197 -16.00847,-5.896513 -12.03126,-11.735903 4.22526,-3.727001 14.72363,-3.927005 16.19147,-6.920158 -4.85619,-2.165192 -10.95097,2.258801 -14.93356,0.56946 2.7432,-6.494605 5.90518,-9.445042 9.88099,-15.232001 4.66265,-6.134417 9.28643,-12.300395 13.72674,-18.598436 -9.72481,5.480683 -15.93003,10.990767 -25.77748,16.329861 -4.7263,2.092361 -10.373326,6.047896 -15.471487,4.322755 -8.603374,-2.850833 2.842849,-12.186469 6.269177,-15.384735 1.26401,-1.114993 0,0 4.29812,-3.933215 C 100.22968,17.335155 83.138262,32.396858 74.060284,27.466878 70.140323,19.328306 71.702431,8.121405 67.733338,0 Z m 0.80508,36.533529 C 82.825774,35.788032 94.311717,48.610109 96.00411,62.079596 98.058546,73.385968 93.246145,85.717579 83.290086,91.786144 70.907019,100.93417 52.555926,94.809241 44.8369,82.440738 34.816274,67.19295 42.592179,43.658392 60.082916,37.877112 c 2.712353,-0.933056 5.586845,-1.3962 8.455502,-1.343583 z m 0,3.93503 C 56.519099,39.683081 46.613764,50.138961 45.02696,61.51546 42.498607,73.44984 48.554953,87.761559 61.015364,91.09738 72.862151,96.001382 86.312935,87.889315 90.836412,76.64594 97.85917,62.148733 87.627875,42.498567 71.456071,40.634987 c -0.967252,-0.12164 -1.942813,-0.17768 -2.917653,-0.1664 z"
     sodipodi:nodetypes="ccccccccccccccccccccsccccccccccccccccccccccccccccc" /></svg>
