<?xml version="1.0" encoding="UTF-8" standalone="no"?>
<!-- Created with Inkscape (http://www.inkscape.org/) -->

<svg
   width="512"
   height="512"
   viewBox="0 0 135.46666 135.46667"
   version="1.1"
   id="svg1"
   xml:space="preserve"
   inkscape:version="1.3 (0e150ed6c4, 2023-07-21)"
   sodipodi:docname="KWD_AIAF_SPEL_Wind_DamageWind.svg"
   xmlns:inkscape="http://www.inkscape.org/namespaces/inkscape"
   xmlns:sodipodi="http://sodipodi.sourceforge.net/DTD/sodipodi-0.dtd"
   xmlns="http://www.w3.org/2000/svg"
   xmlns:svg="http://www.w3.org/2000/svg"><sodipodi:namedview
     id="namedview1"
     pagecolor="#ffffff"
     bordercolor="#000000"
     borderopacity="0.25"
     inkscape:showpageshadow="2"
     inkscape:pageopacity="0.0"
     inkscape:pagecheckerboard="0"
     inkscape:deskcolor="#d1d1d1"
     inkscape:document-units="px"
     inkscape:zoom="1.0822166"
     inkscape:cx="349.28313"
     inkscape:cy="302.61964"
     inkscape:window-width="1920"
     inkscape:window-height="1017"
     inkscape:window-x="1042"
     inkscape:window-y="276"
     inkscape:window-maximized="1"
     inkscape:current-layer="svg1" /><defs
     id="defs1" /><path
     id="path14"
     style="fill:#c1c1c1;fill-opacity:1;stroke-width:6.61183"
     d="M 105.92503,0.01099399 C 98.641042,-0.14112205 88.276238,3.0868653 74.397832,11.552042 c -8.164928,6.003532 -2.767457,4.415093 2.012492,1.799861 26.126326,-14.29439357 29.501966,16.149993 10.990487,21.584814 -9.811277,2.880512 -50.930931,2.045276 -68.997784,-7.97148 -0.846138,-0.46912 -1.775686,-0.853141 -2.065525,-0.853141 -2.877307,0 6.397041,8.555061 13.045089,11.911733 8.788591,4.437459 14.68194,5.662377 26.441112,6.506943 1.978012,0.142122 14.339619,1.332304 3.54305,2.017701 -5.141765,0.09028 -3.673571,1.963375 1.856534,2.36862 C 73.634328,48.736531 85.299286,48.013258 93.811584,44.998678 120.64236,37.076851 129.71939,0.50791236 105.92503,0.01099399 Z M 116.74135,48.919697 c -2.27948,0.05496 -5.87671,1.0112 -10.74094,2.87499 -27.835416,10.665495 -42.861336,1.742781 -42.861336,6.137306 0,6.807204 50.377516,5.422812 55.755146,-4.763758 1.53064,-2.899438 0.7779,-4.319163 -2.15287,-4.248538 z M 81.687211,73.201698 c -10.233726,0.0208 -18.548137,1.434245 -18.548137,4.19967 0,4.394529 15.025916,-4.52819 42.861336,6.137309 4.86423,1.863798 8.46146,2.820066 10.74094,2.874994 2.93077,0.07064 3.68351,-1.349096 2.15287,-4.248542 -3.19298,-6.048276 -22.250014,-8.993572 -37.207009,-8.963431 z M 61.223287,86.549365 c -5.530105,0.405192 -6.998299,2.278355 -1.856534,2.36862 10.796569,0.685396 -1.565038,1.875635 -3.54305,2.0177 -11.759172,0.844555 -17.652521,2.069485 -26.441112,6.506945 -6.648048,3.35668 -15.922396,11.91172 -13.045089,11.91172 0.289851,0 1.219387,-0.384 2.065525,-0.85313 18.066853,-10.016757 59.186507,-10.851994 68.997784,-7.97148 18.511479,5.43483 15.135839,35.8792 -10.990487,21.58482 -4.779949,-2.61524 -10.17742,-4.20369 -2.012492,1.79986 C 133.61239,160.03249 128.85586,100.81467 93.811584,90.467784 85.299286,87.4532 73.634328,86.729971 61.223287,86.549365 Z" /></svg>
