<?xml version="1.0" encoding="UTF-8" standalone="no"?>
<!-- Created with Inkscape (http://www.inkscape.org/) -->

<svg
   width="512"
   height="512"
   viewBox="0 0 135.46666 135.46667"
   version="1.1"
   id="svg1"
   inkscape:version="1.3 (0e150ed6c4, 2023-07-21)"
   sodipodi:docname="Deer.svg"
   xmlns:inkscape="http://www.inkscape.org/namespaces/inkscape"
   xmlns:sodipodi="http://sodipodi.sourceforge.net/DTD/sodipodi-0.dtd"
   xmlns="http://www.w3.org/2000/svg"
   xmlns:svg="http://www.w3.org/2000/svg">
  <sodipodi:namedview
     id="namedview1"
     pagecolor="#ffffff"
     bordercolor="#000000"
     borderopacity="0.25"
     inkscape:showpageshadow="2"
     inkscape:pageopacity="0.0"
     inkscape:pagecheckerboard="0"
     inkscape:deskcolor="#d1d1d1"
     inkscape:document-units="px"
     inkscape:zoom="0.74920735"
     inkscape:cx="349.70292"
     inkscape:cy="242.25603"
     inkscape:window-width="1920"
     inkscape:window-height="1017"
     inkscape:window-x="1042"
     inkscape:window-y="276"
     inkscape:window-maximized="1"
     inkscape:current-layer="svg1" />
  <defs
     id="defs1" />
  <path
     id="path6"
     style="fill:#c1c1c1;stroke-width:0.119177"
     d="M 24.479126 0 C 20.303787 0 16.942635 2.1170976 16.942635 4.746997 C 16.942635 7.3768984 20.303787 9.493994 24.479126 9.493994 L 105.69587 9.493994 C 109.87122 9.493994 113.23236 7.3768984 113.23236 4.746997 C 113.23236 2.1170976 109.87122 0 105.69587 0 L 24.479126 0 z M 37.585819 28.750183 C 35.042428 28.750183 32.994885 30.797726 32.994885 33.341117 L 32.994885 36.444803 C 32.994885 38.988194 35.042428 41.035738 37.585819 41.035738 L 117.86102 41.035738 C 120.40441 41.035738 122.45196 38.988194 122.45196 36.444803 L 122.45196 33.341117 C 122.45196 30.797726 120.40441 28.750183 117.86102 28.750183 L 37.585819 28.750183 z M 5.8420206 60.291926 C 2.605662 60.291926 0 62.897588 0 66.133947 L 0 70.139904 C -1.2533172e-15 73.376262 2.605662 75.981408 5.8420206 75.981408 L 129.62464 75.981408 C 132.861 75.981408 135.46666 73.376262 135.46666 70.139904 L 135.46666 66.133947 C 135.46666 62.897588 132.861 60.291926 129.62464 60.291926 L 5.8420206 60.291926 z M 44.594177 93.878506 C 41.006104 93.878506 38.11757 97.525709 38.11757 99.870905 C 38.11757 102.2161 41.006104 105.27678 44.594177 105.27678 L 114.38785 105.27678 C 117.9759 105.27678 120.86446 102.2161 120.86446 99.870905 C 120.86446 97.525709 117.9759 93.878506 114.38785 93.878506 L 44.594177 93.878506 z M 30.142346 124.58309 C 25.967008 124.58309 22.605338 127.00986 22.605338 130.02462 C 22.605338 133.03939 25.967008 135.46666 30.142346 135.46666 L 111.35909 135.46666 C 115.53442 135.46666 118.89558 133.03939 118.89558 130.02462 C 118.89558 127.00986 115.53442 124.58309 111.35909 124.58309 L 30.142346 124.58309 z " />
</svg>
