<?xml version="1.0" encoding="UTF-8" standalone="no"?>
<!-- Created with Inkscape (http://www.inkscape.org/) -->

<svg
   width="512"
   height="512"
   viewBox="0 0 135.46666 135.46667"
   version="1.1"
   id="svg1"
   inkscape:version="1.3 (0e150ed6c4, 2023-07-21)"
   sodipodi:docname="KWD_AIAF_SPEL_Corrosive_DamageCorrosivePoison.svg"
   xmlns:inkscape="http://www.inkscape.org/namespaces/inkscape"
   xmlns:sodipodi="http://sodipodi.sourceforge.net/DTD/sodipodi-0.dtd"
   xmlns="http://www.w3.org/2000/svg"
   xmlns:svg="http://www.w3.org/2000/svg">
  <sodipodi:namedview
     id="namedview1"
     pagecolor="#ffffff"
     bordercolor="#000000"
     borderopacity="0.25"
     inkscape:showpageshadow="2"
     inkscape:pageopacity="0.0"
     inkscape:pagecheckerboard="0"
     inkscape:deskcolor="#d1d1d1"
     inkscape:document-units="px"
     inkscape:zoom="0.7071068"
     inkscape:cx="309.71276"
     inkscape:cy="376.8879"
     inkscape:window-width="1920"
     inkscape:window-height="1017"
     inkscape:window-x="1042"
     inkscape:window-y="276"
     inkscape:window-maximized="1"
     inkscape:current-layer="svg1" />
  <defs
     id="defs1" />
  <path
     id="path1"
     style="fill:#36b978;stroke:none;stroke-width:0.118404"
     d="m 67.722481,0 -1.959439,8.4365359 -7.986425,31.7598631 -57.7983211,9.157127 0.08671916,0.01032 -0.08671916,0.01032 57.8437461,9.161259 c 0.01279,0.01079 0.02742,0.02012 0.04336,0.02891 l 9.857079,76.750585 9.857079,-76.750585 c 0.01598,-0.0088 0.03025,-0.01772 0.04336,-0.02891 l 57.84374,-9.161259 -0.0867,-0.01032 0.0867,-0.01032 L 77.666278,40.196399 69.681919,8.4365359 Z M 13.993765,2.1184253 c -0.624441,-0.00623 -1.205976,0.2240579 -1.705477,0.7082065 -0.915808,0.9158305 -0.916801,2.4555619 0.03097,3.4130187 l 25.57596,25.5800885 c 0.957469,0.957461 2.457641,0.95852 3.415083,0.0351 0.915802,-0.915832 0.914731,-2.455565 -0.03304,-3.413019 L 15.697177,2.8596677 C 15.239198,2.4017528 14.616167,2.1535259 13.9917,2.1535259 Z m 107.378975,0.2291864 0.004,0.033036 c -0.62036,0.00619 -1.2423,0.2467176 -1.69722,0.7040771 L 94.268869,28.495504 c -0.951109,0.951101 -0.950114,2.439212 -0.03097,3.390307 0.909716,0.909744 2.439209,0.91047 3.390306,-0.03304 L 123.03485,6.4399303 c 0.9511,-0.9511011 0.95057,-2.4392116 0.033,-3.3903063 -0.45481,-0.4548759 -1.07484,-0.7020123 -1.69515,-0.7020123 z M 38.107886,67.808193 v 0.03717 c -0.70136,0.0068 -1.403761,0.277848 -1.918145,0.794925 L 7.4588561,97.367039 c -1.0754065,1.07539 -1.0750541,2.758821 -0.037165,3.834221 1.0286186,1.02861 2.7567779,1.02774 3.8321609,-0.0392 L 39.986802,72.437366 C 41.0622,71.361968 41.061808,69.678535 40.023972,68.603137 39.50958,68.088742 38.80928,67.808213 38.10789,67.808213 Z m 59.097047,0.0062 c -0.666804,-0.0064 -1.332034,0.238696 -1.821102,0.755696 -0.977939,0.977944 -0.979198,2.621864 0.0351,3.64427 l 27.316539,27.312406 c 1.02242,1.022435 2.62392,1.023175 3.64633,0.0351 0.97794,-0.977939 0.97713,-2.623898 -0.0372,-3.646331 L 99.028101,68.605183 C 98.539113,68.116195 97.871777,67.849486 97.204933,67.849486 Z M 48.260224,84.62758 v 0.01033 c -0.958589,-0.02917 -1.918081,0.523829 -2.353808,1.482486 L 29.902602,120.43846 c -0.610051,1.26368 -0.06501,2.78877 1.176903,3.35521 1.263671,0.56635 2.74333,0.0216 3.309781,-1.26362 l 16.00588,-34.318077 c 0.610084,-1.263671 0.06165,-2.788749 -1.176904,-3.355206 -0.31249,-0.145556 -0.653076,-0.219637 -0.958038,-0.229187 z m 38.924517,0 c -0.324676,0.0092 -0.653048,0.08395 -0.958042,0.229187 -1.263791,0.566477 -1.786988,2.091479 -1.176904,3.355206 l 16.005885,34.322207 c 0.61013,1.26377 2.09168,1.83007 3.31184,1.26362 1.26378,-0.56647 1.78699,-2.09148 1.17691,-3.3552 L 89.538546,86.120391 c -0.435784,-0.958669 -1.395108,-1.526053 -2.353805,-1.482486 z" />
</svg>
