<?xml version="1.0" encoding="UTF-8" standalone="no"?>
<!-- Created with Inkscape (http://www.inkscape.org/) -->

<svg
   width="512"
   height="512"
   viewBox="0 0 135.46666 135.46667"
   version="1.1"
   id="svg1"
   inkscape:version="1.3 (0e150ed6c4, 2023-07-21)"
   sodipodi:docname="KWD_AIAF_SPEL_Corrosive_DamageCorrosiveWind.svg"
   xmlns:inkscape="http://www.inkscape.org/namespaces/inkscape"
   xmlns:sodipodi="http://sodipodi.sourceforge.net/DTD/sodipodi-0.dtd"
   xmlns="http://www.w3.org/2000/svg"
   xmlns:svg="http://www.w3.org/2000/svg">
  <sodipodi:namedview
     id="namedview1"
     pagecolor="#ffffff"
     bordercolor="#000000"
     borderopacity="0.25"
     inkscape:showpageshadow="2"
     inkscape:pageopacity="0.0"
     inkscape:pagecheckerboard="0"
     inkscape:deskcolor="#d1d1d1"
     inkscape:document-units="px"
     showgrid="true"
     inkscape:zoom="1.0595392"
     inkscape:cx="302.01808"
     inkscape:cy="329.86038"
     inkscape:window-width="1920"
     inkscape:window-height="1017"
     inkscape:window-x="1042"
     inkscape:window-y="276"
     inkscape:window-maximized="1"
     inkscape:current-layer="svg1">
    <inkscape:grid
       id="grid1"
       units="px"
       originx="0"
       originy="0"
       spacingx="0.26458332"
       spacingy="0.26458334"
       empcolor="#0099e5"
       empopacity="0.30196078"
       color="#0099e5"
       opacity="0.14901961"
       empspacing="5"
       dotted="false"
       gridanglex="30"
       gridanglez="30"
       visible="true" />
  </sodipodi:namedview>
  <defs
     id="defs1" />
  <g
     id="g8"
     transform="matrix(1.0428892,0,0,1.0428892,-2.7593128,-2.7384285)">
    <circle
       style="display:inline;fill:#36b978;stroke-width:2.34541"
       id="circle5"
       cx="-5.8635354"
       cy="-26.944796"
       r="5.8635354"
       transform="matrix(-3.8354987,0,0,-3.8354987,2.645834,2.6057857)" />
    <circle
       style="display:inline;fill:#36b978;stroke-width:2.34541"
       id="circle6"
       cx="-16.896904"
       cy="-6.9323106"
       r="5.8635354"
       transform="matrix(-3.8354987,0,0,-3.8354987,2.645834,2.6057857)" />
    <circle
       style="display:inline;fill:#36b978;stroke-width:2.34541"
       id="path5"
       cx="-28.00313"
       cy="-26.944796"
       r="5.8635354"
       transform="matrix(-3.8354987,0,0,-3.8354987,2.645834,2.6057857)" />
    <path
       id="rect6"
       style="display:inline;fill:#36b978;stroke-width:0.0689827"
       d="m 23.821283,26.691417 0.2558,4.529417 C 16.486184,33.695693 9.5681305,29.386217 3.8746169,25.390113 c 6.3947341,2.977024 13.6361701,5.8321 19.9466661,1.301304 z"
       sodipodi:nodetypes="cccc"
       transform="matrix(3.8354987,0,0,3.8354987,2.645834,2.6057857)" />
    <path
       id="path7"
       style="display:inline;fill:#36b978;stroke-width:0.0852434"
       d="m 17.616159,10.123226 4.372278,-3.5086425 c 7.938294,5.8587545 8.569601,15.9107215 8.6371,24.5060425 C 29.029642,22.551507 26.7033,13.218278 17.616159,10.123226 Z"
       sodipodi:nodetypes="cccc"
       transform="matrix(3.8354987,0,0,3.8354987,2.645834,2.6057857)" />
    <path
       id="path8"
       style="display:inline;fill:#36b978;stroke-width:0.0824741"
       d="M 9.0237196,24.455729 3.9687499,22.489584 C 5.0375446,13.003939 12.389515,5.8817654 19.558809,1.6671615 13.150842,7.1497196 7.2210825,15.344456 9.0237196,24.455729 Z"
       sodipodi:nodetypes="cccc"
       transform="matrix(3.8354987,0,0,3.8354987,2.645834,2.6057857)" />
  </g>
</svg>
