<?xml version="1.0" encoding="UTF-8" standalone="no"?>
<svg
   version="1.1"
   id="svg1"
   sodipodi:docname="KWD_AIAF_SPEL_Arcane_EnhanceWeapon.svg"
   width="512"
   height="512"
   inkscape:version="1.3 (0e150ed6c4, 2023-07-21)"
   xmlns:inkscape="http://www.inkscape.org/namespaces/inkscape"
   xmlns:sodipodi="http://sodipodi.sourceforge.net/DTD/sodipodi-0.dtd"
   xmlns="http://www.w3.org/2000/svg"
   xmlns:svg="http://www.w3.org/2000/svg">
  <sodipodi:namedview
     id="namedview1"
     pagecolor="#ffffff"
     bordercolor="#000000"
     borderopacity="0.25"
     inkscape:showpageshadow="2"
     inkscape:pageopacity="0.0"
     inkscape:pagecheckerboard="0"
     inkscape:deskcolor="#d1d1d1"
     showgrid="true"
     inkscape:zoom="1"
     inkscape:cx="253"
     inkscape:cy="290.5"
     inkscape:window-width="1920"
     inkscape:window-height="1017"
     inkscape:window-x="1042"
     inkscape:window-y="276"
     inkscape:window-maximized="1"
     inkscape:current-layer="svg1">
    <inkscape:grid
       id="grid1"
       units="px"
       originx="0"
       originy="0"
       spacingx="1"
       spacingy="1"
       empcolor="#0099e5"
       empopacity="0.30196078"
       color="#0099e5"
       opacity="0.14901961"
       empspacing="5"
       dotted="false"
       gridanglex="30"
       gridanglez="30"
       visible="true" />
  </sodipodi:namedview>
  <defs
     id="defs1">
    <rect
       x="-20"
       y="20"
       width="188.88463"
       height="124.24978"
       id="rect5" />
    <rect
       x="-60"
       y="-40"
       width="180"
       height="200"
       id="rect4" />
  </defs>
  <g
     id="g2"
     transform="matrix(15.118135,0,0,15.118135,0.00132128,-0.00104119)"
     style="fill:#36b978">
    <path
       id="path19"
       style="fill:#36b978;stroke-width:4.10041"
       d="M 2.148706,0 C 2.1057581,-0.00241802 2.0549206,0.01937132 2.0164143,0.0578776 L 0.0578776,2.0164143 c -0.06160976,0.06161 -0.07985134,0.1559353 -0.02635498,0.1963705 L 0.97513426,2.9259195 C 1.0286277,2.9663538 1.1098947,2.9611745 1.1715047,2.8995646 L 2.8995646,1.1715047 c 0.06161,-0.06161 0.06679,-0.1428781 0.026355,-0.19637044 L 2.2127848,0.03152262 C 2.1976204,0.0114608 2.1744765,0.00145284 2.148706,0 Z m 12.249898,0.00465088 c -2.037056,0.007407 -3.377335,0.26419748 -2.858223,0.82785643 8.3591,3.79386169 14.557751,9.08131609 12.859163,19.82772969 l 6.849711,7.205245 C 33.237378,23.932786 33.86305,19.259987 33.863049,17.86971 33.608425,17.593256 33.088286,16.691082 33.486844,15.855879 35.186898,12.293371 30.968066,5.2895186 25.009326,1.7823201 23.124646,0.67307004 17.793698,-0.00769412 14.398604,0.00465088 Z M 3.2447631,1.4484904 c -0.090432,0.00538 -0.2229905,0.078296 -0.269751,0.1250569 l -1.3988809,1.398881 c -0.062347,0.062347 -0.1710157,0.2770225 -0.1043864,0.3415812 2.1793615,2.1122267 4.3985735,4.1845036 6.437333,6.4373331 0.06225,0.068786 0.1686463,0.068032 0.2309937,0.00568 L 9.7596108,8.1374876 C 9.8219584,8.0751401 9.8226906,7.9687677 9.7539264,7.906494 7.5162315,5.8800062 5.4311876,3.6554604 3.3165934,1.4691609 3.3004687,1.4524895 3.2749082,1.4466999 3.2447631,1.4484904 Z m 9.7880329,4.422469 c -0.03603,-0.00282 -0.07221,0.00829 -0.0987,0.028939 -2.538678,1.9787148 -4.8579236,4.2634876 -6.9148233,6.9148226 -0.041179,0.05308 -0.040313,0.139889 0.025322,0.196371 l 1.1616861,0.999939 c 0.065634,0.05648 0.171216,0.08964 0.1958537,0.0248 1.2907221,-3.396791 3.3841135,-5.4249561 6.6719435,-6.6719433 0.06486,-0.0246 0.02587,-0.1266068 -0.02532,-0.1958537 L 13.130464,5.9252196 c -0.0256,-0.034623 -0.06164,-0.05144 -0.09767,-0.05426 z m -0.872298,2.8773437 c -0.183679,0.1016454 -0.362089,0.2081228 -0.535368,0.3198771 -0.173279,0.1117546 -0.341483,0.2285033 -0.504362,0.3503662 -0.16288,0.1218631 -0.320359,0.2488836 -0.472839,0.3808553 -0.15248,0.1319712 -0.299754,0.2692643 -0.441834,0.4113443 -0.14208,0.14208 -0.2791473,0.289129 -0.4108275,0.441317 -0.1316805,0.152188 -0.258025,0.309508 -0.379305,0.471806 C 9.2946811,11.286166 9.1785444,11.453241 9.0676634,11.625647 8.9567822,11.798053 8.8513679,11.9754 8.7508869,12.157914 L 31.172257,33.473925 c 0.06585,0.06259 0.157495,0.09269 0.255798,0.08423 l 2.434994,0.280603 -0.301274,-2.41794 -0.0021,0.0015 c 0.0078,-0.09697 -0.02179,-0.187372 -0.0832,-0.252698 z M 3.6964151,11.977563 C 3.2101634,11.972378 2.6670079,12.217234 2.1197672,12.7031 -3.0695469,17.310425 2.304483,26.638346 7.2879271,28.964123 9.0932441,29.83715 8.9222952,27.85291 7.0135253,25.780338 6.0393428,24.722548 3.1669516,21.748932 2.76934,20.392553 c -0.8894113,-3.034403 1.1948544,-2.661186 2.2902994,-0.0124 0.4436118,1.072953 1.8194636,3.050109 3.0571777,4.394047 1.6761702,1.820007 2.0534679,2.657106 1.4784627,3.281453 -2.4889956,2.702594 3.6401752,7.395433 6.8951862,5.279265 0.853959,-0.555199 2.08854,-0.708079 2.743502,-0.339515 4.026129,1.593524 6.995505,0.722451 9.168432,-1.238167 L 22.479764,26.127087 C 17.313497,30.670467 9.6351544,23.8384 7.8894408,21.753711 7.0318076,20.392372 5.4975179,17.984632 5.5278279,15.735473 5.5355462,15.162217 5.4957825,14.66389 5.424475,14.223938 L 4.7144408,13.612606 C 4.630629,13.540482 4.6298196,13.429755 4.6824014,13.361975 4.7956614,13.215983 4.9130986,13.075767 5.0276,12.93151 4.6989036,12.302408 4.2341621,11.983298 3.6964151,11.977563 Z" />
  </g>
</svg>
